<?xml version="1.0" encoding="UTF-8" standalone="no"?>
<!DOCTYPE svg PUBLIC "-//W3C//DTD SVG 1.0//EN" "http://www.w3.org/TR/2001/REC-SVG-20010904/DTD/svg10.dtd">
<!-- Generated by Microsoft Visio 11.0, SVG Export, v1.0 afsa_aka.svg Page-1 -->
<svg xmlns="http://www.w3.org/2000/svg" xmlns:v="http://schemas.microsoft.com/visio/2003/SVGExtensions/" width="8.26772in"
		height="11.6929in" viewBox="0 0 595.276 841.89" xml:space="preserve" color-interpolation-filters="sRGB" class="st9">
	<title>Afsa_aka</title>
	<v:documentProperties v:langID="1051" v:metric="true" v:viewMarkup="false"/>

	<style type="text/css">
	<![CDATA[
		.st1 {marker-end:url(#mrkr10-9);marker-start:url(#mrkr10-7);stroke:#000000;stroke-linecap:round;stroke-linejoin:round;stroke-width:0.24}
		.st2 {fill:#000000;fill-opacity:1;stroke:#000000;stroke-opacity:1;stroke-width:0.08695652173913}
		.st3 {stroke:#000000;stroke-dasharray:1.68,1.2;stroke-linecap:round;stroke-linejoin:round;stroke-width:0.24}
		.st4 {stroke:#000000;stroke-linecap:round;stroke-linejoin:round;stroke-width:0.24}
		.st5 {fill:#000000;font-family:Arial;font-size:0.75em}
		.st6 {fill:none;stroke:none;stroke-linecap:round;stroke-linejoin:round;stroke-width:0.24}
		.st7 {fill:none;stroke:none;stroke-linecap:round;stroke-linejoin:round;stroke-width:0.72}
		.st8 {baseline-shift:-32.4951%;font-size:0.649902em}
		.st9 {fill:none;fill-rule:evenodd;font-size:12;overflow:visible;stroke-linecap:square;stroke-miterlimit:3}
	]]>
	</style>

	<defs id="Markers">
		<g id="lend10">
			<path
					d="M 0 0.75 C -0.414214 0.75 -0.75 0.414214 -0.75 0 -0.75 -0.414214 -0.414214 -0.75 0 -0.75 0.414214 -0.75 0.75 -0.414214 0.75 0 0.75 0.414214 0.414214 0.75 0 0.75 Z "
					style="stroke:none"/>
		</g>
		<marker id="mrkr10-7" class="st2" v:arrowType="10" v:arrowSize="2" v:setback="7.125" refX="7.125" orient="auto"
				markerUnits="strokeWidth">
			<use xlink:href="#lend10" transform="scale(11.5) "/>
		</marker>
		<marker id="mrkr10-9" class="st2" v:arrowType="10" v:arrowSize="2" v:setback="8.625" refX="-8.625" orient="auto"
				markerUnits="strokeWidth">
			<use xlink:href="#lend10" transform="scale(-11.5,-11.5) "/>
		</marker>
	</defs>
	<g v:mID="0" v:index="1" v:groupContext="foregroundPage">
		<title>Page-1</title>
		<v:pageProperties v:drawingScale="1" v:pageScale="1" v:drawingUnits="19" v:shadowOffsetX="9" v:shadowOffsetY="-9"/>
		<g id="shape46-1" v:mID="46" v:groupContext="shape" transform="translate(-70.9964,-416.605) rotate(-33.6901)">
			<title>Sheet.46</title>
			<path d="M1.71 841.89 L2.07 841.89 L62.83 841.89" class="st1"/>
		</g>
		<g id="shape47-10" v:mID="47" v:groupContext="shape" transform="translate(37.0036,984.384) rotate(-146.31)">
			<title>Sheet.47</title>
			<path d="M1.71 841.89 L2.07 841.89 L62.83 841.89" class="st1"/>
		</g>
		<g id="shape50-17" v:mID="50" v:groupContext="shape" transform="translate(-250.512,825.024) rotate(-126.87)">
			<title>Sheet.50</title>
			<path d="M1.71 841.89 L2.07 841.89 L42.93 841.89" class="st1"/>
		</g>
		<g id="shape51-24" v:mID="51" v:groupContext="shape" transform="translate(-304.512,-185.244) rotate(-53.1301)">
			<title>Sheet.51</title>
			<path d="M1.71 841.89 L2.07 841.89 L42.93 841.89" class="st1"/>
		</g>
		<g id="shape52-31" v:mID="52" v:groupContext="shape" transform="translate(-402.009,-20.6148) rotate(-63.4349)">
			<title>Sheet.52</title>
			<path d="M1.71 841.89 L2.07 841.89 L38.18 841.89" class="st1"/>
		</g>
		<g id="shape53-38" v:mID="53" v:groupContext="shape" transform="translate(-366.009,732.394) rotate(-116.565)">
			<title>Sheet.53</title>
			<path d="M1.71 841.89 L2.07 841.89 L38.18 841.89" class="st1"/>
		</g>
		<g id="shape54-45" v:mID="54" v:groupContext="shape" transform="translate(-418.89,355.89) rotate(-90)">
			<title>Sheet.54</title>
			<path d="M1.71 841.89 L2.07 841.89 L33.93 841.89" class="st1"/>
		</g>
		<g id="shape48-52" v:mID="48" v:groupContext="shape" transform="translate(-196.512,-185.244) rotate(-53.1301)">
			<title>Sheet.48</title>
			<path d="M1.71 841.89 L2.07 841.89 L42.93 841.89" class="st1"/>
		</g>
		<g id="shape58-59" v:mID="58" v:groupContext="shape" transform="translate(-258.009,732.394) rotate(-116.565)">
			<title>Sheet.58</title>
			<path d="M1.71 841.89 L2.07 841.89 L38.18 841.89" class="st1"/>
		</g>
		<g id="shape59-66" v:mID="59" v:groupContext="shape" transform="translate(-294.009,-20.6148) rotate(-63.4349)">
			<title>Sheet.59</title>
			<path d="M1.71 841.89 L2.07 841.89 L38.18 841.89" class="st1"/>
		</g>
		<g id="shape49-73" v:mID="49" v:groupContext="shape" transform="translate(-142.512,825.024) rotate(-126.87)">
			<title>Sheet.49</title>
			<path d="M1.71 841.89 L2.07 841.89 L42.93 841.89" class="st1"/>
		</g>
		<g id="shape56-80" v:mID="56" v:groupContext="shape" transform="translate(-310.89,355.89) rotate(-90)">
			<title>Sheet.56</title>
			<path d="M1.71 841.89 L2.07 841.89 L33.93 841.89" class="st1"/>
		</g>
		<g id="shape55-87" v:mID="55" v:groupContext="shape" transform="translate(450,1089.78) rotate(180)">
			<title>Sheet.55</title>
			<path d="M0 841.89 L117 841.89" class="st3"/>
		</g>
		<g id="shape57-90" v:mID="57" v:groupContext="shape" transform="translate(504,1125.78) rotate(180)">
			<title>Sheet.57</title>
			<path d="M0 841.89 L171 841.89" class="st3"/>
		</g>
		<g id="shape60-93" v:mID="60" v:groupContext="shape" transform="translate(531,1161.78) rotate(180)">
			<title>Sheet.60</title>
			<path d="M0 841.89 L198 841.89" class="st3"/>
		</g>
		<g id="shape61-96" v:mID="61" v:groupContext="shape" transform="translate(1165.89,282.765) rotate(90) scale(-1,1)">
			<title>Side brace</title>
			<desc>a</desc>
			<v:userDefs>
				<v:ud v:nameU="TxtW" v:val="VT0(0.625):29"/>
				<v:ud v:nameU="TxtA" v:val="VT0(-1.5707963267949):32"/>
				<v:ud v:nameU="TxtAState" v:val="VT0(0):26"/>
				<v:ud v:nameU="TxtWState" v:val="VT0(0):26"/>
				<v:ud v:nameU="MaxRadius" v:val="VT0(0.0625):1"/>
				<v:ud v:nameU="PosCH1" v:prompt="Constrains X position of Control Handle #1" v:val="VT0(0):26"/>
				<v:ud v:nameU="PosCH2" v:prompt="Constrains Y position of Control Handle #2" v:val="VT0(0):26"/>
			</v:userDefs>
			<v:textBlock v:margins="rect(4,4,4,4)" v:tabSpace="42.5197"/>
			<v:textRect cx="16.875" cy="849.765" width="10.55" height="18.8036" transform="rotate(-90)"/>
			<path d="M0 837.39 L0 839.64 A2.24996 2.24996 -180 0 0 2.25 841.89 L14.63 841.89 A2.24996 2.24996 0 0 1 16.88 844.14
						 A2.24996 2.24996 0 0 1 19.13 841.89 L31.5 841.89 A2.24996 2.24996 -180 0 0 33.75 839.64 L33.75 837.39"
					class="st4"/>
			<text x="-851.04" y="-14.17" transform="rotate(90) scale(-1,1)" class="st5" v:langID="1051"><v:paragraph
						v:horizAlign="1"/><v:tabList/>a</text>		</g>
		<g id="shape62-100" v:mID="62" v:groupContext="shape" transform="translate(1165.89,354.765) rotate(90) scale(-1,1)">
			<title>Side brace.62</title>
			<desc>a</desc>
			<v:userDefs>
				<v:ud v:nameU="TxtW" v:val="VT0(0.625):29"/>
				<v:ud v:nameU="TxtA" v:val="VT0(-1.5707963267949):32"/>
				<v:ud v:nameU="TxtAState" v:val="VT0(0):26"/>
				<v:ud v:nameU="TxtWState" v:val="VT0(0):26"/>
				<v:ud v:nameU="MaxRadius" v:val="VT0(0.0625):1"/>
				<v:ud v:nameU="PosCH1" v:prompt="Constrains X position of Control Handle #1" v:val="VT0(0):26"/>
				<v:ud v:nameU="PosCH2" v:prompt="Constrains Y position of Control Handle #2" v:val="VT0(0):26"/>
			</v:userDefs>
			<v:textBlock v:margins="rect(4,4,4,4)" v:tabSpace="42.5197"/>
			<v:textRect cx="16.875" cy="849.765" width="10.55" height="18.8036" transform="rotate(-90)"/>
			<path d="M0 837.39 L0 839.64 A2.24996 2.24996 -180 0 0 2.25 841.89 L14.63 841.89 A2.24996 2.24996 0 0 1 16.88 844.14
						 A2.24996 2.24996 0 0 1 19.13 841.89 L31.5 841.89 A2.24996 2.24996 -180 0 0 33.75 839.64 L33.75 837.39"
					class="st4"/>
			<text x="-851.04" y="-14.17" transform="rotate(90) scale(-1,1)" class="st5" v:langID="1051"><v:paragraph
						v:horizAlign="1"/><v:tabList/>a</text>		</g>
		<g id="shape63-104" v:mID="63" v:groupContext="shape" transform="translate(1165.89,318.765) rotate(90) scale(-1,1)">
			<title>Side brace.63</title>
			<desc>b</desc>
			<v:userDefs>
				<v:ud v:nameU="TxtW" v:val="VT0(0.625):29"/>
				<v:ud v:nameU="TxtA" v:val="VT0(-1.5707963267949):32"/>
				<v:ud v:nameU="TxtAState" v:val="VT0(0):26"/>
				<v:ud v:nameU="TxtWState" v:val="VT0(0):26"/>
				<v:ud v:nameU="MaxRadius" v:val="VT0(0.0625):1"/>
				<v:ud v:nameU="PosCH1" v:prompt="Constrains X position of Control Handle #1" v:val="VT0(0):26"/>
				<v:ud v:nameU="PosCH2" v:prompt="Constrains Y position of Control Handle #2" v:val="VT0(0):26"/>
			</v:userDefs>
			<v:textBlock v:margins="rect(4,4,4,4)" v:tabSpace="42.5197"/>
			<v:textRect cx="16.875" cy="849.765" width="10.55" height="18.8036" transform="rotate(-90)"/>
			<path d="M0 837.39 L0 839.64 A2.24996 2.24996 -180 0 0 2.25 841.89 L14.63 841.89 A2.24996 2.24996 0 0 1 16.88 844.14
						 A2.24996 2.24996 0 0 1 19.13 841.89 L31.5 841.89 A2.24996 2.24996 -180 0 0 33.75 839.64 L33.75 837.39"
					class="st4"/>
			<text x="-851.04" y="-14.17" transform="rotate(90) scale(-1,1)" class="st5" v:langID="1051"><v:paragraph
						v:horizAlign="1"/><v:tabList/>b</text>		</g>
		<g id="shape64-108" v:mID="64" v:groupContext="shape" transform="translate(441,-571.5)">
			<title>Sheet.64</title>
			<desc></desc>
			<v:textBlock v:margins="rect(4,4,4,4)" v:tabSpace="42.5197"/>
			<v:textRect cx="9" cy="830.64" width="18" height="22.5"/>
			<rect x="0" y="819.39" width="18" height="22.5" class="st6"/>
			<text x="1em" y="833.34" class="st5" v:langID="1051"><v:paragraph v:horizAlign="1"/><v:tabList/></text>		</g>
		<g id="shape65-111" v:mID="65" v:groupContext="shape" transform="translate(468,-497.25)">
			<title>Sheet.65</title>
			<desc></desc>
			<v:textBlock v:margins="rect(4,4,4,4)" v:tabSpace="42.5197"/>
			<v:textRect cx="9" cy="830.64" width="18" height="22.5"/>
			<rect x="0" y="819.39" width="18" height="22.5" class="st6"/>
			<text x="1em" y="833.34" class="st5" v:langID="1051"><v:paragraph v:horizAlign="1"/><v:tabList/></text>		</g>
		<g id="shape66-114" v:mID="66" v:groupContext="shape" transform="translate(495,-535.5)">
			<title>Sheet.66</title>
			<desc></desc>
			<v:textBlock v:margins="rect(4,4,4,4)" v:tabSpace="42.5197"/>
			<v:textRect cx="9" cy="830.64" width="18" height="22.5"/>
			<rect x="0" y="819.39" width="18" height="22.5" class="st6"/>
			<text x="1em" y="833.34" class="st5" v:langID="1051"><v:paragraph v:horizAlign="1"/><v:tabList/></text>		</g>
		<g id="shape67-117" v:mID="67" v:groupContext="shape" transform="translate(387,-535.5)">
			<title>Sheet.67</title>
			<desc></desc>
			<v:textBlock v:margins="rect(4,4,4,4)" v:tabSpace="42.5197"/>
			<v:textRect cx="9" cy="830.64" width="18" height="22.5"/>
			<rect x="0" y="819.39" width="18" height="22.5" class="st6"/>
			<text x="1em" y="833.34" class="st5" v:langID="1051"><v:paragraph v:horizAlign="1"/><v:tabList/></text>		</g>
		<g id="shape68-120" v:mID="68" v:groupContext="shape" transform="translate(360,-497.25)">
			<title>Sheet.68</title>
			<desc></desc>
			<v:textBlock v:margins="rect(4,4,4,4)" v:tabSpace="42.5197"/>
			<v:textRect cx="9" cy="830.64" width="18" height="22.5"/>
			<rect x="0" y="819.39" width="18" height="22.5" class="st6"/>
			<text x="1em" y="833.34" class="st5" v:langID="1051"><v:paragraph v:horizAlign="1"/><v:tabList/></text>		</g>
		<g id="shape69-123" v:mID="69" v:groupContext="shape" transform="translate(436.5,-589.5)">
			<title>Sheet.69</title>
			<desc>q0</desc>
			<v:textBlock v:margins="rect(4,4,4,4)" v:tabSpace="42.5197"/>
			<v:textRect cx="13.5" cy="828.39" width="27" height="27"/>
			<rect x="0" y="814.89" width="27" height="27" class="st7"/>
			<text x="9.37" y="831.09" class="st5" v:langID="1051"><v:paragraph v:horizAlign="1"/><v:tabList/>q<tspan dy="-0.287em"
						class="st8" v:baseFontSize="9">0</tspan></text>		</g>
		<g id="shape70-127" v:mID="70" v:groupContext="shape" transform="translate(382.5,-553.5)">
			<title>Sheet.70</title>
			<desc>p1</desc>
			<v:textBlock v:margins="rect(4,4,4,4)" v:tabSpace="42.5197"/>
			<v:textRect cx="13.5" cy="828.39" width="27" height="27"/>
			<rect x="0" y="814.89" width="27" height="27" class="st6"/>
			<text x="9.37" y="831.09" class="st5" v:langID="1051"><v:paragraph v:horizAlign="1"/><v:tabList/>p<tspan dy="-0.287em"
						class="st8" v:baseFontSize="9">1</tspan></text>		</g>
		<g id="shape71-131" v:mID="71" v:groupContext="shape" transform="translate(490.5,-553.5)">
			<title>Sheet.71</title>
			<desc>p2</desc>
			<v:textBlock v:margins="rect(4,4,4,4)" v:tabSpace="42.5197"/>
			<v:textRect cx="13.5" cy="828.39" width="27" height="27"/>
			<rect x="0" y="814.89" width="27" height="27" class="st6"/>
			<text x="9.37" y="831.09" class="st5" v:langID="1051"><v:paragraph v:horizAlign="1"/><v:tabList/>p<tspan dy="-0.287em"
						class="st8" v:baseFontSize="9">2</tspan></text>		</g>
		<g id="shape72-135" v:mID="72" v:groupContext="shape" transform="translate(517.5,-519.75)">
			<title>Sheet.72</title>
			<desc>q4</desc>
			<v:textBlock v:margins="rect(4,4,4,4)" v:tabSpace="42.5197"/>
			<v:textRect cx="13.5" cy="828.39" width="27" height="27"/>
			<rect x="0" y="814.89" width="27" height="27" class="st6"/>
			<text x="9.37" y="831.09" class="st5" v:langID="1051"><v:paragraph v:horizAlign="1"/><v:tabList/>q<tspan dy="-0.287em"
						class="st8" v:baseFontSize="9">4</tspan></text>		</g>
		<g id="shape73-139" v:mID="73" v:groupContext="shape" transform="translate(463.5,-519.75)">
			<title>Sheet.73</title>
			<desc>q3</desc>
			<v:textBlock v:margins="rect(4,4,4,4)" v:tabSpace="42.5197"/>
			<v:textRect cx="13.5" cy="828.39" width="27" height="27"/>
			<rect x="0" y="814.89" width="27" height="27" class="st6"/>
			<text x="9.37" y="831.09" class="st5" v:langID="1051"><v:paragraph v:horizAlign="1"/><v:tabList/>q<tspan dy="-0.287em"
						class="st8" v:baseFontSize="9">3</tspan></text>		</g>
		<g id="shape74-143" v:mID="74" v:groupContext="shape" transform="translate(355.5,-519.75)">
			<title>Sheet.74</title>
			<desc>q1</desc>
			<v:textBlock v:margins="rect(4,4,4,4)" v:tabSpace="42.5197"/>
			<v:textRect cx="13.5" cy="828.39" width="27" height="27"/>
			<rect x="0" y="814.89" width="27" height="27" class="st6"/>
			<text x="9.37" y="831.09" class="st5" v:langID="1051"><v:paragraph v:horizAlign="1"/><v:tabList/>q<tspan dy="-0.287em"
						class="st8" v:baseFontSize="9">1</tspan></text>		</g>
		<g id="shape75-147" v:mID="75" v:groupContext="shape" transform="translate(409.5,-519.75)">
			<title>Sheet.75</title>
			<desc>q2</desc>
			<v:textBlock v:margins="rect(4,4,4,4)" v:tabSpace="42.5197"/>
			<v:textRect cx="13.5" cy="828.39" width="27" height="27"/>
			<rect x="0" y="814.89" width="27" height="27" class="st6"/>
			<text x="9.37" y="831.09" class="st5" v:langID="1051"><v:paragraph v:horizAlign="1"/><v:tabList/>q<tspan dy="-0.287em"
						class="st8" v:baseFontSize="9">2</tspan></text>		</g>
		<g id="shape76-151" v:mID="76" v:groupContext="shape" transform="translate(337.5,-465.75)">
			<title>Sheet.76</title>
			<desc>r1</desc>
			<v:textBlock v:margins="rect(4,4,4,4)" v:tabSpace="42.5197"/>
			<v:textRect cx="13.5" cy="828.39" width="27" height="27"/>
			<rect x="0" y="814.89" width="27" height="27" class="st6"/>
			<text x="10.37" y="831.09" class="st5" v:langID="1051"><v:paragraph v:horizAlign="1"/><v:tabList/>r<tspan dy="-0.287em"
						class="st8" v:baseFontSize="9">1</tspan></text>		</g>
		<g id="shape77-155" v:mID="77" v:groupContext="shape" transform="translate(373.5,-465.75)">
			<title>Sheet.77</title>
			<desc>r4</desc>
			<v:textBlock v:margins="rect(4,4,4,4)" v:tabSpace="42.5197"/>
			<v:textRect cx="13.5" cy="828.39" width="27" height="27"/>
			<rect x="0" y="814.89" width="27" height="27" class="st6"/>
			<text x="10.37" y="831.09" class="st5" v:langID="1051"><v:paragraph v:horizAlign="1"/><v:tabList/>r<tspan dy="-0.287em"
						class="st8" v:baseFontSize="9">4</tspan></text>		</g>
		<g id="shape78-159" v:mID="78" v:groupContext="shape" transform="translate(481.5,-465.75)">
			<title>Sheet.78</title>
			<desc>r3</desc>
			<v:textBlock v:margins="rect(4,4,4,4)" v:tabSpace="42.5197"/>
			<v:textRect cx="13.5" cy="828.39" width="27" height="27"/>
			<rect x="0" y="814.89" width="27" height="27" class="st6"/>
			<text x="10.37" y="831.09" class="st5" v:langID="1051"><v:paragraph v:horizAlign="1"/><v:tabList/>r<tspan dy="-0.287em"
						class="st8" v:baseFontSize="9">3</tspan></text>		</g>
		<g id="shape79-163" v:mID="79" v:groupContext="shape" transform="translate(409.5,-465.75)">
			<title>Sheet.79</title>
			<desc>q2</desc>
			<v:textBlock v:margins="rect(4,4,4,4)" v:tabSpace="42.5197"/>
			<v:textRect cx="13.5" cy="828.39" width="27" height="27"/>
			<rect x="0" y="814.89" width="27" height="27" class="st6"/>
			<text x="9.37" y="831.09" class="st5" v:langID="1051"><v:paragraph v:horizAlign="1"/><v:tabList/>q<tspan dy="-0.287em"
						class="st8" v:baseFontSize="9">2</tspan></text>		</g>
		<g id="shape80-167" v:mID="80" v:groupContext="shape" transform="translate(517.5,-465.75)">
			<title>Sheet.80</title>
			<desc>q4</desc>
			<v:textBlock v:margins="rect(4,4,4,4)" v:tabSpace="42.5197"/>
			<v:textRect cx="13.5" cy="828.39" width="27" height="27"/>
			<rect x="0" y="814.89" width="27" height="27" class="st6"/>
			<text x="9.37" y="831.09" class="st5" v:langID="1051"><v:paragraph v:horizAlign="1"/><v:tabList/>q<tspan dy="-0.287em"
						class="st8" v:baseFontSize="9">4</tspan></text>		</g>
		<g id="shape81-171" v:mID="81" v:groupContext="shape" transform="translate(445.5,-465.75)">
			<title>Sheet.81</title>
			<desc>r2</desc>
			<v:textBlock v:margins="rect(4,4,4,4)" v:tabSpace="42.5197"/>
			<v:textRect cx="13.5" cy="828.39" width="27" height="27"/>
			<rect x="0" y="814.89" width="27" height="27" class="st6"/>
			<text x="10.37" y="831.09" class="st5" v:langID="1051"><v:paragraph v:horizAlign="1"/><v:tabList/>r<tspan dy="-0.287em"
						class="st8" v:baseFontSize="9">2</tspan></text>		</g>
		<g id="shape1-175" v:mID="1" v:groupContext="shape" transform="translate(531,1197.78) rotate(180)">
			<title>Sheet.1</title>
			<path d="M0 841.89 L198 841.89" class="st3"/>
		</g>
	</g>
</svg>
