<?xml version="1.0" encoding="UTF-8" standalone="no"?>
<!DOCTYPE svg PUBLIC "-//W3C//DTD SVG 1.0//EN" "http://www.w3.org/TR/2001/REC-SVG-20010904/DTD/svg10.dtd">
<!-- Generated by Microsoft Visio 11.0, SVG Export, v1.0 aspace1.svg Page-1 -->
<svg xmlns="http://www.w3.org/2000/svg" xmlns:v="http://schemas.microsoft.com/visio/2003/SVGExtensions/" width="8.26772in"
		height="11.6929in" viewBox="0 0 595.276 841.89" xml:space="preserve" color-interpolation-filters="sRGB" class="st11">
	<title>aspace1</title>
	<v:documentProperties v:langID="1051" v:metric="true" v:viewMarkup="false"/>

	<style type="text/css">
	<![CDATA[
		.st1 {fill:none;stroke:none;stroke-linecap:round;stroke-linejoin:round;stroke-width:0.24}
		.st2 {fill:#000000;font-family:Arial;font-size:0.75em}
		.st3 {baseline-shift:-32.4951%;font-size:0.649902em}
		.st4 {marker-end:url(#mrkr10-13);marker-start:url(#mrkr10-11);stroke:#000000;stroke-linecap:round;stroke-linejoin:round;stroke-width:0.24}
		.st5 {fill:#000000;fill-opacity:1;stroke:#000000;stroke-opacity:1;stroke-width:0.08695652173913}
		.st6 {stroke:#000000;stroke-dasharray:0,1.2;stroke-linecap:round;stroke-linejoin:round;stroke-width:0.24}
		.st7 {stroke:#000000;stroke-linecap:round;stroke-linejoin:round;stroke-width:0.24}
		.st8 {fill:#000000;font-family:Arial;font-size:0.666664em;font-style:italic}
		.st9 {fill:none;stroke:none;stroke-linecap:round;stroke-linejoin:round;stroke-width:0.72}
		.st10 {fill:#000000;font-family:Arial;font-size:0.499992em}
		.st11 {fill:none;fill-rule:evenodd;font-size:12;overflow:visible;stroke-linecap:square;stroke-miterlimit:3}
	]]>
	</style>

	<defs id="Markers">
		<g id="lend10">
			<path
					d="M 0 0.75 C -0.414214 0.75 -0.75 0.414214 -0.75 0 -0.75 -0.414214 -0.414214 -0.75 0 -0.75 0.414214 -0.75 0.75 -0.414214 0.75 0 0.75 0.414214 0.414214 0.75 0 0.75 Z "
					style="stroke:none"/>
		</g>
		<marker id="mrkr10-11" class="st5" v:arrowType="10" v:arrowSize="2" v:setback="7.125" refX="7.125" orient="auto"
				markerUnits="strokeWidth">
			<use xlink:href="#lend10" transform="scale(11.5) "/>
		</marker>
		<marker id="mrkr10-13" class="st5" v:arrowType="10" v:arrowSize="2" v:setback="8.625" refX="-8.625" orient="auto"
				markerUnits="strokeWidth">
			<use xlink:href="#lend10" transform="scale(-11.5,-11.5) "/>
		</marker>
	</defs>
	<g v:mID="0" v:index="1" v:groupContext="foregroundPage">
		<title>Page-1</title>
		<v:pageProperties v:drawingScale="1" v:pageScale="1" v:drawingUnits="19" v:shadowOffsetX="9" v:shadowOffsetY="-9"/>
		<g id="shape36-1" v:mID="36" v:groupContext="shape" transform="translate(194.25,-564.75)">
			<title>Sheet.36</title>
			<desc>k9</desc>
			<v:textBlock v:margins="rect(4,4,4,4)" v:tabSpace="42.5197"/>
			<v:textRect cx="8.25" cy="829.515" width="16.5" height="24.75"/>
			<rect x="0" y="817.14" width="16.5" height="24.75" class="st1"/>
			<text x="4.37" y="832.21" class="st2" v:langID="1051"><v:paragraph v:horizAlign="1"/><v:tabList/>k<tspan dy="-0.287em"
						class="st3" v:baseFontSize="9">9</tspan></text>		</g>
		<g id="shape1-5" v:mID="1" v:groupContext="shape" transform="translate(70.5,-721.5)">
			<title>Sheet.1</title>
			<path d="M1.71 841.89 L2.07 841.89 L261.93 841.89" class="st4"/>
		</g>
		<g id="shape2-14" v:mID="2" v:groupContext="shape" transform="translate(54,-696.75)">
			<title>Sheet.2</title>
			<desc>k1</desc>
			<v:textBlock v:margins="rect(4,4,4,4)" v:tabSpace="42.5197"/>
			<v:textRect cx="16.5" cy="829.515" width="33" height="24.75"/>
			<rect x="0" y="817.14" width="33" height="24.75" class="st1"/>
			<text x="12.62" y="832.21" class="st2" v:langID="1051"><v:paragraph v:horizAlign="1"/><v:tabList/>k<tspan dy="-0.287em"
						class="st3" v:baseFontSize="9">1</tspan></text>		</g>
		<g id="shape3-18" v:mID="3" v:groupContext="shape" transform="translate(318,-696.75)">
			<title>Sheet.3</title>
			<desc>km</desc>
			<v:textBlock v:margins="rect(4,4,4,4)" v:tabSpace="42.5197"/>
			<v:textRect cx="16.5" cy="829.515" width="33" height="24.75"/>
			<rect x="0" y="817.14" width="33" height="24.75" class="st1"/>
			<text x="11.81" y="832.21" class="st2" v:langID="1051"><v:paragraph v:horizAlign="1"/><v:tabList/>k<tspan dy="-0.287em"
						class="st3" v:baseFontSize="9">m</tspan></text>		</g>
		<g id="shape4-22" v:mID="4" v:groupContext="shape" transform="translate(70.5,-688.5)">
			<title>Sheet.4</title>
			<path d="M1.71 841.89 L2.07 841.89 L129.93 841.89" class="st4"/>
		</g>
		<g id="shape5-29" v:mID="5" v:groupContext="shape" transform="translate(334.5,995.28) rotate(180)">
			<title>Sheet.5</title>
			<path d="M1.71 841.89 L2.07 841.89 L129.93 841.89" class="st4"/>
		</g>
		<g id="shape6-36" v:mID="6" v:groupContext="shape" transform="translate(268.5,-655.5)">
			<title>Sheet.6</title>
			<path d="M1.71 841.89 L2.07 841.89 L63.93 841.89" class="st4"/>
		</g>
		<g id="shape7-43" v:mID="7" v:groupContext="shape" transform="translate(202.5,-655.5)">
			<title>Sheet.7</title>
			<path d="M1.71 841.89 L2.07 841.89 L63.93 841.89" class="st4"/>
		</g>
		<g id="shape8-50" v:mID="8" v:groupContext="shape" transform="translate(136.5,-655.5)">
			<title>Sheet.8</title>
			<path d="M1.71 841.89 L2.07 841.89 L63.93 841.89" class="st4"/>
		</g>
		<g id="shape9-57" v:mID="9" v:groupContext="shape" transform="translate(70.5,-655.5)">
			<title>Sheet.9</title>
			<path d="M1.71 841.89 L2.07 841.89 L63.93 841.89" class="st4"/>
		</g>
		<g id="shape10-64" v:mID="10" v:groupContext="shape" transform="translate(54,-630.75)">
			<title>Sheet.10</title>
			<desc>k1</desc>
			<v:textBlock v:margins="rect(4,4,4,4)" v:tabSpace="42.5197"/>
			<v:textRect cx="16.5" cy="829.515" width="33" height="24.75"/>
			<rect x="0" y="817.14" width="33" height="24.75" class="st1"/>
			<text x="12.62" y="832.21" class="st2" v:langID="1051"><v:paragraph v:horizAlign="1"/><v:tabList/>k<tspan dy="-0.287em"
						class="st3" v:baseFontSize="9">1</tspan></text>		</g>
		<g id="shape11-68" v:mID="11" v:groupContext="shape" transform="translate(54,-663.75)">
			<title>Sheet.11</title>
			<desc>k1</desc>
			<v:textBlock v:margins="rect(4,4,4,4)" v:tabSpace="42.5197"/>
			<v:textRect cx="16.5" cy="829.515" width="33" height="24.75"/>
			<rect x="0" y="817.14" width="33" height="24.75" class="st1"/>
			<text x="12.62" y="832.21" class="st2" v:langID="1051"><v:paragraph v:horizAlign="1"/><v:tabList/>k<tspan dy="-0.287em"
						class="st3" v:baseFontSize="9">1</tspan></text>		</g>
		<g id="shape12-72" v:mID="12" v:groupContext="shape" transform="translate(318,-630.75)">
			<title>Sheet.12</title>
			<desc>km</desc>
			<v:textBlock v:margins="rect(4,4,4,4)" v:tabSpace="42.5197"/>
			<v:textRect cx="16.5" cy="829.515" width="33" height="24.75"/>
			<rect x="0" y="817.14" width="33" height="24.75" class="st1"/>
			<text x="11.81" y="832.21" class="st2" v:langID="1051"><v:paragraph v:horizAlign="1"/><v:tabList/>k<tspan dy="-0.287em"
						class="st3" v:baseFontSize="9">m</tspan></text>		</g>
		<g id="shape13-76" v:mID="13" v:groupContext="shape" transform="translate(318,-663.75)">
			<title>Sheet.13</title>
			<desc>km</desc>
			<v:textBlock v:margins="rect(4,4,4,4)" v:tabSpace="42.5197"/>
			<v:textRect cx="16.5" cy="829.515" width="33" height="24.75"/>
			<rect x="0" y="817.14" width="33" height="24.75" class="st1"/>
			<text x="11.81" y="832.21" class="st2" v:langID="1051"><v:paragraph v:horizAlign="1"/><v:tabList/>k<tspan dy="-0.287em"
						class="st3" v:baseFontSize="9">m</tspan></text>		</g>
		<g id="shape14-80" v:mID="14" v:groupContext="shape" transform="translate(186,-663.75)">
			<title>Sheet.14</title>
			<desc>km/2</desc>
			<v:textBlock v:margins="rect(4,4,4,4)" v:tabSpace="42.5197"/>
			<v:textRect cx="16.5" cy="829.515" width="33" height="24.75"/>
			<rect x="0" y="817.14" width="33" height="24.75" class="st1"/>
			<text x="9.37" y="832.21" class="st2" v:langID="1051"><v:paragraph v:horizAlign="1"/><v:tabList/>k<tspan dy="-0.287em"
						class="st3" v:baseFontSize="9">m</tspan><tspan class="st3" v:baseFontSize="9">/</tspan><tspan class="st3"
						v:baseFontSize="9">2</tspan></text>		</g>
		<g id="shape15-86" v:mID="15" v:groupContext="shape" transform="translate(186,-630.75)">
			<title>Sheet.15</title>
			<desc>km/2</desc>
			<v:textBlock v:margins="rect(4,4,4,4)" v:tabSpace="42.5197"/>
			<v:textRect cx="16.5" cy="829.515" width="33" height="24.75"/>
			<rect x="0" y="817.14" width="33" height="24.75" class="st1"/>
			<text x="9.37" y="832.21" class="st2" v:langID="1051"><v:paragraph v:horizAlign="1"/><v:tabList/>k<tspan dy="-0.287em"
						class="st3" v:baseFontSize="9">m</tspan><tspan class="st3" v:baseFontSize="9">/</tspan><tspan class="st3"
						v:baseFontSize="9">2</tspan></text>		</g>
		<g id="shape16-92" v:mID="16" v:groupContext="shape" transform="translate(120,-630.75)">
			<title>Sheet.16</title>
			<desc>km/4</desc>
			<v:textBlock v:margins="rect(4,4,4,4)" v:tabSpace="42.5197"/>
			<v:textRect cx="16.5" cy="829.515" width="33" height="24.75"/>
			<rect x="0" y="817.14" width="33" height="24.75" class="st1"/>
			<text x="9.37" y="832.21" class="st2" v:langID="1051"><v:paragraph v:horizAlign="1"/><v:tabList/>k<tspan dy="-0.287em"
						class="st3" v:baseFontSize="9">m</tspan><tspan class="st3" v:baseFontSize="9">/</tspan><tspan class="st3"
						v:baseFontSize="9">4</tspan></text>		</g>
		<g id="shape17-98" v:mID="17" v:groupContext="shape" transform="translate(252,-630.75)">
			<title>Sheet.17</title>
			<desc>k3m/4</desc>
			<v:textBlock v:margins="rect(4,4,4,4)" v:tabSpace="42.5197"/>
			<v:textRect cx="16.5" cy="829.515" width="33" height="24.75"/>
			<rect x="0" y="817.14" width="33" height="24.75" class="st1"/>
			<text x="7.75" y="832.21" class="st2" v:langID="1051"><v:paragraph v:horizAlign="1"/><v:tabList/>k<tspan dy="-0.287em"
						class="st3" v:baseFontSize="9">3</tspan><tspan class="st3" v:baseFontSize="9">m</tspan><tspan class="st3"
						v:baseFontSize="9">/</tspan><tspan class="st3" v:baseFontSize="9">4</tspan></text>		</g>
		<g id="shape18-105" v:mID="18" v:groupContext="shape" transform="translate(153,-589.5)">
			<title>Sheet.18</title>
			<path d="M1.71 841.89 L2.07 841.89 L14.43 841.89" class="st4"/>
		</g>
		<g id="shape19-112" v:mID="19" v:groupContext="shape" transform="translate(136.5,-589.5)">
			<title>Sheet.19</title>
			<path d="M1.71 841.89 L2.07 841.89 L14.43 841.89" class="st4"/>
		</g>
		<g id="shape20-119" v:mID="20" v:groupContext="shape" transform="translate(120,-589.5)">
			<title>Sheet.20</title>
			<path d="M1.71 841.89 L2.07 841.89 L14.43 841.89" class="st4"/>
		</g>
		<g id="shape21-126" v:mID="21" v:groupContext="shape" transform="translate(103.5,-589.5)">
			<title>Sheet.21</title>
			<path d="M1.71 841.89 L2.07 841.89 L14.43 841.89" class="st4"/>
		</g>
		<g id="shape22-133" v:mID="22" v:groupContext="shape" transform="translate(87,-589.5)">
			<title>Sheet.22</title>
			<path d="M1.71 841.89 L2.07 841.89 L14.43 841.89" class="st4"/>
		</g>
		<g id="shape23-140" v:mID="23" v:groupContext="shape" transform="translate(70.5,-589.5)">
			<title>Sheet.23</title>
			<path d="M1.71 841.89 L2.07 841.89 L14.43 841.89" class="st4"/>
		</g>
		<g id="shape24-147" v:mID="24" v:groupContext="shape" transform="translate(186,-589.5)">
			<title>Sheet.24</title>
			<path d="M1.71 841.89 L2.07 841.89 L14.43 841.89" class="st4"/>
		</g>
		<g id="shape25-154" v:mID="25" v:groupContext="shape" transform="translate(318,-589.5)">
			<title>Sheet.25</title>
			<path d="M1.71 841.89 L2.07 841.89 L14.43 841.89" class="st4"/>
		</g>
		<g id="shape26-161" v:mID="26" v:groupContext="shape" transform="translate(169.5,-589.5)">
			<title>Sheet.26</title>
			<path d="M1.71 841.89 L2.07 841.89 L14.43 841.89" class="st4"/>
		</g>
		<g id="shape27-168" v:mID="27" v:groupContext="shape" transform="translate(202.5,-589.5)">
			<title>Sheet.27</title>
			<path d="M0 841.89 L115.5 841.89" class="st6"/>
		</g>
		<g id="shape28-171" v:mID="28" v:groupContext="shape" transform="translate(62.25,-564.75)">
			<title>Sheet.28</title>
			<desc>k1</desc>
			<v:textBlock v:margins="rect(4,4,4,4)" v:tabSpace="42.5197"/>
			<v:textRect cx="8.25" cy="829.515" width="16.5" height="24.75"/>
			<rect x="0" y="817.14" width="16.5" height="24.75" class="st1"/>
			<text x="4.37" y="832.21" class="st2" v:langID="1051"><v:paragraph v:horizAlign="1"/><v:tabList/>k<tspan dy="-0.287em"
						class="st3" v:baseFontSize="9">1</tspan></text>		</g>
		<g id="shape29-175" v:mID="29" v:groupContext="shape" transform="translate(78.75,-564.75)">
			<title>Sheet.29</title>
			<desc>k2</desc>
			<v:textBlock v:margins="rect(4,4,4,4)" v:tabSpace="42.5197"/>
			<v:textRect cx="8.25" cy="829.515" width="16.5" height="24.75"/>
			<rect x="0" y="817.14" width="16.5" height="24.75" class="st1"/>
			<text x="4.37" y="832.21" class="st2" v:langID="1051"><v:paragraph v:horizAlign="1"/><v:tabList/>k<tspan dy="-0.287em"
						class="st3" v:baseFontSize="9">2</tspan></text>		</g>
		<g id="shape30-179" v:mID="30" v:groupContext="shape" transform="translate(177.75,-564.75)">
			<title>Sheet.30</title>
			<desc>k8</desc>
			<v:textBlock v:margins="rect(4,4,4,4)" v:tabSpace="42.5197"/>
			<v:textRect cx="8.25" cy="829.515" width="16.5" height="24.75"/>
			<rect x="0" y="817.14" width="16.5" height="24.75" class="st1"/>
			<text x="4.37" y="832.21" class="st2" v:langID="1051"><v:paragraph v:horizAlign="1"/><v:tabList/>k<tspan dy="-0.287em"
						class="st3" v:baseFontSize="9">8</tspan></text>		</g>
		<g id="shape31-183" v:mID="31" v:groupContext="shape" transform="translate(161.25,-564.75)">
			<title>Sheet.31</title>
			<desc>k7</desc>
			<v:textBlock v:margins="rect(4,4,4,4)" v:tabSpace="42.5197"/>
			<v:textRect cx="8.25" cy="829.515" width="16.5" height="24.75"/>
			<rect x="0" y="817.14" width="16.5" height="24.75" class="st1"/>
			<text x="4.37" y="832.21" class="st2" v:langID="1051"><v:paragraph v:horizAlign="1"/><v:tabList/>k<tspan dy="-0.287em"
						class="st3" v:baseFontSize="9">7</tspan></text>		</g>
		<g id="shape32-187" v:mID="32" v:groupContext="shape" transform="translate(144.75,-564.75)">
			<title>Sheet.32</title>
			<desc>k6</desc>
			<v:textBlock v:margins="rect(4,4,4,4)" v:tabSpace="42.5197"/>
			<v:textRect cx="8.25" cy="829.515" width="16.5" height="24.75"/>
			<rect x="0" y="817.14" width="16.5" height="24.75" class="st1"/>
			<text x="4.37" y="832.21" class="st2" v:langID="1051"><v:paragraph v:horizAlign="1"/><v:tabList/>k<tspan dy="-0.287em"
						class="st3" v:baseFontSize="9">6</tspan></text>		</g>
		<g id="shape33-191" v:mID="33" v:groupContext="shape" transform="translate(128.25,-564.75)">
			<title>Sheet.33</title>
			<desc>k5</desc>
			<v:textBlock v:margins="rect(4,4,4,4)" v:tabSpace="42.5197"/>
			<v:textRect cx="8.25" cy="829.515" width="16.5" height="24.75"/>
			<rect x="0" y="817.14" width="16.5" height="24.75" class="st1"/>
			<text x="4.37" y="832.21" class="st2" v:langID="1051"><v:paragraph v:horizAlign="1"/><v:tabList/>k<tspan dy="-0.287em"
						class="st3" v:baseFontSize="9">5</tspan></text>		</g>
		<g id="shape34-195" v:mID="34" v:groupContext="shape" transform="translate(111.75,-564.75)">
			<title>Sheet.34</title>
			<desc>k4</desc>
			<v:textBlock v:margins="rect(4,4,4,4)" v:tabSpace="42.5197"/>
			<v:textRect cx="8.25" cy="829.515" width="16.5" height="24.75"/>
			<rect x="0" y="817.14" width="16.5" height="24.75" class="st1"/>
			<text x="4.37" y="832.21" class="st2" v:langID="1051"><v:paragraph v:horizAlign="1"/><v:tabList/>k<tspan dy="-0.287em"
						class="st3" v:baseFontSize="9">4</tspan></text>		</g>
		<g id="shape35-199" v:mID="35" v:groupContext="shape" transform="translate(95.25,-564.75)">
			<title>Sheet.35</title>
			<desc>k3</desc>
			<v:textBlock v:margins="rect(4,4,4,4)" v:tabSpace="42.5197"/>
			<v:textRect cx="8.25" cy="829.515" width="16.5" height="24.75"/>
			<rect x="0" y="817.14" width="16.5" height="24.75" class="st1"/>
			<text x="4.37" y="832.21" class="st2" v:langID="1051"><v:paragraph v:horizAlign="1"/><v:tabList/>k<tspan dy="-0.287em"
						class="st3" v:baseFontSize="9">3</tspan></text>		</g>
		<g id="shape37-203" v:mID="37" v:groupContext="shape" transform="translate(301.5,-564.75)">
			<title>Sheet.37</title>
			<desc>km-1</desc>
			<v:textBlock v:margins="rect(4,4,4,4)" v:tabSpace="42.5197"/>
			<v:textRect cx="16.5" cy="829.515" width="33" height="24.75"/>
			<rect x="0" y="817.14" width="33" height="24.75" class="st1"/>
			<text x="9.21" y="832.21" class="st2" v:langID="1051"><v:paragraph v:horizAlign="1"/><v:tabList/>k<tspan dy="-0.287em"
						class="st3" v:baseFontSize="9">m</tspan><tspan class="st3" v:baseFontSize="9">-</tspan><tspan class="st3"
						v:baseFontSize="9">1</tspan></text>		</g>
		<g id="shape38-209" v:mID="38" v:groupContext="shape" transform="translate(326.25,-564.75)">
			<title>Sheet.38</title>
			<desc>km</desc>
			<v:textBlock v:margins="rect(4,4,4,4)" v:tabSpace="42.5197"/>
			<v:textRect cx="10.125" cy="829.515" width="20.26" height="24.75"/>
			<rect x="0" y="817.14" width="20.25" height="24.75" class="st1"/>
			<text x="5.44" y="832.21" class="st2" v:langID="1051"><v:paragraph v:horizAlign="1"/><v:tabList/>k<tspan dy="-0.287em"
						class="st3" v:baseFontSize="9">m</tspan></text>		</g>
		<g id="shape39-213" v:mID="39" v:groupContext="shape" transform="translate(70.5,-589.5)">
			<title>Arced arrow</title>
			<v:textBlock v:margins="rect(4,4,4,4)" v:tabSpace="42.5197"/>
			<path d="M0 841.89 A8.41667 8.41667 0 0 1 16.5 841.89" class="st7"/>
		</g>
		<g id="shape40-216" v:mID="40" v:groupContext="shape" transform="translate(87,-589.5)">
			<title>Arced arrow.40</title>
			<v:textBlock v:margins="rect(4,4,4,4)" v:tabSpace="42.5197"/>
			<path d="M0 841.89 A8.41667 8.41667 0 0 1 16.5 841.89" class="st7"/>
		</g>
		<g id="shape41-219" v:mID="41" v:groupContext="shape" transform="translate(103.5,-589.5)">
			<title>Arced arrow.41</title>
			<v:textBlock v:margins="rect(4,4,4,4)" v:tabSpace="42.5197"/>
			<path d="M0 841.89 A8.41667 8.41667 0 0 1 16.5 841.89" class="st7"/>
		</g>
		<g id="shape42-222" v:mID="42" v:groupContext="shape" transform="translate(153,-589.5)">
			<title>Arced arrow.42</title>
			<v:textBlock v:margins="rect(4,4,4,4)" v:tabSpace="42.5197"/>
			<path d="M0 841.89 A8.41667 8.41667 0 0 1 16.5 841.89" class="st7"/>
		</g>
		<g id="shape43-225" v:mID="43" v:groupContext="shape" transform="translate(136.5,-589.5)">
			<title>Arced arrow.43</title>
			<v:textBlock v:margins="rect(4,4,4,4)" v:tabSpace="42.5197"/>
			<path d="M0 841.89 A8.41667 8.41667 0 0 1 16.5 841.89" class="st7"/>
		</g>
		<g id="shape44-228" v:mID="44" v:groupContext="shape" transform="translate(169.5,-589.5)">
			<title>Arced arrow.44</title>
			<v:textBlock v:margins="rect(4,4,4,4)" v:tabSpace="42.5197"/>
			<path d="M0 841.89 A8.41667 8.41667 0 0 1 16.5 841.89" class="st7"/>
		</g>
		<g id="shape45-231" v:mID="45" v:groupContext="shape" transform="translate(120,-589.5)">
			<title>Arced arrow.45</title>
			<v:textBlock v:margins="rect(4,4,4,4)" v:tabSpace="42.5197"/>
			<path d="M0 841.89 A8.41667 8.41667 0 0 1 16.5 841.89" class="st7"/>
		</g>
		<g id="shape46-234" v:mID="46" v:groupContext="shape" transform="translate(186,-589.5)">
			<title>Arced arrow.46</title>
			<v:textBlock v:margins="rect(4,4,4,4)" v:tabSpace="42.5197"/>
			<path d="M0 841.89 A8.41667 8.41667 0 0 1 16.5 841.89" class="st7"/>
		</g>
		<g id="shape47-237" v:mID="47" v:groupContext="shape" transform="translate(318,-589.5)">
			<title>Arced arrow.47</title>
			<v:textBlock v:margins="rect(4,4,4,4)" v:tabSpace="42.5197"/>
			<path d="M0 841.89 A8.41667 8.41667 0 0 1 16.5 841.89" class="st7"/>
		</g>
		<g id="shape48-240" v:mID="48" v:groupContext="shape" transform="translate(268.5,-655.5)">
			<title>Arced arrow.48</title>
			<v:textBlock v:margins="rect(4,4,4,4)" v:tabSpace="42.5197"/>
			<path d="M0 841.89 A65 65 0 0 1 66 841.89" class="st7"/>
		</g>
		<g id="shape49-243" v:mID="49" v:groupContext="shape" transform="translate(202.5,-655.5)">
			<title>Arced arrow.49</title>
			<v:textBlock v:margins="rect(4,4,4,4)" v:tabSpace="42.5197"/>
			<path d="M0 841.89 A65 65 0 0 1 66 841.89" class="st7"/>
		</g>
		<g id="shape50-246" v:mID="50" v:groupContext="shape" transform="translate(136.5,-655.5)">
			<title>Arced arrow.50</title>
			<v:textBlock v:margins="rect(4,4,4,4)" v:tabSpace="42.5197"/>
			<path d="M-0 841.89 A65 65 0 0 1 66 841.89" class="st7"/>
		</g>
		<g id="shape51-249" v:mID="51" v:groupContext="shape" transform="translate(70.5,-655.5)">
			<title>Arced arrow.51</title>
			<v:textBlock v:margins="rect(4,4,4,4)" v:tabSpace="42.5197"/>
			<path d="M-0 841.89 A65 65 0 0 1 66 841.89" class="st7"/>
		</g>
		<g id="shape52-252" v:mID="52" v:groupContext="shape" transform="translate(202.5,-688.5)">
			<title>Arced arrow.52</title>
			<v:textBlock v:margins="rect(4,4,4,4)" v:tabSpace="42.5197"/>
			<path d="M-0 841.89 A130 130 0 0 1 132 841.89" class="st7"/>
		</g>
		<g id="shape53-255" v:mID="53" v:groupContext="shape" transform="translate(70.5,-688.5)">
			<title>Arced arrow.53</title>
			<v:textBlock v:margins="rect(4,4,4,4)" v:tabSpace="42.5197"/>
			<path d="M0 841.89 A130 130 0 0 1 132 841.89" class="st7"/>
		</g>
		<g id="shape54-258" v:mID="54" v:groupContext="shape" transform="translate(70.5,-721.5)">
			<title>Arced arrow.54</title>
			<v:textBlock v:margins="rect(4,4,4,4)" v:tabSpace="42.5197"/>
			<path d="M-0 841.89 A493 493 0 0 1 264 841.89" class="st7"/>
		</g>
		<g id="shape55-261" v:mID="55" v:groupContext="shape" transform="translate(945.39,194.64) rotate(90)">
			<title>Sheet.55</title>
			<path d="M0 841.89 L45.37 841.89" class="st6"/>
		</g>
		<g id="shape56-264" v:mID="56" v:groupContext="shape" transform="translate(1011.39,194.64) rotate(90)">
			<title>Sheet.56</title>
			<path d="M0 841.89 L45.37 841.89" class="st6"/>
		</g>
		<g id="shape57-267" v:mID="57" v:groupContext="shape" transform="translate(1143.39,194.64) rotate(90)">
			<title>Sheet.57</title>
			<path d="M0 841.89 L45.37 841.89" class="st6"/>
		</g>
		<g id="shape58-270" v:mID="58" v:groupContext="shape" transform="translate(-490.89,120.39) rotate(-90) scale(-1,1)">
			<title>Side brace</title>
			<desc>O(S(n))</desc>
			<v:userDefs>
				<v:ud v:nameU="TxtW" v:val="VT0(0.55555555555556):29"/>
				<v:ud v:nameU="TxtA" v:val="VT0(1.5707963267949):32"/>
				<v:ud v:nameU="TxtAState" v:val="VT0(0):26"/>
				<v:ud v:nameU="TxtWState" v:val="VT0(0):26"/>
				<v:ud v:nameU="MaxRadius" v:val="VT0(0.11458333333333):1"/>
				<v:ud v:nameU="PosCH1" v:prompt="Constrains X position of Control Handle #1" v:val="VT0(0):26"/>
				<v:ud v:nameU="PosCH2" v:prompt="Constrains Y position of Control Handle #2" v:val="VT0(0):26"/>
			</v:userDefs>
			<v:textBlock v:margins="rect(4,4,4,4)" v:tabSpace="42.5197"/>
			<v:textRect cx="66" cy="864.202" width="36.38" height="16.5" transform="rotate(90)"/>
			<path d="M0 833.64 L0 837.39 A4.49993 4.49993 -180 0 0 4.5 841.89 L61.5 841.89 A4.49993 4.49993 0 0 1 66 846.39 A4.49993
						 4.49993 0 0 1 70.5 841.89 L127.5 841.89 A4.49993 4.49993 -180 0 0 132 837.39 L132 833.64" class="st7"/>
			<text x="850.88" y="68.4" transform="rotate(-90) scale(-1,1)" class="st8" v:langID="1051"><v:paragraph v:horizAlign="1"/><v:tabList/>O(S(n))</text>		</g>
		<g id="shape59-274" v:mID="59" v:groupContext="shape" transform="translate(67.5,-596.25)">
			<title>Sheet.59</title>
			<desc></desc>
			<v:textBlock v:margins="rect(4,4,4,4)" v:tabSpace="42.5197"/>
			<v:textRect cx="11.25" cy="837.39" width="22.5" height="9"/>
			<rect x="0" y="832.89" width="22.5" height="9" class="st9"/>
			<text x="1.125em 1.875em 1.875em 2.625em" y="839.19" class="st10" v:langID="1051"><v:paragraph v:horizAlign="1"/><v:tabList/></text>		</g>
		<g id="shape60-277" v:mID="60" v:groupContext="shape" transform="translate(83.25,-596.25)">
			<title>Sheet.60</title>
			<desc></desc>
			<v:textBlock v:margins="rect(4,4,4,4)" v:tabSpace="42.5197"/>
			<v:textRect cx="11.25" cy="837.39" width="22.5" height="9"/>
			<rect x="0" y="832.89" width="22.5" height="9" class="st9"/>
			<text x="1.125em 1.875em 1.875em 2.625em" y="839.19" class="st10" v:langID="1051"><v:paragraph v:horizAlign="1"/><v:tabList/></text>		</g>
		<g id="shape61-280" v:mID="61" v:groupContext="shape" transform="translate(101.25,-596.25)">
			<title>Sheet.61</title>
			<desc></desc>
			<v:textBlock v:margins="rect(4,4,4,4)" v:tabSpace="42.5197"/>
			<v:textRect cx="11.25" cy="837.39" width="22.5" height="9"/>
			<rect x="0" y="832.89" width="22.5" height="9" class="st9"/>
			<text x="1.125em 1.875em 1.875em 2.625em" y="839.19" class="st10" v:langID="1051"><v:paragraph v:horizAlign="1"/><v:tabList/></text>		</g>
		<g id="shape62-283" v:mID="62" v:groupContext="shape" transform="translate(117,-596.25)">
			<title>Sheet.62</title>
			<desc></desc>
			<v:textBlock v:margins="rect(4,4,4,4)" v:tabSpace="42.5197"/>
			<v:textRect cx="11.25" cy="837.39" width="22.5" height="9"/>
			<rect x="0" y="832.89" width="22.5" height="9" class="st9"/>
			<text x="1.125em 1.875em 1.875em 2.625em" y="839.19" class="st10" v:langID="1051"><v:paragraph v:horizAlign="1"/><v:tabList/></text>		</g>
		<g id="shape63-286" v:mID="63" v:groupContext="shape" transform="translate(132.75,-596.25)">
			<title>Sheet.63</title>
			<desc></desc>
			<v:textBlock v:margins="rect(4,4,4,4)" v:tabSpace="42.5197"/>
			<v:textRect cx="11.25" cy="837.39" width="22.5" height="9"/>
			<rect x="0" y="832.89" width="22.5" height="9" class="st9"/>
			<text x="1.125em 1.875em 1.875em 2.625em" y="839.19" class="st10" v:langID="1051"><v:paragraph v:horizAlign="1"/><v:tabList/></text>		</g>
		<g id="shape64-289" v:mID="64" v:groupContext="shape" transform="translate(150.75,-596.25)">
			<title>Sheet.64</title>
			<desc></desc>
			<v:textBlock v:margins="rect(4,4,4,4)" v:tabSpace="42.5197"/>
			<v:textRect cx="11.25" cy="837.39" width="22.5" height="9"/>
			<rect x="0" y="832.89" width="22.5" height="9" class="st9"/>
			<text x="1.125em 1.875em 1.875em 2.625em" y="839.19" class="st10" v:langID="1051"><v:paragraph v:horizAlign="1"/><v:tabList/></text>		</g>
		<g id="shape65-292" v:mID="65" v:groupContext="shape" transform="translate(166.5,-596.25)">
			<title>Sheet.65</title>
			<desc></desc>
			<v:textBlock v:margins="rect(4,4,4,4)" v:tabSpace="42.5197"/>
			<v:textRect cx="11.25" cy="837.39" width="22.5" height="9"/>
			<rect x="0" y="832.89" width="22.5" height="9" class="st9"/>
			<text x="1.125em 1.875em 1.875em 2.625em" y="839.19" class="st10" v:langID="1051"><v:paragraph v:horizAlign="1"/><v:tabList/></text>		</g>
		<g id="shape66-295" v:mID="66" v:groupContext="shape" transform="translate(182.25,-596.25)">
			<title>Sheet.66</title>
			<desc></desc>
			<v:textBlock v:margins="rect(4,4,4,4)" v:tabSpace="42.5197"/>
			<v:textRect cx="11.25" cy="837.39" width="22.5" height="9"/>
			<rect x="0" y="832.89" width="22.5" height="9" class="st9"/>
			<text x="1.125em 1.875em 1.875em 2.625em" y="839.19" class="st10" v:langID="1051"><v:paragraph v:horizAlign="1"/><v:tabList/></text>		</g>
		<g id="shape67-298" v:mID="67" v:groupContext="shape" transform="translate(315,-596.25)">
			<title>Sheet.67</title>
			<desc></desc>
			<v:textBlock v:margins="rect(4,4,4,4)" v:tabSpace="42.5197"/>
			<v:textRect cx="11.25" cy="837.39" width="22.5" height="9"/>
			<rect x="0" y="832.89" width="22.5" height="9" class="st9"/>
			<text x="1.125em 1.875em 1.875em 2.625em" y="839.19" class="st10" v:langID="1051"><v:paragraph v:horizAlign="1"/><v:tabList/></text>		</g>
	</g>
</svg>
