<?xml version="1.0" encoding="UTF-8" standalone="no"?>
<!DOCTYPE svg PUBLIC "-//W3C//DTD SVG 1.0//EN" "http://www.w3.org/TR/2001/REC-SVG-20010904/DTD/svg10.dtd">
<!-- Generated by Microsoft Visio 11.0, SVG Export, v1.0 exponent.svg Page-1 -->
<svg xmlns="http://www.w3.org/2000/svg" xmlns:v="http://schemas.microsoft.com/visio/2003/SVGExtensions/" width="8.26772in"
		height="11.6929in" viewBox="0 0 595.276 841.89" xml:space="preserve" color-interpolation-filters="sRGB" class="st6">
	<title>exponent</title>
	<v:documentProperties v:langID="1051" v:metric="true" v:viewMarkup="false"/>

	<style type="text/css">
	<![CDATA[
		.st1 {fill:#ffffff;stroke:#000000;stroke-linecap:round;stroke-linejoin:round;stroke-width:0.24}
		.st2 {fill:#000000;font-family:Arial;font-size:0.499992em}
		.st3 {marker-end:url(#mrkr4-17);stroke:#000000;stroke-linecap:round;stroke-linejoin:round;stroke-width:0.24}
		.st4 {fill:#000000;fill-opacity:1;stroke:#000000;stroke-opacity:1;stroke-width:0.08695652173913}
		.st5 {fill:none;stroke:none;stroke-linecap:round;stroke-linejoin:round;stroke-width:0.72}
		.st6 {fill:none;fill-rule:evenodd;font-size:12;overflow:visible;stroke-linecap:square;stroke-miterlimit:3}
	]]>
	</style>

	<defs id="Markers">
		<g id="lend4">
			<path d="M 2 1 L 0 0 L 2 -1 L 2 1 " style="stroke:none"/>
		</g>
		<marker id="mrkr4-17" class="st4" v:arrowType="4" v:arrowSize="2" v:setback="23" refX="-23" orient="auto"
				markerUnits="strokeWidth">
			<use xlink:href="#lend4" transform="scale(-11.5,-11.5) "/>
		</marker>
	</defs>
	<g v:mID="0" v:index="1" v:groupContext="foregroundPage">
		<title>Page-1</title>
		<v:pageProperties v:drawingScale="1" v:pageScale="1" v:drawingUnits="19" v:shadowOffsetX="9" v:shadowOffsetY="-9"/>
		<g id="group57-1" transform="translate(57,-432)" v:mID="57" v:groupContext="group">
			<title>Sheet.57</title>
			<g id="group7-2" transform="translate(0,-85.3333)" v:mID="7" v:groupContext="group">
				<title>Sheet.7</title>
				<g id="shape1-3" v:mID="1" v:groupContext="shape" transform="translate(93.3333,-42.6667)">
					<title>Circle</title>
					<desc>0</desc>
					<v:textBlock v:margins="rect(4,4,4,4)" v:tabSpace="42.5197"/>
					<v:textRect cx="8" cy="833.89" width="16" height="16"/>
					<path d="M0 833.89 A8 8 0 0 1 16 833.89 A8 8 0 1 1 0 833.89 Z" class="st1"/>
					<text x="6.33" y="835.69" class="st2" v:langID="1051"><v:paragraph v:horizAlign="1"/><v:tabList/>0</text>				</g>
				<g id="shape2-6" v:mID="2" v:groupContext="shape" transform="translate(69.3333,0)">
					<title>Circle.2</title>
					<desc>1</desc>
					<v:textBlock v:margins="rect(4,4,4,4)" v:tabSpace="42.5197"/>
					<v:textRect cx="8" cy="833.89" width="16" height="16"/>
					<path d="M0 833.89 A8 8 0 0 1 16 833.89 A8 8 0 1 1 0 833.89 Z" class="st1"/>
					<text x="6.33" y="835.69" class="st2" v:langID="1051"><v:paragraph v:horizAlign="1"/><v:tabList/>1</text>				</g>
				<g id="shape3-9" v:mID="3" v:groupContext="shape" transform="translate(117.333,0)">
					<title>Circle.3</title>
					<desc>0</desc>
					<v:textBlock v:margins="rect(4,4,4,4)" v:tabSpace="42.5197"/>
					<v:textRect cx="8" cy="833.89" width="16" height="16"/>
					<path d="M0 833.89 A8 8 0 0 1 16 833.89 A8 8 0 1 1 0 833.89 Z" class="st1"/>
					<text x="6.33" y="835.69" class="st2" v:langID="1051"><v:paragraph v:horizAlign="1"/><v:tabList/>0</text>				</g>
				<g id="shape4-12" v:mID="4" v:groupContext="shape" transform="translate(-632.937,373.9) rotate(-57.5288)">
					<title>Sheet.4</title>
					<path d="M0 841.89 L29.25 841.89" class="st3"/>
				</g>
				<g id="shape5-18" v:mID="5" v:groupContext="shape" transform="translate(-584.937,1277.88) rotate(-122.471)">
					<title>Sheet.5</title>
					<path d="M0 841.89 L29.25 841.89" class="st3"/>
				</g>
				<g id="shape6-23" v:mID="6" v:groupContext="shape" transform="translate(96,-32)">
					<title>Sheet.6</title>
					<desc></desc>
					<v:textBlock v:margins="rect(4,4,4,4)" v:tabSpace="42.5197"/>
					<v:textRect cx="5.33333" cy="836.556" width="10.67" height="10.6667"/>
					<rect x="0" y="831.223" width="10.6667" height="10.6667" class="st5"/>
					<text x="0.888em" y="838.36" class="st2" v:langID="1051"><v:paragraph v:horizAlign="1"/><v:tabList/></text>				</g>
				<g id="group8-26" transform="translate(208,0)" v:mID="8" v:groupContext="group">
					<title>Sheet.8</title>
					<g id="shape9-27" v:mID="9" v:groupContext="shape" transform="translate(24,-42.6667)">
						<title>Circle</title>
						<desc>0</desc>
						<v:textBlock v:margins="rect(4,4,4,4)" v:tabSpace="42.5197"/>
						<v:textRect cx="8" cy="833.89" width="16" height="16"/>
						<path d="M0 833.89 A8 8 0 0 1 16 833.89 A8 8 0 1 1 0 833.89 Z" class="st1"/>
						<text x="6.33" y="835.69" class="st2" v:langID="1051"><v:paragraph v:horizAlign="1"/><v:tabList/>0</text>					</g>
					<g id="shape10-30" v:mID="10" v:groupContext="shape">
						<title>Circle.2</title>
						<desc>0</desc>
						<v:textBlock v:margins="rect(4,4,4,4)" v:tabSpace="42.5197"/>
						<v:textRect cx="8" cy="833.89" width="16" height="16"/>
						<path d="M0 833.89 A8 8 0 0 1 16 833.89 A8 8 0 1 1 0 833.89 Z" class="st1"/>
						<text x="6.33" y="835.69" class="st2" v:langID="1051"><v:paragraph v:horizAlign="1"/><v:tabList/>0</text>					</g>
					<g id="shape11-33" v:mID="11" v:groupContext="shape" transform="translate(48,0)">
						<title>Circle.3</title>
						<desc>?</desc>
						<v:textBlock v:margins="rect(4,4,4,4)" v:tabSpace="42.5197"/>
						<v:textRect cx="8" cy="833.89" width="16" height="16"/>
						<path d="M0 833.89 A8 8 0 0 1 16 833.89 A8 8 0 1 1 0 833.89 Z" class="st1"/>
						<text x="6.33" y="835.69" class="st2" v:langID="1051"><v:paragraph v:horizAlign="1"/><v:tabList/>?</text>					</g>
					<g id="shape12-36" v:mID="12" v:groupContext="shape" transform="translate(-702.27,373.9) rotate(-57.5288)">
						<title>Sheet.12</title>
						<path d="M0 841.89 L29.25 841.89" class="st3"/>
					</g>
					<g id="shape13-41" v:mID="13" v:groupContext="shape" transform="translate(-654.27,1277.88) rotate(-122.471)">
						<title>Sheet.13</title>
						<path d="M0 841.89 L29.25 841.89" class="st3"/>
					</g>
					<g id="shape14-46" v:mID="14" v:groupContext="shape" transform="translate(26.6667,-32)">
						<title>Sheet.14</title>
						<desc></desc>
						<v:textBlock v:margins="rect(4,4,4,4)" v:tabSpace="42.5197"/>
						<v:textRect cx="5.33333" cy="836.556" width="10.67" height="10.6667"/>
						<rect x="0" y="831.223" width="10.6667" height="10.6667" class="st5"/>
						<text x="0.888em" y="838.36" class="st2" v:langID="1051"><v:paragraph v:horizAlign="1"/><v:tabList/></text>					</g>
				</g>
				<g id="group15-49" transform="translate(138.667,0)" v:mID="15" v:groupContext="group">
					<title>Sheet.15</title>
					<g id="shape16-50" v:mID="16" v:groupContext="shape" transform="translate(24,-42.6667)">
						<title>Circle</title>
						<desc>?</desc>
						<v:textBlock v:margins="rect(4,4,4,4)" v:tabSpace="42.5197"/>
						<v:textRect cx="8" cy="833.89" width="16" height="16"/>
						<path d="M0 833.89 A8 8 0 0 1 16 833.89 A8 8 0 1 1 0 833.89 Z" class="st1"/>
						<text x="6.33" y="835.69" class="st2" v:langID="1051"><v:paragraph v:horizAlign="1"/><v:tabList/>?</text>					</g>
					<g id="shape17-53" v:mID="17" v:groupContext="shape">
						<title>Circle.2</title>
						<desc>1</desc>
						<v:textBlock v:margins="rect(4,4,4,4)" v:tabSpace="42.5197"/>
						<v:textRect cx="8" cy="833.89" width="16" height="16"/>
						<path d="M0 833.89 A8 8 0 0 1 16 833.89 A8 8 0 1 1 0 833.89 Z" class="st1"/>
						<text x="6.33" y="835.69" class="st2" v:langID="1051"><v:paragraph v:horizAlign="1"/><v:tabList/>1</text>					</g>
					<g id="shape18-56" v:mID="18" v:groupContext="shape" transform="translate(48,0)">
						<title>Circle.3</title>
						<desc>?</desc>
						<v:textBlock v:margins="rect(4,4,4,4)" v:tabSpace="42.5197"/>
						<v:textRect cx="8" cy="833.89" width="16" height="16"/>
						<path d="M0 833.89 A8 8 0 0 1 16 833.89 A8 8 0 1 1 0 833.89 Z" class="st1"/>
						<text x="6.33" y="835.69" class="st2" v:langID="1051"><v:paragraph v:horizAlign="1"/><v:tabList/>?</text>					</g>
					<g id="shape19-59" v:mID="19" v:groupContext="shape" transform="translate(-702.27,373.9) rotate(-57.5288)">
						<title>Sheet.19</title>
						<path d="M0 841.89 L29.25 841.89" class="st3"/>
					</g>
					<g id="shape20-64" v:mID="20" v:groupContext="shape" transform="translate(-654.27,1277.88) rotate(-122.471)">
						<title>Sheet.20</title>
						<path d="M0 841.89 L29.25 841.89" class="st3"/>
					</g>
					<g id="shape21-69" v:mID="21" v:groupContext="shape" transform="translate(26.6667,-32)">
						<title>Sheet.21</title>
						<desc></desc>
						<v:textBlock v:margins="rect(4,4,4,4)" v:tabSpace="42.5197"/>
						<v:textRect cx="5.33333" cy="836.556" width="10.67" height="10.6667"/>
						<rect x="0" y="831.223" width="10.6667" height="10.6667" class="st5"/>
						<text x="0.888em" y="838.36" class="st2" v:langID="1051"><v:paragraph v:horizAlign="1"/><v:tabList/></text>					</g>
				</g>
				<g id="group22-72" v:mID="22" v:groupContext="group">
					<title>Sheet.22</title>
					<g id="shape23-73" v:mID="23" v:groupContext="shape" transform="translate(24,-42.6667)">
						<title>Circle</title>
						<desc>1</desc>
						<v:textBlock v:margins="rect(4,4,4,4)" v:tabSpace="42.5197"/>
						<v:textRect cx="8" cy="833.89" width="16" height="16"/>
						<path d="M0 833.89 A8 8 0 0 1 16 833.89 A8 8 0 1 1 0 833.89 Z" class="st1"/>
						<text x="6.33" y="835.69" class="st2" v:langID="1051"><v:paragraph v:horizAlign="1"/><v:tabList/>1</text>					</g>
					<g id="shape24-76" v:mID="24" v:groupContext="shape">
						<title>Circle.2</title>
						<desc>1</desc>
						<v:textBlock v:margins="rect(4,4,4,4)" v:tabSpace="42.5197"/>
						<v:textRect cx="8" cy="833.89" width="16" height="16"/>
						<path d="M0 833.89 A8 8 0 0 1 16 833.89 A8 8 0 1 1 0 833.89 Z" class="st1"/>
						<text x="6.33" y="835.69" class="st2" v:langID="1051"><v:paragraph v:horizAlign="1"/><v:tabList/>1</text>					</g>
					<g id="shape25-79" v:mID="25" v:groupContext="shape" transform="translate(48,0)">
						<title>Circle.3</title>
						<desc>1</desc>
						<v:textBlock v:margins="rect(4,4,4,4)" v:tabSpace="42.5197"/>
						<v:textRect cx="8" cy="833.89" width="16" height="16"/>
						<path d="M0 833.89 A8 8 0 0 1 16 833.89 A8 8 0 1 1 0 833.89 Z" class="st1"/>
						<text x="6.33" y="835.69" class="st2" v:langID="1051"><v:paragraph v:horizAlign="1"/><v:tabList/>1</text>					</g>
					<g id="shape26-82" v:mID="26" v:groupContext="shape" transform="translate(-702.27,373.9) rotate(-57.5288)">
						<title>Sheet.26</title>
						<path d="M0 841.89 L29.25 841.89" class="st3"/>
					</g>
					<g id="shape27-87" v:mID="27" v:groupContext="shape" transform="translate(-654.27,1277.88) rotate(-122.471)">
						<title>Sheet.27</title>
						<path d="M0 841.89 L29.25 841.89" class="st3"/>
					</g>
					<g id="shape28-92" v:mID="28" v:groupContext="shape" transform="translate(26.6667,-32)">
						<title>Sheet.28</title>
						<desc></desc>
						<v:textBlock v:margins="rect(4,4,4,4)" v:tabSpace="42.5197"/>
						<v:textRect cx="5.33333" cy="836.556" width="10.67" height="10.6667"/>
						<rect x="0" y="831.223" width="10.6667" height="10.6667" class="st5"/>
						<text x="0.888em" y="838.36" class="st2" v:langID="1051"><v:paragraph v:horizAlign="1"/><v:tabList/></text>					</g>
				</g>
			</g>
			<g id="group29-95" v:mID="29" v:groupContext="group">
				<title>Sheet.29</title>
				<g id="shape30-96" v:mID="30" v:groupContext="shape" transform="translate(93.3333,-42.6667)">
					<title>Circle</title>
					<desc>1</desc>
					<v:textBlock v:margins="rect(4,4,4,4)" v:tabSpace="42.5197"/>
					<v:textRect cx="8" cy="833.89" width="16" height="16"/>
					<path d="M0 833.89 A8 8 0 0 1 16 833.89 A8 8 0 1 1 0 833.89 Z" class="st1"/>
					<text x="6.33" y="835.69" class="st2" v:langID="1051"><v:paragraph v:horizAlign="1"/><v:tabList/>1</text>				</g>
				<g id="shape31-99" v:mID="31" v:groupContext="shape" transform="translate(69.3333,0)">
					<title>Circle.2</title>
					<desc>1</desc>
					<v:textBlock v:margins="rect(4,4,4,4)" v:tabSpace="42.5197"/>
					<v:textRect cx="8" cy="833.89" width="16" height="16"/>
					<path d="M0 833.89 A8 8 0 0 1 16 833.89 A8 8 0 1 1 0 833.89 Z" class="st1"/>
					<text x="6.33" y="835.69" class="st2" v:langID="1051"><v:paragraph v:horizAlign="1"/><v:tabList/>1</text>				</g>
				<g id="shape32-102" v:mID="32" v:groupContext="shape" transform="translate(117.333,0)">
					<title>Circle.3</title>
					<desc>0</desc>
					<v:textBlock v:margins="rect(4,4,4,4)" v:tabSpace="42.5197"/>
					<v:textRect cx="8" cy="833.89" width="16" height="16"/>
					<path d="M0 833.89 A8 8 0 0 1 16 833.89 A8 8 0 1 1 0 833.89 Z" class="st1"/>
					<text x="6.33" y="835.69" class="st2" v:langID="1051"><v:paragraph v:horizAlign="1"/><v:tabList/>0</text>				</g>
				<g id="shape33-105" v:mID="33" v:groupContext="shape" transform="translate(-632.937,373.9) rotate(-57.5288)">
					<title>Sheet.33</title>
					<path d="M0 841.89 L29.25 841.89" class="st3"/>
				</g>
				<g id="shape34-110" v:mID="34" v:groupContext="shape" transform="translate(-584.937,1277.88) rotate(-122.471)">
					<title>Sheet.34</title>
					<path d="M0 841.89 L29.25 841.89" class="st3"/>
				</g>
				<g id="shape35-115" v:mID="35" v:groupContext="shape" transform="translate(96,-32)">
					<title>Sheet.35</title>
					<desc></desc>
					<v:textBlock v:margins="rect(4,4,4,4)" v:tabSpace="42.5197"/>
					<v:textRect cx="5.33333" cy="836.556" width="10.67" height="10.6667"/>
					<rect x="0" y="831.223" width="10.6667" height="10.6667" class="st5"/>
					<text x="0.888em" y="838.36" class="st2" v:langID="1051"><v:paragraph v:horizAlign="1"/><v:tabList/></text>				</g>
				<g id="group36-118" transform="translate(208,0)" v:mID="36" v:groupContext="group">
					<title>Sheet.36</title>
					<g id="shape37-119" v:mID="37" v:groupContext="shape" transform="translate(24,-42.6667)">
						<title>Circle</title>
						<desc>?</desc>
						<v:textBlock v:margins="rect(4,4,4,4)" v:tabSpace="42.5197"/>
						<v:textRect cx="8" cy="833.89" width="16" height="16"/>
						<path d="M0 833.89 A8 8 0 0 1 16 833.89 A8 8 0 1 1 0 833.89 Z" class="st1"/>
						<text x="6.33" y="835.69" class="st2" v:langID="1051"><v:paragraph v:horizAlign="1"/><v:tabList/>?</text>					</g>
					<g id="shape38-122" v:mID="38" v:groupContext="shape">
						<title>Circle.2</title>
						<desc>0</desc>
						<v:textBlock v:margins="rect(4,4,4,4)" v:tabSpace="42.5197"/>
						<v:textRect cx="8" cy="833.89" width="16" height="16"/>
						<path d="M0 833.89 A8 8 0 0 1 16 833.89 A8 8 0 1 1 0 833.89 Z" class="st1"/>
						<text x="6.33" y="835.69" class="st2" v:langID="1051"><v:paragraph v:horizAlign="1"/><v:tabList/>0</text>					</g>
					<g id="shape39-125" v:mID="39" v:groupContext="shape" transform="translate(48,0)">
						<title>Circle.3</title>
						<desc>?</desc>
						<v:textBlock v:margins="rect(4,4,4,4)" v:tabSpace="42.5197"/>
						<v:textRect cx="8" cy="833.89" width="16" height="16"/>
						<path d="M0 833.89 A8 8 0 0 1 16 833.89 A8 8 0 1 1 0 833.89 Z" class="st1"/>
						<text x="6.33" y="835.69" class="st2" v:langID="1051"><v:paragraph v:horizAlign="1"/><v:tabList/>?</text>					</g>
					<g id="shape40-128" v:mID="40" v:groupContext="shape" transform="translate(-702.27,373.9) rotate(-57.5288)">
						<title>Sheet.40</title>
						<path d="M0 841.89 L29.25 841.89" class="st3"/>
					</g>
					<g id="shape41-133" v:mID="41" v:groupContext="shape" transform="translate(-654.27,1277.88) rotate(-122.471)">
						<title>Sheet.41</title>
						<path d="M0 841.89 L29.25 841.89" class="st3"/>
					</g>
					<g id="shape42-138" v:mID="42" v:groupContext="shape" transform="translate(26.6667,-32)">
						<title>Sheet.42</title>
						<desc></desc>
						<v:textBlock v:margins="rect(4,4,4,4)" v:tabSpace="42.5197"/>
						<v:textRect cx="5.33333" cy="836.556" width="10.67" height="10.6667"/>
						<rect x="0" y="831.223" width="10.6667" height="10.6667" class="st5"/>
						<text x="0.888em" y="838.36" class="st2" v:langID="1051"><v:paragraph v:horizAlign="1"/><v:tabList/></text>					</g>
				</g>
				<g id="group43-141" transform="translate(138.667,0)" v:mID="43" v:groupContext="group">
					<title>Sheet.43</title>
					<g id="shape44-142" v:mID="44" v:groupContext="shape" transform="translate(24,-42.6667)">
						<title>Circle</title>
						<desc>1</desc>
						<v:textBlock v:margins="rect(4,4,4,4)" v:tabSpace="42.5197"/>
						<v:textRect cx="8" cy="833.89" width="16" height="16"/>
						<path d="M0 833.89 A8 8 0 0 1 16 833.89 A8 8 0 1 1 0 833.89 Z" class="st1"/>
						<text x="6.33" y="835.69" class="st2" v:langID="1051"><v:paragraph v:horizAlign="1"/><v:tabList/>1</text>					</g>
					<g id="shape45-145" v:mID="45" v:groupContext="shape">
						<title>Circle.2</title>
						<desc>1</desc>
						<v:textBlock v:margins="rect(4,4,4,4)" v:tabSpace="42.5197"/>
						<v:textRect cx="8" cy="833.89" width="16" height="16"/>
						<path d="M0 833.89 A8 8 0 0 1 16 833.89 A8 8 0 1 1 0 833.89 Z" class="st1"/>
						<text x="6.33" y="835.69" class="st2" v:langID="1051"><v:paragraph v:horizAlign="1"/><v:tabList/>1</text>					</g>
					<g id="shape46-148" v:mID="46" v:groupContext="shape" transform="translate(48,0)">
						<title>Circle.3</title>
						<desc>?</desc>
						<v:textBlock v:margins="rect(4,4,4,4)" v:tabSpace="42.5197"/>
						<v:textRect cx="8" cy="833.89" width="16" height="16"/>
						<path d="M0 833.89 A8 8 0 0 1 16 833.89 A8 8 0 1 1 0 833.89 Z" class="st1"/>
						<text x="6.33" y="835.69" class="st2" v:langID="1051"><v:paragraph v:horizAlign="1"/><v:tabList/>?</text>					</g>
					<g id="shape47-151" v:mID="47" v:groupContext="shape" transform="translate(-702.27,373.9) rotate(-57.5288)">
						<title>Sheet.47</title>
						<path d="M0 841.89 L29.25 841.89" class="st3"/>
					</g>
					<g id="shape48-156" v:mID="48" v:groupContext="shape" transform="translate(-654.27,1277.88) rotate(-122.471)">
						<title>Sheet.48</title>
						<path d="M0 841.89 L29.25 841.89" class="st3"/>
					</g>
					<g id="shape49-161" v:mID="49" v:groupContext="shape" transform="translate(26.6667,-32)">
						<title>Sheet.49</title>
						<desc></desc>
						<v:textBlock v:margins="rect(4,4,4,4)" v:tabSpace="42.5197"/>
						<v:textRect cx="5.33333" cy="836.556" width="10.67" height="10.6667"/>
						<rect x="0" y="831.223" width="10.6667" height="10.6667" class="st5"/>
						<text x="0.888em" y="838.36" class="st2" v:langID="1051"><v:paragraph v:horizAlign="1"/><v:tabList/></text>					</g>
				</g>
				<g id="group50-164" v:mID="50" v:groupContext="group">
					<title>Sheet.50</title>
					<g id="shape51-165" v:mID="51" v:groupContext="shape" transform="translate(24,-42.6667)">
						<title>Circle</title>
						<desc>1</desc>
						<v:textBlock v:margins="rect(4,4,4,4)" v:tabSpace="42.5197"/>
						<v:textRect cx="8" cy="833.89" width="16" height="16"/>
						<path d="M0 833.89 A8 8 0 0 1 16 833.89 A8 8 0 1 1 0 833.89 Z" class="st1"/>
						<text x="6.33" y="835.69" class="st2" v:langID="1051"><v:paragraph v:horizAlign="1"/><v:tabList/>1</text>					</g>
					<g id="shape52-168" v:mID="52" v:groupContext="shape">
						<title>Circle.2</title>
						<desc>1</desc>
						<v:textBlock v:margins="rect(4,4,4,4)" v:tabSpace="42.5197"/>
						<v:textRect cx="8" cy="833.89" width="16" height="16"/>
						<path d="M0 833.89 A8 8 0 0 1 16 833.89 A8 8 0 1 1 0 833.89 Z" class="st1"/>
						<text x="6.33" y="835.69" class="st2" v:langID="1051"><v:paragraph v:horizAlign="1"/><v:tabList/>1</text>					</g>
					<g id="shape53-171" v:mID="53" v:groupContext="shape" transform="translate(48,0)">
						<title>Circle.3</title>
						<desc>1</desc>
						<v:textBlock v:margins="rect(4,4,4,4)" v:tabSpace="42.5197"/>
						<v:textRect cx="8" cy="833.89" width="16" height="16"/>
						<path d="M0 833.89 A8 8 0 0 1 16 833.89 A8 8 0 1 1 0 833.89 Z" class="st1"/>
						<text x="6.33" y="835.69" class="st2" v:langID="1051"><v:paragraph v:horizAlign="1"/><v:tabList/>1</text>					</g>
					<g id="shape54-174" v:mID="54" v:groupContext="shape" transform="translate(-702.27,373.9) rotate(-57.5288)">
						<title>Sheet.54</title>
						<path d="M0 841.89 L29.25 841.89" class="st3"/>
					</g>
					<g id="shape55-179" v:mID="55" v:groupContext="shape" transform="translate(-654.27,1277.88) rotate(-122.471)">
						<title>Sheet.55</title>
						<path d="M0 841.89 L29.25 841.89" class="st3"/>
					</g>
					<g id="shape56-184" v:mID="56" v:groupContext="shape" transform="translate(26.6667,-32)">
						<title>Sheet.56</title>
						<desc></desc>
						<v:textBlock v:margins="rect(4,4,4,4)" v:tabSpace="42.5197"/>
						<v:textRect cx="5.33333" cy="836.556" width="10.67" height="10.6667"/>
						<rect x="0" y="831.223" width="10.6667" height="10.6667" class="st5"/>
						<text x="0.888em" y="838.36" class="st2" v:langID="1051"><v:paragraph v:horizAlign="1"/><v:tabList/></text>					</g>
				</g>
			</g>
		</g>
	</g>
</svg>
