<?xml version="1.0" encoding="UTF-8" standalone="no"?>
<!DOCTYPE svg PUBLIC "-//W3C//DTD SVG 1.0//EN" "http://www.w3.org/TR/2001/REC-SVG-20010904/DTD/svg10.dtd">
<!-- Generated by Microsoft Visio 11.0, SVG Export, v1.0 paska.svg Page-1 -->
<svg xmlns="http://www.w3.org/2000/svg" xmlns:v="http://schemas.microsoft.com/visio/2003/SVGExtensions/" width="8.26772in"
		height="11.6929in" viewBox="0 0 595.276 841.89" xml:space="preserve" color-interpolation-filters="sRGB" class="st10">
	<title>paska</title>
	<v:documentProperties v:langID="1051" v:metric="true" v:viewMarkup="false"/>

	<style type="text/css">
	<![CDATA[
		.st1 {fill:#ffffff}
		.st2 {stroke:none;stroke-linecap:round;stroke-linejoin:round;stroke-width:0.24}
		.st3 {stroke:#000000;stroke-linecap:round;stroke-linejoin:round;stroke-width:0.24}
		.st4 {fill:none;stroke:none;stroke-linecap:round;stroke-linejoin:round;stroke-width:0.72}
		.st5 {fill:#000000;font-family:Arial;font-size:0.75em}
		.st6 {stroke:#000000;stroke-dasharray:0,1.2;stroke-linecap:round;stroke-linejoin:round;stroke-width:0.24}
		.st7 {fill:#000000;font-family:Arial;font-size:0.75em;font-style:italic}
		.st8 {fill:#000000;font-family:Arial;font-size:0.666664em}
		.st9 {font-size:1em}
		.st10 {fill:none;fill-rule:evenodd;font-size:12;overflow:visible;stroke-linecap:square;stroke-miterlimit:3}
	]]>
	</style>

	<g v:mID="0" v:index="1" v:groupContext="foregroundPage">
		<title>Page-1</title>
		<v:pageProperties v:drawingScale="1" v:pageScale="1" v:drawingUnits="19" v:shadowOffsetX="9" v:shadowOffsetY="-9"/>
		<g id="group1-1" transform="translate(144,-396)" v:mID="1" v:groupContext="group">
			<v:userDefs>
				<v:ud v:nameU="OpenEnd" v:val="VT0(1):26"/>
			</v:userDefs>
			<title>Open/closed bar</title>
			<g id="shape2-2" v:mID="2" v:groupContext="shape">
				<title>Sheet.2</title>
				<v:textBlock v:margins="rect(4,4,4,4)" v:tabSpace="42.5197"/>
				<path d="M0 841.89 L180 841.89 L180 733.89 L0 733.89 L0 841.89 Z" class="st1"/>
				<path d="M0 841.89 L180 841.89 L180 733.89 L0 733.89" class="st2"/>
			</g>
			<g id="shape3-5" v:mID="3" v:groupContext="shape">
				<title>Sheet.3</title>
				<path d="M0 841.89 L180 841.89 L0 841.89 Z M0 733.89 L180 733.89 L0 733.89 Z" class="st1"/>
				<path d="M0 841.89 L180 841.89" class="st3"/>
				<path d="" class="st3"/>
				<path d="M0 733.89 L180 733.89" class="st3"/>
				<path d="" class="st3"/>
				<path d="M0 841.89 L0 733.89" class="st3"/>
			</g>
		</g>
		<g id="shape4-12" v:mID="4" v:groupContext="shape" transform="translate(144,-486)">
			<title>Sheet.4</title>
			<desc>1</desc>
			<v:textBlock v:margins="rect(4,4,4,4)" v:tabSpace="42.5197"/>
			<v:textRect cx="9" cy="832.89" width="18" height="18"/>
			<rect x="0" y="823.89" width="18" height="18" class="st4"/>
			<text x="6.5" y="835.59" class="st5" v:langID="1051"><v:paragraph v:horizAlign="1"/><v:tabList/>1</text>		</g>
		<g id="shape5-15" v:mID="5" v:groupContext="shape" transform="translate(162,-486)">
			<title>Sheet.5</title>
			<desc>0</desc>
			<v:textBlock v:margins="rect(4,4,4,4)" v:tabSpace="42.5197"/>
			<v:textRect cx="9" cy="832.89" width="18" height="18"/>
			<rect x="0" y="823.89" width="18" height="18" class="st4"/>
			<text x="6.5" y="835.59" class="st5" v:langID="1051"><v:paragraph v:horizAlign="1"/><v:tabList/>0</text>		</g>
		<g id="shape6-18" v:mID="6" v:groupContext="shape" transform="translate(180,-486)">
			<title>Sheet.6</title>
			<desc>0</desc>
			<v:textBlock v:margins="rect(4,4,4,4)" v:tabSpace="42.5197"/>
			<v:textRect cx="9" cy="832.89" width="18" height="18"/>
			<rect x="0" y="823.89" width="18" height="18" class="st4"/>
			<text x="6.5" y="835.59" class="st5" v:langID="1051"><v:paragraph v:horizAlign="1"/><v:tabList/>0</text>		</g>
		<g id="shape7-21" v:mID="7" v:groupContext="shape" transform="translate(198,-486)">
			<title>Sheet.7</title>
			<desc>1</desc>
			<v:textBlock v:margins="rect(4,4,4,4)" v:tabSpace="42.5197"/>
			<v:textRect cx="9" cy="832.89" width="18" height="18"/>
			<rect x="0" y="823.89" width="18" height="18" class="st4"/>
			<text x="6.5" y="835.59" class="st5" v:langID="1051"><v:paragraph v:horizAlign="1"/><v:tabList/>1</text>		</g>
		<g id="shape8-24" v:mID="8" v:groupContext="shape" transform="translate(216,-486)">
			<title>Sheet.8</title>
			<desc>1</desc>
			<v:textBlock v:margins="rect(4,4,4,4)" v:tabSpace="42.5197"/>
			<v:textRect cx="9" cy="832.89" width="18" height="18"/>
			<rect x="0" y="823.89" width="18" height="18" class="st4"/>
			<text x="6.5" y="835.59" class="st5" v:langID="1051"><v:paragraph v:horizAlign="1"/><v:tabList/>1</text>		</g>
		<g id="shape9-27" v:mID="9" v:groupContext="shape" transform="translate(252,-486)">
			<title>Sheet.9</title>
			<desc>1</desc>
			<v:textBlock v:margins="rect(4,4,4,4)" v:tabSpace="42.5197"/>
			<v:textRect cx="9" cy="832.89" width="18" height="18"/>
			<rect x="0" y="823.89" width="18" height="18" class="st4"/>
			<text x="6.5" y="835.59" class="st5" v:langID="1051"><v:paragraph v:horizAlign="1"/><v:tabList/>1</text>		</g>
		<g id="shape10-30" v:mID="10" v:groupContext="shape" transform="translate(234,-486)">
			<title>Sheet.10</title>
			<desc>1</desc>
			<v:textBlock v:margins="rect(4,4,4,4)" v:tabSpace="42.5197"/>
			<v:textRect cx="9" cy="832.89" width="18" height="18"/>
			<rect x="0" y="823.89" width="18" height="18" class="st4"/>
			<text x="6.5" y="835.59" class="st5" v:langID="1051"><v:paragraph v:horizAlign="1"/><v:tabList/>1</text>		</g>
		<g id="shape12-33" v:mID="12" v:groupContext="shape" transform="translate(144,-450)">
			<title>Sheet.12</title>
			<desc>možný nasledovník 1</desc>
			<v:textBlock v:margins="rect(4,4,4,4)" v:tabSpace="42.5197"/>
			<v:textRect cx="63" cy="832.89" width="126" height="18"/>
			<rect x="0" y="823.89" width="126" height="18" class="st4"/>
			<text x="4" y="835.59" class="st5" v:langID="1051"><v:paragraph/><v:tabList/>možný nasledovník 1</text>		</g>
		<g id="shape11-36" v:mID="11" v:groupContext="shape" transform="translate(144,-414)">
			<title>Sheet.11</title>
			<desc>momentálna konfigurácia</desc>
			<v:textBlock v:margins="rect(4,4,4,4)" v:tabSpace="42.5197"/>
			<v:textRect cx="72" cy="832.89" width="144" height="18"/>
			<rect x="0" y="823.89" width="144" height="18" class="st4"/>
			<text x="4" y="835.59" class="st5" v:langID="1051"><v:paragraph/><v:tabList/>momentálna konfigurácia</text>		</g>
		<g id="shape13-39" v:mID="13" v:groupContext="shape" transform="translate(144,-396)">
			<title>Sheet.13</title>
			<desc>znovu vypočítaná predch. konfigurácia</desc>
			<v:textBlock v:margins="rect(4,4,4,4)" v:tabSpace="42.5197"/>
			<v:textRect cx="90" cy="832.89" width="180" height="18"/>
			<rect x="0" y="823.89" width="180" height="18" class="st4"/>
			<text x="4" y="835.59" class="st5" v:langID="1051"><v:paragraph/><v:tabList/>znovu vypočítaná predch. konfigurácia</text>		</g>
		<g id="shape14-42" v:mID="14" v:groupContext="shape" transform="translate(144,-432)">
			<title>Sheet.14</title>
			<desc>možný nasledovník 2</desc>
			<v:textBlock v:margins="rect(4,4,4,4)" v:tabSpace="42.5197"/>
			<v:textRect cx="63" cy="832.89" width="126" height="18"/>
			<rect x="0" y="823.89" width="126" height="18" class="st4"/>
			<text x="4" y="835.59" class="st5" v:langID="1051"><v:paragraph/><v:tabList/>možný nasledovník 2</text>		</g>
		<g id="shape17-45" v:mID="17" v:groupContext="shape" transform="translate(144,-468)">
			<title>Sheet.17</title>
			<desc>-</desc>
			<v:textBlock v:margins="rect(4,4,4,4)" v:tabSpace="42.5197"/>
			<v:textRect cx="9" cy="832.89" width="18" height="18"/>
			<rect x="0" y="823.89" width="18" height="18" class="st4"/>
			<text x="7.5" y="835.59" class="st5" v:langID="1051"><v:paragraph v:horizAlign="1"/><v:tabList/>-</text>		</g>
		<g id="shape18-48" v:mID="18" v:groupContext="shape" transform="translate(216,-468)">
			<title>Sheet.18</title>
			<desc>-</desc>
			<v:textBlock v:margins="rect(4,4,4,4)" v:tabSpace="42.5197"/>
			<v:textRect cx="9" cy="832.89" width="18" height="18"/>
			<rect x="0" y="823.89" width="18" height="18" class="st4"/>
			<text x="7.5" y="835.59" class="st5" v:langID="1051"><v:paragraph v:horizAlign="1"/><v:tabList/>-</text>		</g>
		<g id="shape19-51" v:mID="19" v:groupContext="shape" transform="translate(198,-468)">
			<title>Sheet.19</title>
			<desc>-</desc>
			<v:textBlock v:margins="rect(4,4,4,4)" v:tabSpace="42.5197"/>
			<v:textRect cx="9" cy="832.89" width="18" height="18"/>
			<rect x="0" y="823.89" width="18" height="18" class="st4"/>
			<text x="7.5" y="835.59" class="st5" v:langID="1051"><v:paragraph v:horizAlign="1"/><v:tabList/>-</text>		</g>
		<g id="shape20-54" v:mID="20" v:groupContext="shape" transform="translate(180,-468)">
			<title>Sheet.20</title>
			<desc>-</desc>
			<v:textBlock v:margins="rect(4,4,4,4)" v:tabSpace="42.5197"/>
			<v:textRect cx="9" cy="832.89" width="18" height="18"/>
			<rect x="0" y="823.89" width="18" height="18" class="st4"/>
			<text x="7.5" y="835.59" class="st5" v:langID="1051"><v:paragraph v:horizAlign="1"/><v:tabList/>-</text>		</g>
		<g id="shape21-57" v:mID="21" v:groupContext="shape" transform="translate(162,-468)">
			<title>Sheet.21</title>
			<desc>-</desc>
			<v:textBlock v:margins="rect(4,4,4,4)" v:tabSpace="42.5197"/>
			<v:textRect cx="9" cy="832.89" width="18" height="18"/>
			<rect x="0" y="823.89" width="18" height="18" class="st4"/>
			<text x="7.5" y="835.59" class="st5" v:langID="1051"><v:paragraph v:horizAlign="1"/><v:tabList/>-</text>		</g>
		<g id="shape22-60" v:mID="22" v:groupContext="shape" transform="translate(234,-468)">
			<title>Sheet.22</title>
			<desc>1</desc>
			<v:textBlock v:margins="rect(4,4,4,4)" v:tabSpace="42.5197"/>
			<v:textRect cx="9" cy="832.89" width="18" height="18"/>
			<rect x="0" y="823.89" width="18" height="18" class="st4"/>
			<text x="6.5" y="835.59" class="st5" v:langID="1051"><v:paragraph v:horizAlign="1"/><v:tabList/>1</text>		</g>
		<g id="shape23-63" v:mID="23" v:groupContext="shape" transform="translate(252,-468)">
			<title>Sheet.23</title>
			<desc>-</desc>
			<v:textBlock v:margins="rect(4,4,4,4)" v:tabSpace="42.5197"/>
			<v:textRect cx="9" cy="832.89" width="18" height="18"/>
			<rect x="0" y="823.89" width="18" height="18" class="st4"/>
			<text x="7.5" y="835.59" class="st5" v:langID="1051"><v:paragraph v:horizAlign="1"/><v:tabList/>-</text>		</g>
		<g id="shape24-66" v:mID="24" v:groupContext="shape" transform="translate(270,-495)">
			<title>Sheet.24</title>
			<path d="M0 841.89 L36 841.89" class="st6"/>
		</g>
		<g id="shape25-69" v:mID="25" v:groupContext="shape" transform="translate(270,-477)">
			<title>Sheet.25</title>
			<path d="M0 841.89 L36 841.89" class="st6"/>
		</g>
		<g id="shape26-72" v:mID="26" v:groupContext="shape" transform="translate(144,1166.28) scale(1,-1)">
			<title>Side brace</title>
			<desc>O(T(n))</desc>
			<v:userDefs>
				<v:ud v:nameU="TxtW" v:val="VT0(0.625):29"/>
				<v:ud v:nameU="TxtA" v:val="VT0(1.5707963267949):32"/>
				<v:ud v:nameU="TxtAState" v:val="VT0(0):26"/>
				<v:ud v:nameU="TxtWState" v:val="VT0(0):26"/>
				<v:ud v:nameU="MaxRadius" v:val="VT0(0.12499999999999):1"/>
				<v:ud v:nameU="PosCH1" v:prompt="Constrains X position of Control Handle #1" v:val="VT0(0):26"/>
				<v:ud v:nameU="PosCH2" v:prompt="Constrains Y position of Control Handle #2" v:val="VT0(0):26"/>
			</v:userDefs>
			<v:textBlock v:margins="rect(4,4,4,4)" v:tabSpace="42.5197"/>
			<v:textRect cx="90" cy="857.64" width="45" height="13.5"/>
			<path d="M0 832.89 L0 837.39 A4.49993 4.49993 -180 0 0 4.5 841.89 L85.5 841.89 A4.49993 4.49993 0 0 1 90 846.39 A4.49993
						 4.49993 0 0 1 94.5 841.89 L175.5 841.89 A4.49993 4.49993 -180 0 0 180 837.39 L180 832.89" class="st3"/>
			<text x="75.25" y="-854.94" transform="scale(1,-1)" class="st7" v:langID="1051"><v:paragraph v:horizAlign="1"/><v:tabList/>O(T(n))</text>		</g>
		<g id="group30-76" transform="translate(67.5,-468)" v:mID="30" v:groupContext="group">
			<title>Sheet.30</title>
			<g id="shape28-77" v:mID="28" v:groupContext="shape" transform="translate(0,-18)">
				<title>Sheet.28</title>
				<desc>navigácia</desc>
				<v:textBlock v:margins="rect(4,4,4,4)" v:tabSpace="42.5197"/>
				<v:textRect cx="36" cy="832.89" width="72" height="18"/>
				<rect x="0" y="823.89" width="72" height="18" class="st4"/>
				<text x="4" y="835.29" class="st8" v:langID="1051"><v:paragraph/><v:tabList/>navigácia</text>			</g>
			<g id="shape29-80" v:mID="29" v:groupContext="shape">
				<title>Sheet.29</title>
				<desc>doteraz vypočítané</desc>
				<v:textBlock v:margins="rect(4,4,4,4)" v:tabSpace="42.5197"/>
				<v:textRect cx="36" cy="832.89" width="72" height="18"/>
				<rect x="0" y="823.89" width="72" height="18" class="st4"/>
				<text x="4" y="830.49" class="st8" v:langID="1051"><v:paragraph/><v:tabList/>doteraz <tspan x="4" dy="1.2em"
							class="st9">vypočítané</tspan></text>			</g>
		</g>
	</g>
</svg>
