<?xml version="1.0" encoding="UTF-8" standalone="no"?>
<!DOCTYPE svg PUBLIC "-//W3C//DTD SVG 1.0//EN" "http://www.w3.org/TR/2001/REC-SVG-20010904/DTD/svg10.dtd">
<!-- Generated by Microsoft Visio 11.0, SVG Export, v1.0 strom_n.svg Page-1 -->
<svg xmlns="http://www.w3.org/2000/svg" xmlns:v="http://schemas.microsoft.com/visio/2003/SVGExtensions/" width="8.26772in"
		height="11.6929in" viewBox="0 0 595.276 841.89" xml:space="preserve" color-interpolation-filters="sRGB" class="st14">
	<title>strom_n</title>
	<v:documentProperties v:langID="1051" v:metric="true" v:viewMarkup="false"/>

	<style type="text/css">
	<![CDATA[
		.st1 {marker-end:url(#mrkr10-9);marker-start:url(#mrkr10-7);stroke:#000000;stroke-linecap:round;stroke-linejoin:round;stroke-width:0.24}
		.st2 {fill:#000000;fill-opacity:1;stroke:#000000;stroke-opacity:1;stroke-width:0.08695652173913}
		.st3 {stroke:#000000;stroke-dasharray:1.68,1.2;stroke-linecap:round;stroke-linejoin:round;stroke-width:0.24}
		.st4 {fill:none;stroke:none;stroke-linecap:round;stroke-linejoin:round;stroke-width:0.72}
		.st5 {fill:#000000;font-family:Arial;font-size:1.00001em}
		.st6 {fill:none;marker-end:url(#mrkr10-122);marker-start:url(#mrkr10-120);stroke:none;stroke-linecap:round;stroke-linejoin:round;stroke-width:0.72}
		.st7 {fill:#000000;fill-opacity:1;stroke:#000000;stroke-opacity:1;stroke-width:0.22222222222222}
		.st8 {fill:#000000;font-family:Arial;font-size:0.75em;font-style:italic}
		.st9 {baseline-shift:-32.4951%;font-size:0.649902em}
		.st10 {fill:#000000;font-family:Arial;font-size:1.00001em;font-style:italic;font-weight:bold}
		.st11 {stroke:#000000;stroke-linecap:round;stroke-linejoin:round;stroke-width:0.24}
		.st12 {fill:#000000;font-family:Arial;font-size:0.666664em;font-style:italic}
		.st13 {fill:#000000;font-family:Arial;font-size:0.75em}
		.st14 {fill:none;fill-rule:evenodd;font-size:12;overflow:visible;stroke-linecap:square;stroke-miterlimit:3}
	]]>
	</style>

	<defs id="Markers">
		<g id="lend10">
			<path
					d="M 0 0.75 C -0.414214 0.75 -0.75 0.414214 -0.75 0 -0.75 -0.414214 -0.414214 -0.75 0 -0.75 0.414214 -0.75 0.75 -0.414214 0.75 0 0.75 0.414214 0.414214 0.75 0 0.75 Z "
					style="stroke:none"/>
		</g>
		<marker id="mrkr10-7" class="st2" v:arrowType="10" v:arrowSize="2" v:setback="7.125" refX="7.125" orient="auto"
				markerUnits="strokeWidth">
			<use xlink:href="#lend10" transform="scale(11.5) "/>
		</marker>
		<marker id="mrkr10-9" class="st2" v:arrowType="10" v:arrowSize="2" v:setback="8.625" refX="-8.625" orient="auto"
				markerUnits="strokeWidth">
			<use xlink:href="#lend10" transform="scale(-11.5,-11.5) "/>
		</marker>
		<marker id="mrkr10-120" class="st7" v:arrowType="10" v:arrowSize="2" v:setback="3.375" refX="3.375" orient="auto"
				markerUnits="strokeWidth">
			<use xlink:href="#lend10" transform="scale(4.5) "/>
		</marker>
		<marker id="mrkr10-122" class="st7" v:arrowType="10" v:arrowSize="2" v:setback="3.375" refX="-3.375" orient="auto"
				markerUnits="strokeWidth">
			<use xlink:href="#lend10" transform="scale(-4.5,-4.5) "/>
		</marker>
	</defs>
	<g v:mID="0" v:index="1" v:groupContext="foregroundPage">
		<title>Page-1</title>
		<v:pageProperties v:drawingScale="1" v:pageScale="1" v:drawingUnits="19" v:shadowOffsetX="9" v:shadowOffsetY="-9"/>
		<g id="shape3-1" v:mID="3" v:groupContext="shape" transform="translate(933.009,642.394) rotate(116.565)">
			<title>Sheet.3</title>
			<path d="M1.71 841.89 L2.07 841.89 L38.18 841.89" class="st1"/>
		</g>
		<g id="shape4-10" v:mID="4" v:groupContext="shape" transform="translate(1005.01,642.394) rotate(116.565)">
			<title>Sheet.4</title>
			<path d="M1.71 841.89 L2.07 841.89 L38.18 841.89" class="st1"/>
		</g>
		<g id="shape5-17" v:mID="5" v:groupContext="shape" transform="translate(933.009,-110.615) rotate(63.4349)">
			<title>Sheet.5</title>
			<path d="M1.71 841.89 L2.07 841.89 L38.18 841.89" class="st1"/>
		</g>
		<g id="shape6-24" v:mID="6" v:groupContext="shape" transform="translate(1005.01,-110.615) rotate(63.4349)">
			<title>Sheet.6</title>
			<path d="M1.71 841.89 L2.07 841.89 L38.18 841.89" class="st1"/>
		</g>
		<g id="shape7-31" v:mID="7" v:groupContext="shape" transform="translate(-604.509,-47.6148) rotate(-63.4349)">
			<title>Sheet.7</title>
			<path d="M1.71 841.89 L2.07 841.89 L28.12 841.89" class="st1"/>
		</g>
		<g id="shape8-38" v:mID="8" v:groupContext="shape" transform="translate(-627.687,595.119) rotate(-108.435)">
			<title>Sheet.8</title>
			<path d="M1.71 841.89 L2.07 841.89 L26.39 841.89" class="st1"/>
		</g>
		<g id="shape9-45" v:mID="9" v:groupContext="shape" transform="translate(996.687,568.119) rotate(108.435)">
			<title>Sheet.9</title>
			<path d="M1.71 841.89 L2.07 841.89 L26.39 841.89" class="st1"/>
		</g>
		<g id="shape10-52" v:mID="10" v:groupContext="shape" transform="translate(-591.687,595.119) rotate(-108.435)">
			<title>Sheet.10</title>
			<path d="M1.71 841.89 L2.07 841.89 L26.39 841.89" class="st1"/>
		</g>
		<g id="shape11-59" v:mID="11" v:groupContext="shape" transform="translate(1032.69,568.119) rotate(108.435)">
			<title>Sheet.11</title>
			<path d="M1.71 841.89 L2.07 841.89 L26.39 841.89" class="st1"/>
		</g>
		<g id="shape12-66" v:mID="12" v:groupContext="shape" transform="translate(-555.687,595.119) rotate(-108.435)">
			<title>Sheet.12</title>
			<path d="M1.71 841.89 L2.07 841.89 L26.39 841.89" class="st1"/>
		</g>
		<g id="shape13-73" v:mID="13" v:groupContext="shape" transform="translate(-537.687,62.6608) rotate(-71.5651)">
			<title>Sheet.13</title>
			<path d="M1.71 841.89 L2.07 841.89 L26.39 841.89" class="st1"/>
		</g>
		<g id="shape14-80" v:mID="14" v:groupContext="shape" transform="translate(-469.509,705.394) rotate(-116.565)">
			<title>Sheet.14</title>
			<path d="M1.71 841.89 L2.07 841.89 L28.12 841.89" class="st1"/>
		</g>
		<g id="shape15-87" v:mID="15" v:groupContext="shape" transform="translate(901.509,705.394) rotate(116.565)">
			<title>Sheet.15</title>
			<path d="M0 841.89 L30.19 841.89" class="st3"/>
		</g>
		<g id="shape16-90" v:mID="16" v:groupContext="shape" transform="translate(1036.51,-47.6148) rotate(63.4349)">
			<title>Sheet.16</title>
			<path d="M0 841.89 L30.19 841.89" class="st3"/>
		</g>
		<g id="shape18-93" v:mID="18" v:groupContext="shape" transform="translate(297,1197.78) rotate(180)">
			<title>Sheet.18</title>
			<path d="M0 841.89 L162 841.89" class="st3"/>
		</g>
		<g id="shape17-96" v:mID="17" v:groupContext="shape" transform="translate(207,-585)">
			<title>Sheet.17</title>
			<desc></desc>
			<v:textBlock v:margins="rect(4,4,4,4)" v:tabSpace="42.5197"/>
			<v:textRect cx="9" cy="832.89" width="18" height="18"/>
			<rect x="0" y="823.89" width="18" height="18" class="st4"/>
			<text x="0.75em" y="836.49" class="st5" v:langID="1051"><v:paragraph v:horizAlign="1"/><v:tabList/></text>		</g>
		<g id="group19-99" transform="translate(180,-576)" v:mID="19" v:groupContext="group">
			<title>Sheet.19</title>
			<g id="shape1-100" v:mID="1" v:groupContext="shape" transform="translate(631.306,1401.2) rotate(135)">
				<title>Sheet.1</title>
				<path d="M1.71 841.89 L2.07 841.89 L48.84 841.89" class="st1"/>
			</g>
			<g id="shape2-107" v:mID="2" v:groupContext="shape" transform="translate(-523.306,1437.2) rotate(-135)">
				<title>Sheet.2</title>
				<path d="M1.71 841.89 L2.07 841.89 L48.84 841.89" class="st1"/>
			</g>
		</g>
		<g id="shape20-114" v:mID="20" v:groupContext="shape" transform="translate(171,-549)">
			<title>Sheet.20</title>
			<desc></desc>
			<v:textBlock v:margins="rect(4,4,4,4)" v:tabSpace="42.5197"/>
			<v:textRect cx="9" cy="832.89" width="18" height="18"/>
			<rect x="0" y="823.89" width="18" height="18" class="st4"/>
			<text x="0.75em" y="836.49" class="st5" v:langID="1051"><v:paragraph v:horizAlign="1"/><v:tabList/></text>		</g>
		<g id="shape21-117" v:mID="21" v:groupContext="shape" transform="translate(243,-549)">
			<title>Sheet.21</title>
			<desc></desc>
			<v:textBlock v:margins="rect(4,4,4,4)" v:tabSpace="42.5197"/>
			<v:textRect cx="9" cy="832.89" width="18" height="18"/>
			<rect x="0" y="823.89" width="18" height="18" class="st6"/>
			<text x="0.75em" y="836.49" class="st5" v:langID="1051"><v:paragraph v:horizAlign="1"/><v:tabList/></text>		</g>
		<g id="shape22-124" v:mID="22" v:groupContext="shape" transform="translate(153,-513)">
			<title>Sheet.22</title>
			<desc></desc>
			<v:textBlock v:margins="rect(4,4,4,4)" v:tabSpace="42.5197"/>
			<v:textRect cx="9" cy="832.89" width="18" height="18"/>
			<rect x="0" y="823.89" width="18" height="18" class="st6"/>
			<text x="0.75em" y="836.49" class="st5" v:langID="1051"><v:paragraph v:horizAlign="1"/><v:tabList/></text>		</g>
		<g id="shape23-129" v:mID="23" v:groupContext="shape" transform="translate(189,-513)">
			<title>Sheet.23</title>
			<desc></desc>
			<v:textBlock v:margins="rect(4,4,4,4)" v:tabSpace="42.5197"/>
			<v:textRect cx="9" cy="832.89" width="18" height="18"/>
			<rect x="0" y="823.89" width="18" height="18" class="st4"/>
			<text x="0.75em" y="836.49" class="st5" v:langID="1051"><v:paragraph v:horizAlign="1"/><v:tabList/></text>		</g>
		<g id="shape24-132" v:mID="24" v:groupContext="shape" transform="translate(225,-513)">
			<title>Sheet.24</title>
			<desc></desc>
			<v:textBlock v:margins="rect(4,4,4,4)" v:tabSpace="42.5197"/>
			<v:textRect cx="9" cy="832.89" width="18" height="18"/>
			<rect x="0" y="823.89" width="18" height="18" class="st6"/>
			<text x="0.75em" y="836.49" class="st5" v:langID="1051"><v:paragraph v:horizAlign="1"/><v:tabList/></text>		</g>
		<g id="shape25-137" v:mID="25" v:groupContext="shape" transform="translate(261,-513)">
			<title>Sheet.25</title>
			<desc></desc>
			<v:textBlock v:margins="rect(4,4,4,4)" v:tabSpace="42.5197"/>
			<v:textRect cx="11.25" cy="832.89" width="22.5" height="18"/>
			<rect x="0" y="823.89" width="22.5" height="18" class="st6"/>
			<text x="0.937em" y="836.49" class="st5" v:langID="1051"><v:paragraph v:horizAlign="1"/><v:tabList/></text>		</g>
		<g id="shape26-142" v:mID="26" v:groupContext="shape" transform="translate(207,-612)">
			<title>Sheet.26</title>
			<desc>qH</desc>
			<v:textBlock v:margins="rect(4,4,4,4)" v:tabSpace="42.5197"/>
			<v:textRect cx="9" cy="832.89" width="18" height="18"/>
			<rect x="0" y="823.89" width="18" height="18" class="st4"/>
			<text x="4.39" y="835.59" class="st8" v:langID="1051"><v:paragraph v:horizAlign="1"/><v:tabList/>q<tspan dy="-0.287em"
						class="st9" v:baseFontSize="9">H</tspan></text>		</g>
		<g id="shape27-146" v:mID="27" v:groupContext="shape" transform="translate(220.5,-540)">
			<title>Sheet.27</title>
			<desc>qH</desc>
			<v:textBlock v:margins="rect(4,4,4,4)" v:tabSpace="42.5197"/>
			<v:textRect cx="9" cy="832.89" width="18" height="18"/>
			<rect x="0" y="823.89" width="18" height="18" class="st6"/>
			<text x="4.39" y="835.59" class="st8" v:langID="1051"><v:paragraph v:horizAlign="1"/><v:tabList/>q<tspan dy="-0.287em"
						class="st9" v:baseFontSize="9">H</tspan></text>		</g>
		<g id="shape28-152" v:mID="28" v:groupContext="shape" transform="translate(162,-571.5)">
			<title>Sheet.28</title>
			<desc>qH</desc>
			<v:textBlock v:margins="rect(4,4,4,4)" v:tabSpace="42.5197"/>
			<v:textRect cx="9" cy="832.89" width="18" height="18"/>
			<rect x="0" y="823.89" width="18" height="18" class="st4"/>
			<text x="4.39" y="835.59" class="st8" v:langID="1051"><v:paragraph v:horizAlign="1"/><v:tabList/>q<tspan dy="-0.287em"
						class="st9" v:baseFontSize="9">H</tspan></text>		</g>
		<g id="shape29-156" v:mID="29" v:groupContext="shape" transform="translate(252,-571.5)">
			<title>Sheet.29</title>
			<desc>qH</desc>
			<v:textBlock v:margins="rect(4,4,4,4)" v:tabSpace="42.5197"/>
			<v:textRect cx="9" cy="832.89" width="18" height="18"/>
			<rect x="0" y="823.89" width="18" height="18" class="st6"/>
			<text x="4.39" y="835.59" class="st8" v:langID="1051"><v:paragraph v:horizAlign="1"/><v:tabList/>q<tspan dy="-0.287em"
						class="st9" v:baseFontSize="9">H</tspan></text>		</g>
		<g id="shape30-162" v:mID="30" v:groupContext="shape" transform="translate(148.5,-540)">
			<title>Sheet.30</title>
			<desc>qH</desc>
			<v:textBlock v:margins="rect(4,4,4,4)" v:tabSpace="42.5197"/>
			<v:textRect cx="9" cy="832.89" width="18" height="18"/>
			<rect x="0" y="823.89" width="18" height="18" class="st4"/>
			<text x="4.39" y="835.59" class="st8" v:langID="1051"><v:paragraph v:horizAlign="1"/><v:tabList/>q<tspan dy="-0.287em"
						class="st9" v:baseFontSize="9">H</tspan></text>		</g>
		<g id="shape31-166" v:mID="31" v:groupContext="shape" transform="translate(193.5,-540)">
			<title>Sheet.31</title>
			<desc>qH</desc>
			<v:textBlock v:margins="rect(4,4,4,4)" v:tabSpace="42.5197"/>
			<v:textRect cx="9" cy="832.89" width="18" height="18"/>
			<rect x="0" y="823.89" width="18" height="18" class="st6"/>
			<text x="4.39" y="835.59" class="st8" v:langID="1051"><v:paragraph v:horizAlign="1"/><v:tabList/>q<tspan dy="-0.287em"
						class="st9" v:baseFontSize="9">H</tspan></text>		</g>
		<g id="shape32-172" v:mID="32" v:groupContext="shape" transform="translate(265.5,-540)">
			<title>Sheet.32</title>
			<desc>qH</desc>
			<v:textBlock v:margins="rect(4,4,4,4)" v:tabSpace="42.5197"/>
			<v:textRect cx="9" cy="832.89" width="18" height="18"/>
			<rect x="0" y="823.89" width="18" height="18" class="st6"/>
			<text x="4.39" y="835.59" class="st8" v:langID="1051"><v:paragraph v:horizAlign="1"/><v:tabList/>q<tspan dy="-0.287em"
						class="st9" v:baseFontSize="9">H</tspan></text>		</g>
		<g id="shape33-178" v:mID="33" v:groupContext="shape" transform="translate(126,-594)">
			<title>Sheet.33</title>
			<desc>N:</desc>
			<v:textBlock v:margins="rect(4,4,4,4)" v:tabSpace="42.5197"/>
			<v:textRect cx="13.5" cy="823.89" width="27" height="36"/>
			<rect x="0" y="805.89" width="27" height="36" class="st4"/>
			<text x="7.17" y="827.49" class="st10" v:langID="1051"><v:paragraph v:horizAlign="1"/><v:tabList/>N:</text>		</g>
		<g id="shape34-181" v:mID="34" v:groupContext="shape" transform="translate(-526.89,229.89) rotate(-90) scale(-1,1)">
			<title>Side brace</title>
			<desc>O(S(n))</desc>
			<v:userDefs>
				<v:ud v:nameU="TxtW" v:val="VT0(0.55555555555556):29"/>
				<v:ud v:nameU="TxtA" v:val="VT0(1.5707963267949):32"/>
				<v:ud v:nameU="TxtAState" v:val="VT0(0):26"/>
				<v:ud v:nameU="TxtWState" v:val="VT0(0):26"/>
				<v:ud v:nameU="MaxRadius" v:val="VT0(0.125):1"/>
				<v:ud v:nameU="PosCH1" v:prompt="Constrains X position of Control Handle #1" v:val="VT0(0):26"/>
				<v:ud v:nameU="PosCH2" v:prompt="Constrains Y position of Control Handle #2" v:val="VT0(0):26"/>
			</v:userDefs>
			<v:textBlock v:margins="rect(4,4,4,4)" v:tabSpace="42.5197"/>
			<v:textRect cx="63" cy="864.84" width="35.1" height="17.6036" transform="rotate(90)"/>
			<path d="M0 832.89 L0 837.39 A4.49993 4.49993 -180 0 0 4.5 841.89 L58.5 841.89 A4.49993 4.49993 0 0 1 63 846.39 A4.49993
						 4.49993 0 0 1 67.5 841.89 L121.5 841.89 A4.49993 4.49993 -180 0 0 126 837.39 L126 832.89" class="st11"/>
			<text x="851.51" y="65.4" transform="rotate(-90) scale(-1,1)" class="st12" v:langID="1051"><v:paragraph
						v:horizAlign="1"/><v:tabList/>O(S(n))</text>		</g>
		<g id="shape35-185" v:mID="35" v:groupContext="shape" transform="translate(225,-612)">
			<title>Sheet.35</title>
			<path d="M0 841.89 L72 841.89" class="st3"/>
		</g>
		<g id="shape36-188" v:mID="36" v:groupContext="shape" transform="translate(148.5,-513)">
			<title>Sheet.36</title>
			<path d="M0 841.89 L135 841.89" class="st3"/>
		</g>
		<g id="shape37-191" v:mID="37" v:groupContext="shape" transform="translate(189,-594)">
			<title>Sheet.37</title>
			<desc>a</desc>
			<v:textBlock v:margins="rect(4,4,4,4)" v:tabSpace="42.5197"/>
			<v:textRect cx="4.5" cy="837.39" width="9" height="9"/>
			<rect x="0" y="832.89" width="9" height="9" class="st4"/>
			<text x="4" y="840.09" class="st13" v:langID="1051"><v:paragraph v:horizAlign="1"/><v:tabList/>a</text>		</g>
		<g id="shape38-194" v:mID="38" v:groupContext="shape" transform="translate(234,-594)">
			<title>Sheet.38</title>
			<desc>b</desc>
			<v:textBlock v:margins="rect(4,4,4,4)" v:tabSpace="42.5197"/>
			<v:textRect cx="4.5" cy="837.39" width="9" height="9"/>
			<rect x="0" y="832.89" width="9" height="9" class="st4"/>
			<text x="4" y="840.09" class="st13" v:langID="1051"><v:paragraph v:horizAlign="1"/><v:tabList/>b</text>		</g>
		<g id="shape39-197" v:mID="39" v:groupContext="shape" transform="translate(256.5,-558)">
			<title>Sheet.39</title>
			<desc>b</desc>
			<v:textBlock v:margins="rect(4,4,4,4)" v:tabSpace="42.5197"/>
			<v:textRect cx="4.5" cy="837.39" width="9" height="9"/>
			<rect x="0" y="832.89" width="9" height="9" class="st4"/>
			<text x="4" y="840.09" class="st13" v:langID="1051"><v:paragraph v:horizAlign="1"/><v:tabList/>b</text>		</g>
		<g id="shape40-200" v:mID="40" v:groupContext="shape" transform="translate(276.75,-522)">
			<title>Sheet.40</title>
			<desc>b</desc>
			<v:textBlock v:margins="rect(4,4,4,4)" v:tabSpace="42.5197"/>
			<v:textRect cx="4.5" cy="837.39" width="9" height="9"/>
			<rect x="0" y="832.89" width="9" height="9" class="st4"/>
			<text x="4" y="840.09" class="st13" v:langID="1051"><v:paragraph v:horizAlign="1"/><v:tabList/>b</text>		</g>
		<g id="shape41-203" v:mID="41" v:groupContext="shape" transform="translate(238.5,-522)">
			<title>Sheet.41</title>
			<desc>b</desc>
			<v:textBlock v:margins="rect(4,4,4,4)" v:tabSpace="42.5197"/>
			<v:textRect cx="4.5" cy="837.39" width="9" height="9"/>
			<rect x="0" y="832.89" width="9" height="9" class="st4"/>
			<text x="4" y="840.09" class="st13" v:langID="1051"><v:paragraph v:horizAlign="1"/><v:tabList/>b</text>		</g>
		<g id="shape42-206" v:mID="42" v:groupContext="shape" transform="translate(199.594,-522)">
			<title>Sheet.42</title>
			<desc>b</desc>
			<v:textBlock v:margins="rect(4,4,4,4)" v:tabSpace="42.5197"/>
			<v:textRect cx="4.5" cy="837.39" width="9" height="9"/>
			<rect x="0" y="832.89" width="9" height="9" class="st4"/>
			<text x="4" y="840.09" class="st13" v:langID="1051"><v:paragraph v:horizAlign="1"/><v:tabList/>b</text>		</g>
		<g id="shape43-209" v:mID="43" v:groupContext="shape" transform="translate(164.25,-522)">
			<title>Sheet.43</title>
			<desc>b</desc>
			<v:textBlock v:margins="rect(4,4,4,4)" v:tabSpace="42.5197"/>
			<v:textRect cx="4.5" cy="837.39" width="9" height="9"/>
			<rect x="0" y="832.89" width="9" height="9" class="st4"/>
			<text x="4" y="840.09" class="st13" v:langID="1051"><v:paragraph v:horizAlign="1"/><v:tabList/>b</text>		</g>
		<g id="shape44-212" v:mID="44" v:groupContext="shape" transform="translate(184.5,-558)">
			<title>Sheet.44</title>
			<desc>b</desc>
			<v:textBlock v:margins="rect(4,4,4,4)" v:tabSpace="42.5197"/>
			<v:textRect cx="4.5" cy="837.39" width="9" height="9"/>
			<rect x="0" y="832.89" width="9" height="9" class="st4"/>
			<text x="4" y="840.09" class="st13" v:langID="1051"><v:paragraph v:horizAlign="1"/><v:tabList/>b</text>		</g>
		<g id="shape45-215" v:mID="45" v:groupContext="shape" transform="translate(162,-558)">
			<title>Sheet.45</title>
			<desc>a</desc>
			<v:textBlock v:margins="rect(4,4,4,4)" v:tabSpace="42.5197"/>
			<v:textRect cx="4.5" cy="837.39" width="9" height="9"/>
			<rect x="0" y="832.89" width="9" height="9" class="st4"/>
			<text x="4" y="840.09" class="st13" v:langID="1051"><v:paragraph v:horizAlign="1"/><v:tabList/>a</text>		</g>
		<g id="shape46-218" v:mID="46" v:groupContext="shape" transform="translate(144,-522)">
			<title>Sheet.46</title>
			<desc>a</desc>
			<v:textBlock v:margins="rect(4,4,4,4)" v:tabSpace="42.5197"/>
			<v:textRect cx="4.5" cy="837.39" width="9" height="9"/>
			<rect x="0" y="832.89" width="9" height="9" class="st4"/>
			<text x="4" y="840.09" class="st13" v:langID="1051"><v:paragraph v:horizAlign="1"/><v:tabList/>a</text>		</g>
		<g id="shape47-221" v:mID="47" v:groupContext="shape" transform="translate(182.25,-522)">
			<title>Sheet.47</title>
			<desc>a</desc>
			<v:textBlock v:margins="rect(4,4,4,4)" v:tabSpace="42.5197"/>
			<v:textRect cx="4.5" cy="837.39" width="9" height="9"/>
			<rect x="0" y="832.89" width="9" height="9" class="st4"/>
			<text x="4" y="840.09" class="st13" v:langID="1051"><v:paragraph v:horizAlign="1"/><v:tabList/>a</text>		</g>
		<g id="shape48-224" v:mID="48" v:groupContext="shape" transform="translate(218.25,-522)">
			<title>Sheet.48</title>
			<desc>a</desc>
			<v:textBlock v:margins="rect(4,4,4,4)" v:tabSpace="42.5197"/>
			<v:textRect cx="4.5" cy="837.39" width="9" height="9"/>
			<rect x="0" y="832.89" width="9" height="9" class="st4"/>
			<text x="4" y="840.09" class="st13" v:langID="1051"><v:paragraph v:horizAlign="1"/><v:tabList/>a</text>		</g>
		<g id="shape49-227" v:mID="49" v:groupContext="shape" transform="translate(254.25,-522)">
			<title>Sheet.49</title>
			<desc>a</desc>
			<v:textBlock v:margins="rect(4,4,4,4)" v:tabSpace="42.5197"/>
			<v:textRect cx="4.5" cy="837.39" width="9" height="9"/>
			<rect x="0" y="832.89" width="9" height="9" class="st4"/>
			<text x="4" y="840.09" class="st13" v:langID="1051"><v:paragraph v:horizAlign="1"/><v:tabList/>a</text>		</g>
		<g id="shape50-230" v:mID="50" v:groupContext="shape" transform="translate(234,-558)">
			<title>Sheet.50</title>
			<desc>a</desc>
			<v:textBlock v:margins="rect(4,4,4,4)" v:tabSpace="42.5197"/>
			<v:textRect cx="4.5" cy="837.39" width="9" height="9"/>
			<rect x="0" y="832.89" width="9" height="9" class="st4"/>
			<text x="4" y="840.09" class="st13" v:langID="1051"><v:paragraph v:horizAlign="1"/><v:tabList/>a</text>		</g>
	</g>
</svg>
