<?xml version="1.0" encoding="UTF-8" standalone="no"?>
<!DOCTYPE svg PUBLIC "-//W3C//DTD SVG 1.0//EN" "http://www.w3.org/TR/2001/REC-SVG-20010904/DTD/svg10.dtd">
<!-- Generated by Microsoft Visio 11.0, SVG Export, v1.0 dts_ats.svg Page-1 -->
<svg xmlns="http://www.w3.org/2000/svg" xmlns:v="http://schemas.microsoft.com/visio/2003/SVGExtensions/" width="8.26772in"
		height="11.6929in" viewBox="0 0 595.276 841.89" xml:space="preserve" color-interpolation-filters="sRGB" class="st18">
	<title>Dts_ats</title>
	<v:documentProperties v:langID="1051" v:metric="true" v:viewMarkup="false"/>

	<style type="text/css">
	<![CDATA[
		.st1 {fill:none;stroke:none;stroke-linecap:round;stroke-linejoin:round;stroke-width:0.24}
		.st2 {fill:#000000;font-family:Arial;font-size:0.75em;font-style:italic}
		.st3 {baseline-shift:-32.4951%;font-size:0.649902em}
		.st4 {fill:#000000;font-family:Arial;font-size:0.75em}
		.st5 {stroke:#000000;stroke-linecap:round;stroke-linejoin:round;stroke-width:0.24}
		.st6 {fill:#000000;font-family:Arial;font-size:0.666664em;font-style:italic}
		.st7 {baseline-shift:32.4939%;font-size:0.649878em}
		.st8 {font-size:1em}
		.st9 {baseline-shift:-21.6629%;font-size:0.433258em}
		.st10 {fill:#000000;font-family:Arial;font-size:1.00001em}
		.st11 {fill:#ffffff;stroke:#000000;stroke-linecap:round;stroke-linejoin:round;stroke-width:0.24}
		.st12 {stroke:#000000;stroke-dasharray:1.68,1.2;stroke-linecap:round;stroke-linejoin:round;stroke-width:0.24}
		.st13 {fill:none;stroke:#000000;stroke-linecap:round;stroke-linejoin:round;stroke-width:0.24}
		.st14 {fill:#000000}
		.st15 {fill:none;stroke:none;stroke-linecap:round;stroke-linejoin:round;stroke-width:0.72}
		.st16 {fill:#000000;font-family:Arial;font-size:0.499992em}
		.st17 {font-size:1em;font-style:italic}
		.st18 {fill:none;fill-rule:evenodd;font-size:12;overflow:visible;stroke-linecap:square;stroke-miterlimit:3}
	]]>
	</style>

	<g v:mID="0" v:index="1" v:groupContext="foregroundPage">
		<title>Page-1</title>
		<v:pageProperties v:drawingScale="1" v:pageScale="1" v:drawingUnits="19" v:shadowOffsetX="9" v:shadowOffsetY="-9"/>
		<g id="shape1-1" v:mID="1" v:groupContext="shape" transform="translate(144,-558)">
			<title>Sheet.1</title>
			<desc>q0</desc>
			<v:textBlock v:margins="rect(4,4,4,4)" v:tabSpace="42.5197"/>
			<v:textRect cx="9" cy="832.89" width="18" height="18"/>
			<rect x="0" y="823.89" width="18" height="18" class="st1"/>
			<text x="4.87" y="835.59" class="st2" v:langID="1051"><v:paragraph v:horizAlign="1"/><v:tabList/>q<tspan dy="-0.287em"
						class="st3" v:baseFontSize="9">0</tspan></text>		</g>
		<g id="shape2-5" v:mID="2" v:groupContext="shape" transform="translate(198,-558)">
			<title>Sheet.2</title>
			<desc>a3</desc>
			<v:textBlock v:margins="rect(4,4,4,4)" v:tabSpace="42.5197"/>
			<v:textRect cx="9" cy="832.89" width="18" height="18"/>
			<rect x="0" y="823.89" width="18" height="18" class="st1"/>
			<text x="4.87" y="835.59" class="st4" v:langID="1051"><v:paragraph v:horizAlign="1"/><v:tabList/>a<tspan dy="-0.287em"
						class="st3" v:baseFontSize="9">3</tspan></text>		</g>
		<g id="shape3-9" v:mID="3" v:groupContext="shape" transform="translate(180,-558)">
			<title>Sheet.3</title>
			<desc>a2</desc>
			<v:textBlock v:margins="rect(4,4,4,4)" v:tabSpace="42.5197"/>
			<v:textRect cx="9" cy="832.89" width="18" height="18"/>
			<rect x="0" y="823.89" width="18" height="18" class="st1"/>
			<text x="4.87" y="835.59" class="st4" v:langID="1051"><v:paragraph v:horizAlign="1"/><v:tabList/>a<tspan dy="-0.287em"
						class="st3" v:baseFontSize="9">2</tspan></text>		</g>
		<g id="shape4-13" v:mID="4" v:groupContext="shape" transform="translate(162,-558)">
			<title>Sheet.4</title>
			<desc>a1</desc>
			<v:textBlock v:margins="rect(4,4,4,4)" v:tabSpace="42.5197"/>
			<v:textRect cx="9" cy="832.89" width="18" height="18"/>
			<rect x="0" y="823.89" width="18" height="18" class="st1"/>
			<text x="4.87" y="835.59" class="st4" v:langID="1051"><v:paragraph v:horizAlign="1"/><v:tabList/>a<tspan dy="-0.287em"
						class="st3" v:baseFontSize="9">1</tspan></text>		</g>
		<g id="shape8-17" v:mID="8" v:groupContext="shape" transform="translate(144,-540)">
			<title>Sheet.8</title>
			<desc>b1</desc>
			<v:textBlock v:margins="rect(4,4,4,4)" v:tabSpace="42.5197"/>
			<v:textRect cx="9" cy="832.89" width="18" height="18"/>
			<rect x="0" y="823.89" width="18" height="18" class="st1"/>
			<text x="4.87" y="835.59" class="st4" v:langID="1051"><v:paragraph v:horizAlign="1"/><v:tabList/>b<tspan dy="-0.287em"
						class="st3" v:baseFontSize="9">1</tspan></text>		</g>
		<g id="shape9-21" v:mID="9" v:groupContext="shape" transform="translate(198,-540)">
			<title>Sheet.9</title>
			<desc>a3</desc>
			<v:textBlock v:margins="rect(4,4,4,4)" v:tabSpace="42.5197"/>
			<v:textRect cx="9" cy="832.89" width="18" height="18"/>
			<rect x="0" y="823.89" width="18" height="18" class="st1"/>
			<text x="4.87" y="835.59" class="st4" v:langID="1051"><v:paragraph v:horizAlign="1"/><v:tabList/>a<tspan dy="-0.287em"
						class="st3" v:baseFontSize="9">3</tspan></text>		</g>
		<g id="shape10-25" v:mID="10" v:groupContext="shape" transform="translate(180,-540)">
			<title>Sheet.10</title>
			<desc>a2</desc>
			<v:textBlock v:margins="rect(4,4,4,4)" v:tabSpace="42.5197"/>
			<v:textRect cx="9" cy="832.89" width="18" height="18"/>
			<rect x="0" y="823.89" width="18" height="18" class="st1"/>
			<text x="4.87" y="835.59" class="st4" v:langID="1051"><v:paragraph v:horizAlign="1"/><v:tabList/>a<tspan dy="-0.287em"
						class="st3" v:baseFontSize="9">2</tspan></text>		</g>
		<g id="shape11-29" v:mID="11" v:groupContext="shape" transform="translate(162,-540)">
			<title>Sheet.11</title>
			<desc>q1</desc>
			<v:textBlock v:margins="rect(4,4,4,4)" v:tabSpace="42.5197"/>
			<v:textRect cx="9" cy="832.89" width="18" height="18"/>
			<rect x="0" y="823.89" width="18" height="18" class="st1"/>
			<text x="4.87" y="835.59" class="st2" v:langID="1051"><v:paragraph v:horizAlign="1"/><v:tabList/>q<tspan dy="-0.287em"
						class="st3" v:baseFontSize="9">1</tspan></text>		</g>
		<g id="shape17-33" v:mID="17" v:groupContext="shape" transform="translate(972.39,369.39) rotate(90) scale(-1,1)">
			<title>Side brace</title>
			<desc>O(T2(n))</desc>
			<v:userDefs>
				<v:ud v:nameU="TxtW" v:val="VT0(0.55555555555556):29"/>
				<v:ud v:nameU="TxtA" v:val="VT0(-1.5707963267949):32"/>
				<v:ud v:nameU="TxtAState" v:val="VT0(0):26"/>
				<v:ud v:nameU="TxtWState" v:val="VT0(0):26"/>
				<v:ud v:nameU="MaxRadius" v:val="VT0(0.125):1"/>
				<v:ud v:nameU="PosCH1" v:prompt="Constrains X position of Control Handle #1" v:val="VT0(0):26"/>
				<v:ud v:nameU="PosCH2" v:prompt="Constrains Y position of Control Handle #2" v:val="VT0(0):26"/>
			</v:userDefs>
			<v:textBlock v:margins="rect(4,4,4,4)" v:tabSpace="42.5197"/>
			<v:textRect cx="49.5" cy="864.038" width="51.3" height="17.6036" transform="rotate(-90)"/>
			<path d="M0 832.89 L0 837.39 A4.49993 4.49993 -180 0 0 4.5 841.89 L45 841.89 A4.49993 4.49993 0 0 1 49.5 846.39 A4.49993
						 4.49993 0 0 1 54 841.89 L94.5 841.89 A4.49993 4.49993 -180 0 0 99 837.39 L99 832.89" class="st5"/>
			<text x="-878.59" y="-47.1" transform="rotate(90) scale(-1,1)" class="st6" v:langID="1051"><v:paragraph
						v:horizAlign="1"/><v:tabList/>O(T<tspan dy="-0.235em" class="st7" v:baseFontSize="8">2</tspan><tspan
						dy="0.153em" class="st8">(</tspan>n))</text>		</g>
		<g id="shape7-39" v:mID="7" v:groupContext="shape" transform="translate(234,-486)">
			<title>Sheet.7</title>
			<desc>qF</desc>
			<v:textBlock v:margins="rect(4,4,4,4)" v:tabSpace="42.5197"/>
			<v:textRect cx="9" cy="832.89" width="18" height="18"/>
			<rect x="0" y="823.89" width="18" height="18" class="st1"/>
			<text x="5.31" y="835.59" class="st2" v:langID="1051"><v:paragraph v:horizAlign="1"/><v:tabList/>q<tspan dy="-0.287em"
						class="st9" v:baseFontSize="6">F</tspan></text>		</g>
		<g id="group6-43" transform="translate(288,-540)" v:mID="6" v:groupContext="group">
			<title>Sheet.6</title>
			<g id="shape5-44" v:mID="5" v:groupContext="shape" transform="translate(0,-18)">
				<title>Sheet.5</title>
				<desc>an</desc>
				<v:textBlock v:margins="rect(4,4,4,4)" v:tabSpace="42.5197"/>
				<v:textRect cx="9" cy="832.89" width="18" height="18"/>
				<rect x="0" y="823.89" width="18" height="18" class="st1"/>
				<text x="4.87" y="835.59" class="st4" v:langID="1051"><v:paragraph v:horizAlign="1"/><v:tabList/>a<tspan
							dy="-0.287em" class="st3" v:baseFontSize="9">n</tspan></text>			</g>
			<g id="shape12-48" v:mID="12" v:groupContext="shape">
				<title>Sheet.12</title>
				<desc>an</desc>
				<v:textBlock v:margins="rect(4,4,4,4)" v:tabSpace="42.5197"/>
				<v:textRect cx="9" cy="832.89" width="18" height="18"/>
				<rect x="0" y="823.89" width="18" height="18" class="st1"/>
				<text x="4.87" y="835.59" class="st4" v:langID="1051"><v:paragraph v:horizAlign="1"/><v:tabList/>a<tspan
							dy="-0.287em" class="st3" v:baseFontSize="9">n</tspan></text>			</g>
			<g id="shape13-52" v:mID="13" v:groupContext="shape" transform="translate(18,-18)">
				<title>Sheet.13</title>
				<desc>B</desc>
				<v:textBlock v:margins="rect(4,4,4,4)" v:tabSpace="42.5197"/>
				<v:textRect cx="9" cy="832.89" width="18" height="18"/>
				<rect x="0" y="823.89" width="18" height="18" class="st1"/>
				<text x="5" y="836.49" class="st10" v:langID="1051"><v:paragraph v:horizAlign="1"/><v:tabList/>B</text>			</g>
			<g id="shape14-55" v:mID="14" v:groupContext="shape" transform="translate(36,0)">
				<title>Sheet.14</title>
				<desc>B</desc>
				<v:textBlock v:margins="rect(4,4,4,4)" v:tabSpace="42.5197"/>
				<v:textRect cx="9" cy="832.89" width="18" height="18"/>
				<rect x="0" y="823.89" width="18" height="18" class="st1"/>
				<text x="5" y="836.49" class="st10" v:langID="1051"><v:paragraph v:horizAlign="1"/><v:tabList/>B</text>			</g>
			<g id="shape15-58" v:mID="15" v:groupContext="shape" transform="translate(18,0)">
				<title>Sheet.15</title>
				<desc>B</desc>
				<v:textBlock v:margins="rect(4,4,4,4)" v:tabSpace="42.5197"/>
				<v:textRect cx="9" cy="832.89" width="18" height="18"/>
				<rect x="0" y="823.89" width="18" height="18" class="st1"/>
				<text x="5" y="836.49" class="st10" v:langID="1051"><v:paragraph v:horizAlign="1"/><v:tabList/>B</text>			</g>
			<g id="shape16-61" v:mID="16" v:groupContext="shape" transform="translate(36,-18)">
				<title>Sheet.16</title>
				<desc>B</desc>
				<v:textBlock v:margins="rect(4,4,4,4)" v:tabSpace="42.5197"/>
				<v:textRect cx="9" cy="832.89" width="18" height="18"/>
				<rect x="0" y="823.89" width="18" height="18" class="st1"/>
				<text x="5" y="836.49" class="st10" v:langID="1051"><v:paragraph v:horizAlign="1"/><v:tabList/>B</text>			</g>
		</g>
		<g id="shape18-64" v:mID="18" v:groupContext="shape" transform="translate(218.25,-506.25)">
			<title>Sheet.18</title>
			<rect x="0" y="828.39" width="13.5" height="13.5" class="st11"/>
		</g>
		<g id="shape19-66" v:mID="19" v:groupContext="shape" transform="translate(272.25,-506.25)">
			<title>Sheet.19</title>
			<rect x="0" y="828.39" width="13.5" height="13.5" class="st11"/>
		</g>
		<g id="shape20-68" v:mID="20" v:groupContext="shape" transform="translate(254.25,-506.25)">
			<title>Sheet.20</title>
			<rect x="0" y="828.39" width="13.5" height="13.5" class="st11"/>
		</g>
		<g id="shape21-70" v:mID="21" v:groupContext="shape" transform="translate(236.25,-506.25)">
			<title>Sheet.21</title>
			<rect x="0" y="828.39" width="13.5" height="13.5" class="st11"/>
		</g>
		<g id="shape22-72" v:mID="22" v:groupContext="shape" transform="translate(220.5,-567)">
			<title>Sheet.22</title>
			<path d="M0 841.89 L63 841.89" class="st12"/>
		</g>
		<g id="shape23-75" v:mID="23" v:groupContext="shape" transform="translate(220.5,-549)">
			<title>Sheet.23</title>
			<path d="M0 841.89 L63 841.89" class="st12"/>
		</g>
		<g id="shape24-78" v:mID="24" v:groupContext="shape" transform="translate(1084.89,265.89) rotate(90)">
			<title>Sheet.24</title>
			<path d="M0 841.89 L56.25 841.89" class="st5"/>
		</g>
		<g id="shape25-81" v:mID="25" v:groupContext="shape" transform="translate(144,-495)">
			<title>Sheet.25</title>
			<path d="M0 841.89 L92.25 841.89" class="st5"/>
		</g>
		<g id="shape26-84" v:mID="26" v:groupContext="shape" transform="translate(249.75,-495)">
			<title>Sheet.26</title>
			<path d="M0 841.89 L92.25 841.89" class="st5"/>
		</g>
		<g id="shape27-87" v:mID="27" v:groupContext="shape" transform="translate(1084.89,353.64) rotate(90)">
			<title>Sheet.27</title>
			<path d="M0 841.89 L15.75 841.89" class="st5"/>
		</g>
		<g id="shape28-90" v:mID="28" v:groupContext="shape" transform="translate(236.25,-488.25)">
			<title>Sheet.28</title>
			<rect x="0" y="828.39" width="13.5" height="13.5" class="st13"/>
		</g>
		<g id="shape29-92" v:mID="29" v:groupContext="shape" transform="translate(658.149,-386.275) rotate(30.9638)">
			<title>Single arrowhead</title>
			<path d="M10.61 840.64 L10.61 843.14 L13.12 841.89 L10.61 840.64 Z" class="st14"/>
			<path d="M10.61 840.64 L10.61 843.14 L13.12 841.89 L10.61 840.64" class="st5"/>
			<path d="M0 841.89 L10.61 841.89" class="st5"/>
		</g>
		<g id="shape32-96" v:mID="32" v:groupContext="shape" transform="translate(1084.89,335.64) rotate(90)">
			<title>Single arrowhead.32</title>
			<path d="M2.25 840.76 L2.25 843.01 L4.5 841.89 L2.25 840.76 Z" class="st14"/>
			<path d="M2.25 840.76 L2.25 843.01 L4.5 841.89 L2.25 840.76" class="st5"/>
			<path d="M0 841.89 L2.25 841.89" class="st5"/>
		</g>
		<g id="shape30-100" v:mID="30" v:groupContext="shape" transform="translate(637.505,1088.65) rotate(153.435)">
			<title>Single arrowhead.30</title>
			<path d="M10.07 840.64 L10.07 843.14 L12.58 841.89 L10.07 840.64 Z" class="st14"/>
			<path d="M10.07 840.64 L10.07 843.14 L12.58 841.89 L10.07 840.64" class="st5"/>
			<path d="M0 841.89 L10.07 841.89" class="st5"/>
		</g>
		<g id="shape31-104" v:mID="31" v:groupContext="shape" transform="translate(542.979,1134.33) rotate(161.565)">
			<title>Single arrowhead.31</title>
			<path d="M25.95 840.64 L25.95 843.14 L28.46 841.89 L25.95 840.64 Z" class="st14"/>
			<path d="M25.95 840.64 L25.95 843.14 L28.46 841.89 L25.95 840.64" class="st5"/>
			<path d="M0 841.89 L25.95 841.89" class="st5"/>
		</g>
		<g id="shape33-108" v:mID="33" v:groupContext="shape" transform="translate(228.938,-580.5)">
			<title>Sheet.33</title>
			<desc>&#60; i &#62;</desc>
			<v:textBlock v:margins="rect(4,4,4,4)" v:tabSpace="42.5197"/>
			<v:textRect cx="14.0625" cy="837.39" width="28.13" height="9"/>
			<rect x="0" y="832.89" width="28.125" height="9" class="st15"/>
			<text x="5.29" y="840.09" class="st2" v:langID="1051"><v:paragraph v:horizAlign="1"/><v:tabList/>&#60; i &#62;</text>		</g>
		<g id="shape34-111" v:mID="34" v:groupContext="shape" transform="translate(342,-490.5)">
			<title>Sheet.34</title>
			<desc>&#60; j &#62;</desc>
			<v:textBlock v:margins="rect(4,4,4,4)" v:tabSpace="42.5197"/>
			<v:textRect cx="14.625" cy="837.39" width="29.25" height="9"/>
			<rect x="0" y="832.89" width="29.25" height="9" class="st15"/>
			<text x="5.87" y="840.09" class="st2" v:langID="1051"><v:paragraph v:horizAlign="1"/><v:tabList/>&#60; j &#62;</text>		</g>
		<g id="shape35-114" v:mID="35" v:groupContext="shape" transform="translate(342,-459) scale(-1,1)">
			<title>Side brace.35</title>
			<desc>O(T2(n))</desc>
			<v:userDefs>
				<v:ud v:nameU="TxtW" v:val="VT0(0.55555555555556):29"/>
				<v:ud v:nameU="TxtA" v:val="VT0(-1.5707963267949):32"/>
				<v:ud v:nameU="TxtAState" v:val="VT0(0):26"/>
				<v:ud v:nameU="TxtWState" v:val="VT0(0):26"/>
				<v:ud v:nameU="MaxRadius" v:val="VT0(0.125):1"/>
				<v:ud v:nameU="PosCH1" v:prompt="Constrains X position of Control Handle #1" v:val="VT0(0):26"/>
				<v:ud v:nameU="PosCH2" v:prompt="Constrains Y position of Control Handle #2" v:val="VT0(0):26"/>
			</v:userDefs>
			<v:textBlock v:margins="rect(4,4,4,4)" v:tabSpace="42.5197"/>
			<v:textRect cx="99" cy="856.515" width="40" height="15.75"/>
			<path d="M0 832.89 L0 837.39 A4.49993 4.49993 -180 0 0 4.5 841.89 L94.5 841.89 A4.49993 4.49993 0 0 1 99 846.39 A4.49993
						 4.49993 0 0 1 103.5 841.89 L193.5 841.89 A4.49993 4.49993 -180 0 0 198 837.39 L198 832.89" class="st5"/>
			<text x="-113.55" y="858.91" transform="scale(-1,1)" class="st6" v:langID="1051"><v:paragraph v:horizAlign="1"/><v:tabList/>O(T<tspan
						dy="-0.235em" class="st7" v:baseFontSize="8">2</tspan><tspan dy="0.153em" class="st8">(</tspan>n))</text>		</g>
		<g id="shape36-120" v:mID="36" v:groupContext="shape" transform="translate(994.89,306.39) rotate(90)">
			<title>Sheet.36</title>
			<path d="M0 841.89 L63 841.89" class="st12"/>
		</g>
		<g id="shape37-123" v:mID="37" v:groupContext="shape" transform="translate(288,-504)">
			<title>Sheet.37</title>
			<desc>iba tieto 4 políčka mohli ovplyvniť akceptovanie</desc>
			<v:textBlock v:margins="rect(4,4,4,4)" v:tabSpace="42.5197"/>
			<v:textRect cx="38.25" cy="832.89" width="76.5" height="18"/>
			<rect x="0" y="823.89" width="76.5" height="18" class="st15"/>
			<text x="4" y="831.09" class="st16" v:langID="1051"><v:paragraph/><v:tabList/>iba tieto 4 políčka mohli <tspan x="4"
						dy="1.2em" class="st8">ovplyvniť akceptovanie</tspan></text>		</g>
		<g id="shape38-127" v:mID="38" v:groupContext="shape" transform="translate(252,-477)">
			<title>Sheet.38</title>
			<desc>v riadku &#60; j &#62; je akceptujúca konfigurácia</desc>
			<v:textBlock v:margins="rect(4,4,4,4)" v:tabSpace="42.5197"/>
			<v:textRect cx="40.5" cy="835.14" width="81" height="13.5"/>
			<rect x="0" y="828.39" width="81" height="13.5" class="st15"/>
			<text x="4" y="833.34" class="st16" v:langID="1051"><v:paragraph/><v:tabList/>v riadku <tspan class="st17">&#60; </tspan><tspan
						class="st17">j </tspan><tspan class="st17">&#62;</tspan> je <tspan x="4" dy="1.201em" class="st8">akceptujúca konfigurácia</tspan></text>		</g>
	</g>
</svg>
