<?xml version="1.0" encoding="UTF-8" standalone="no"?>
<!DOCTYPE svg PUBLIC "-//W3C//DTD SVG 1.0//EN" "http://www.w3.org/TR/2001/REC-SVG-20010904/DTD/svg10.dtd">
<!-- Generated by Microsoft Visio 11.0, SVG Export, v1.0 rychly.svg Page-1 -->
<svg xmlns="http://www.w3.org/2000/svg" xmlns:v="http://schemas.microsoft.com/visio/2003/SVGExtensions/" width="8.26772in"
		height="11.6929in" viewBox="0 0 595.276 841.89" xml:space="preserve" color-interpolation-filters="sRGB" class="st13">
	<title>apreww</title>
	<v:documentProperties v:langID="1051" v:metric="true" v:viewMarkup="false"/>

	<style type="text/css">
	<![CDATA[
		.st1 {fill:#ffffff;stroke:#000000;stroke-linecap:round;stroke-linejoin:round;stroke-width:0.24}
		.st2 {stroke:#000000;stroke-linecap:round;stroke-linejoin:round;stroke-width:0.24}
		.st3 {marker-start:url(#mrkr10-34);stroke:#000000;stroke-linecap:round;stroke-linejoin:round;stroke-width:0.24}
		.st4 {fill:#000000;fill-opacity:1;stroke:#000000;stroke-opacity:1;stroke-width:0.08695652173913}
		.st5 {fill:#000000;font-family:Arial;font-size:0.666664em;font-style:italic}
		.st6 {stroke:#000000;stroke-dasharray:1.68,1.2;stroke-linecap:round;stroke-linejoin:round;stroke-width:0.24}
		.st7 {fill:none;stroke:none;stroke-linecap:round;stroke-linejoin:round;stroke-width:0.72}
		.st8 {fill:#000000;font-family:Arial;font-size:1.00001em}
		.st9 {fill:#ffffff;stroke:#000000;stroke-linecap:round;stroke-linejoin:round;stroke-width:0.72}
		.st10 {stroke:#000000;stroke-linecap:round;stroke-linejoin:round;stroke-width:0.72}
		.st11 {fill:#000000;font-family:Arial;font-size:0.75em;font-style:italic}
		.st12 {fill:#000000;font-family:Arial;font-size:0.666664em}
		.st13 {fill:none;fill-rule:evenodd;font-size:12;overflow:visible;stroke-linecap:square;stroke-miterlimit:3}
	]]>
	</style>

	<defs id="Markers">
		<g id="lend10">
			<path
					d="M 0 0.75 C -0.414214 0.75 -0.75 0.414214 -0.75 0 -0.75 -0.414214 -0.414214 -0.75 0 -0.75 0.414214 -0.75 0.75 -0.414214 0.75 0 0.75 0.414214 0.414214 0.75 0 0.75 Z "
					style="stroke:none"/>
		</g>
		<marker id="mrkr10-34" class="st4" v:arrowType="10" v:arrowSize="2" v:setback="7.125" refX="7.125" orient="auto"
				markerUnits="strokeWidth">
			<use xlink:href="#lend10" transform="scale(11.5) "/>
		</marker>
	</defs>
	<g v:mID="0" v:index="1" v:groupContext="foregroundPage">
		<title>Page-1</title>
		<v:pageProperties v:drawingScale="1" v:pageScale="1" v:drawingUnits="19" v:shadowOffsetX="9" v:shadowOffsetY="-9"/>
		<g id="group33-1" transform="translate(270,-508.5)" v:mID="33" v:groupContext="group">
			<title>Sheet.33</title>
			<g id="shape23-2" v:mID="23" v:groupContext="shape" transform="translate(0,-13.5)">
				<title>Sheet.23</title>
				<rect x="0" y="823.89" width="144" height="18" class="st1"/>
			</g>
			<g id="shape24-4" v:mID="24" v:groupContext="shape" transform="translate(859.89,810.39) rotate(90)">
				<title>Sheet.24</title>
				<path d="M0 841.89 L18 841.89" class="st2"/>
			</g>
			<g id="shape25-7" v:mID="25" v:groupContext="shape" transform="translate(877.89,810.39) rotate(90)">
				<title>Sheet.25</title>
				<path d="M0 841.89 L18 841.89" class="st2"/>
			</g>
			<g id="shape26-10" v:mID="26" v:groupContext="shape" transform="translate(895.89,810.39) rotate(90)">
				<title>Sheet.26</title>
				<path d="M0 841.89 L18 841.89" class="st2"/>
			</g>
			<g id="shape27-13" v:mID="27" v:groupContext="shape" transform="translate(913.89,810.39) rotate(90)">
				<title>Sheet.27</title>
				<path d="M0 841.89 L18 841.89" class="st2"/>
			</g>
			<g id="shape28-16" v:mID="28" v:groupContext="shape" transform="translate(931.89,810.39) rotate(90)">
				<title>Sheet.28</title>
				<path d="M0 841.89 L18 841.89" class="st2"/>
			</g>
			<g id="shape29-19" v:mID="29" v:groupContext="shape" transform="translate(949.89,810.39) rotate(90)">
				<title>Sheet.29</title>
				<path d="M0 841.89 L18 841.89" class="st2"/>
			</g>
			<g id="shape30-22" v:mID="30" v:groupContext="shape" transform="translate(967.89,810.39) rotate(90)">
				<title>Sheet.30</title>
				<path d="M0 841.89 L18 841.89" class="st2"/>
			</g>
			<g id="group3-25" transform="translate(9,-31.5)" v:mID="3" v:groupContext="group">
				<title>Sheet.3</title>
				<g id="shape1-26" v:mID="1" v:groupContext="shape" transform="translate(-730.965,424.195) rotate(-60.2551)">
					<title>Sheet.1</title>
					<path d="M0 841.89 L18.14 841.89" class="st2"/>
				</g>
				<g id="shape2-29" v:mID="2" v:groupContext="shape" transform="translate(739.965,408.445) rotate(60.2551)">
					<title>Sheet.2</title>
					<path d="M1.71 841.89 L2.07 841.89 L18.14 841.89" class="st3"/>
				</g>
			</g>
			<g id="group4-35" transform="translate(81,-31.5)" v:mID="4" v:groupContext="group">
				<title>Sheet.4</title>
				<g id="shape5-36" v:mID="5" v:groupContext="shape" transform="translate(-730.965,424.195) rotate(-60.2551)">
					<title>Sheet.5</title>
					<path d="M0 841.89 L18.14 841.89" class="st2"/>
				</g>
				<g id="shape6-39" v:mID="6" v:groupContext="shape" transform="translate(739.965,408.445) rotate(60.2551)">
					<title>Sheet.6</title>
					<path d="M1.71 841.89 L2.07 841.89 L18.14 841.89" class="st3"/>
				</g>
			</g>
			<g id="group7-44" transform="translate(117,-31.5)" v:mID="7" v:groupContext="group">
				<title>Sheet.7</title>
				<g id="shape8-45" v:mID="8" v:groupContext="shape" transform="translate(-730.965,424.195) rotate(-60.2551)">
					<title>Sheet.8</title>
					<path d="M0 841.89 L18.14 841.89" class="st2"/>
				</g>
				<g id="shape9-48" v:mID="9" v:groupContext="shape" transform="translate(739.965,408.445) rotate(60.2551)">
					<title>Sheet.9</title>
					<path d="M1.71 841.89 L2.07 841.89 L18.14 841.89" class="st3"/>
				</g>
			</g>
			<g id="group10-53" transform="translate(45,-31.5)" v:mID="10" v:groupContext="group">
				<title>Sheet.10</title>
				<g id="shape11-54" v:mID="11" v:groupContext="shape" transform="translate(-730.965,424.195) rotate(-60.2551)">
					<title>Sheet.11</title>
					<path d="M0 841.89 L18.14 841.89" class="st2"/>
				</g>
				<g id="shape12-57" v:mID="12" v:groupContext="shape" transform="translate(739.965,408.445) rotate(60.2551)">
					<title>Sheet.12</title>
					<path d="M1.71 841.89 L2.07 841.89 L18.14 841.89" class="st3"/>
				</g>
			</g>
			<g id="group13-62" transform="translate(18,-47.25)" v:mID="13" v:groupContext="group">
				<title>Sheet.13</title>
				<g id="shape14-63" v:mID="14" v:groupContext="shape" transform="translate(-629.236,282.569) rotate(-48.3665)">
					<title>Sheet.14</title>
					<path d="M0 841.89 L27.09 841.89" class="st2"/>
				</g>
				<g id="shape15-66" v:mID="15" v:groupContext="shape" transform="translate(647.236,262.319) rotate(48.3665)">
					<title>Sheet.15</title>
					<path d="M1.71 841.89 L2.07 841.89 L27.09 841.89" class="st3"/>
				</g>
			</g>
			<g id="group16-71" transform="translate(90,-47.25)" v:mID="16" v:groupContext="group">
				<title>Sheet.16</title>
				<g id="shape17-72" v:mID="17" v:groupContext="shape" transform="translate(-629.236,282.569) rotate(-48.3665)">
					<title>Sheet.17</title>
					<path d="M0 841.89 L27.09 841.89" class="st2"/>
				</g>
				<g id="shape18-75" v:mID="18" v:groupContext="shape" transform="translate(647.236,262.319) rotate(48.3665)">
					<title>Sheet.18</title>
					<path d="M1.71 841.89 L2.07 841.89 L27.09 841.89" class="st3"/>
				</g>
			</g>
			<g id="group19-80" transform="translate(36,-67.5)" v:mID="19" v:groupContext="group">
				<title>Sheet.19</title>
				<g id="shape20-81" v:mID="20" v:groupContext="shape" transform="translate(-376.505,88.8807) rotate(-26.5651)">
					<title>Sheet.20</title>
					<path d="M0 841.89 L40.25 841.89" class="st2"/>
				</g>
				<g id="shape21-84" v:mID="21" v:groupContext="shape" transform="translate(412.505,70.8807) rotate(26.5651)">
					<title>Sheet.21</title>
					<path d="M1.71 841.89 L2.07 841.89 L40.25 841.89" class="st3"/>
				</g>
			</g>
			<g id="shape22-89" v:mID="22" v:groupContext="shape" transform="translate(-684.39,756.39) rotate(-90) scale(-1,1)">
				<title>Side brace</title>
				<desc>log n</desc>
				<v:userDefs>
					<v:ud v:nameU="TxtW" v:val="VT0(0.55555555555556):29"/>
					<v:ud v:nameU="TxtA" v:val="VT0(1.5707963267949):32"/>
					<v:ud v:nameU="TxtAState" v:val="VT0(0):26"/>
					<v:ud v:nameU="TxtWState" v:val="VT0(0):26"/>
					<v:ud v:nameU="MaxRadius" v:val="VT0(0.125):1"/>
					<v:ud v:nameU="PosCH1" v:prompt="Constrains X position of Control Handle #1" v:val="VT0(0):26"/>
					<v:ud v:nameU="PosCH2" v:prompt="Constrains Y position of Control Handle #2" v:val="VT0(0):26"/>
				</v:userDefs>
				<v:textBlock v:margins="rect(4,4,4,4)" v:tabSpace="42.5197"/>
				<v:textRect cx="27" cy="857.64" width="31.5" height="17.6036" transform="rotate(90)"/>
				<path d="M0 832.89 L0 837.39 A4.49993 4.49993 -180 0 0 4.5 841.89 L22.5 841.89 A4.49993 4.49993 0 0 1 27 846.39 A4.49993
							 4.49993 0 0 1 31.5 841.89 L49.5 841.89 A4.49993 4.49993 -180 0 0 54 837.39 L54 832.89" class="st2"/>
				<text x="848.97" y="29.4" transform="rotate(-90) scale(-1,1)" class="st5" v:langID="1051"><v:paragraph
							v:horizAlign="1"/><v:tabList/>log n</text>			</g>
			<g id="shape31-93" v:mID="31" v:groupContext="shape">
				<title>Side brace.31</title>
				<desc>n</desc>
				<v:userDefs>
					<v:ud v:nameU="TxtW" v:val="VT0(0.55555555555556):29"/>
					<v:ud v:nameU="TxtA" v:val="VT0(3.1415926535898):32"/>
					<v:ud v:nameU="TxtAState" v:val="VT0(1):26"/>
					<v:ud v:nameU="TxtWState" v:val="VT0(0):26"/>
					<v:ud v:nameU="MaxRadius" v:val="VT0(0.125):1"/>
					<v:ud v:nameU="PosCH1" v:prompt="Constrains X position of Control Handle #1" v:val="VT0(0):26"/>
					<v:ud v:nameU="PosCH2" v:prompt="Constrains Y position of Control Handle #2" v:val="VT0(0):26"/>
				</v:userDefs>
				<v:textBlock v:margins="rect(4,4,4,4)" v:tabSpace="42.5197"/>
				<v:textRect cx="72" cy="850.89" width="40" height="9"/>
				<path d="M0 832.89 L0 837.39 A4.49993 4.49993 -180 0 0 4.5 841.89 L67.5 841.89 A4.49993 4.49993 0 0 1 72 846.39 A4.49993
							 4.49993 0 0 1 76.5 841.89 L139.5 841.89 A4.49993 4.49993 -180 0 0 144 837.39 L144 832.89" class="st2"/>
				<text x="69.78" y="853.29" class="st5" v:langID="1051"><v:paragraph v:horizAlign="1"/><v:tabList/>n</text>			</g>
			<g id="shape32-97" v:mID="32" v:groupContext="shape" transform="translate(144,1598.28) rotate(180)">
				<title>Sheet.32</title>
				<path d="M0 841.89 L67.5 841.89" class="st6"/>
			</g>
		</g>
		<g id="shape37-100" v:mID="37" v:groupContext="shape" transform="translate(252,-522)">
			<title>Sheet.37</title>
			<desc>¢</desc>
			<v:textBlock v:margins="rect(4,4,4,4)" v:tabSpace="42.5197"/>
			<v:textRect cx="9" cy="832.89" width="18" height="18"/>
			<rect x="0" y="823.89" width="18" height="18" class="st7"/>
			<text x="5.66" y="836.49" class="st8" v:langID="1051"><v:paragraph v:horizAlign="1"/><v:tabList/>¢</text>		</g>
		<g id="shape38-103" v:mID="38" v:groupContext="shape" transform="translate(414,-522)">
			<title>Sheet.38</title>
			<desc>$</desc>
			<v:textBlock v:margins="rect(4,4,4,4)" v:tabSpace="42.5197"/>
			<v:textRect cx="9" cy="832.89" width="18" height="18"/>
			<rect x="0" y="823.89" width="18" height="18" class="st7"/>
			<text x="5.66" y="836.49" class="st8" v:langID="1051"><v:paragraph v:horizAlign="1"/><v:tabList/>$</text>		</g>
		<g id="group43-106" transform="translate(198,-562.5)" v:mID="43" v:groupContext="group">
			<title>Sheet.43</title>
			<g id="shape34-107" v:mID="34" v:groupContext="shape">
				<title>Sheet.34</title>
				<rect x="0" y="823.89" width="54" height="18" class="st9"/>
			</g>
			<g id="shape35-109" v:mID="35" v:groupContext="shape" transform="translate(-823.89,841.89) rotate(-90)">
				<title>Sheet.35</title>
				<path d="M0 841.89 L18 841.89" class="st10"/>
			</g>
			<g id="shape36-112" v:mID="36" v:groupContext="shape" transform="translate(-805.89,841.89) rotate(-90)">
				<title>Sheet.36</title>
				<path d="M0 841.89 L18 841.89" class="st10"/>
			</g>
			<g id="shape39-115" v:mID="39" v:groupContext="shape">
				<title>Sheet.39</title>
				<desc>1</desc>
				<v:textBlock v:margins="rect(4,4,4,4)" v:tabSpace="42.5197"/>
				<v:textRect cx="9" cy="832.89" width="18" height="18"/>
				<rect x="0" y="823.89" width="18" height="18" class="st7"/>
				<text x="5.66" y="836.49" class="st8" v:langID="1051"><v:paragraph v:horizAlign="1"/><v:tabList/>1</text>			</g>
			<g id="shape40-118" v:mID="40" v:groupContext="shape" transform="translate(18,0)">
				<title>Sheet.40</title>
				<desc>0</desc>
				<v:textBlock v:margins="rect(4,4,4,4)" v:tabSpace="42.5197"/>
				<v:textRect cx="9" cy="832.89" width="18" height="18"/>
				<rect x="0" y="823.89" width="18" height="18" class="st7"/>
				<text x="5.66" y="836.49" class="st8" v:langID="1051"><v:paragraph v:horizAlign="1"/><v:tabList/>0</text>			</g>
			<g id="shape41-121" v:mID="41" v:groupContext="shape" transform="translate(36,0)">
				<title>Sheet.41</title>
				<desc>1</desc>
				<v:textBlock v:margins="rect(4,4,4,4)" v:tabSpace="42.5197"/>
				<v:textRect cx="9" cy="832.89" width="18" height="18"/>
				<rect x="0" y="823.89" width="18" height="18" class="st7"/>
				<text x="5.66" y="836.49" class="st8" v:langID="1051"><v:paragraph v:horizAlign="1"/><v:tabList/>1</text>			</g>
			<g id="shape42-124" v:mID="42" v:groupContext="shape" transform="translate(0,-18)">
				<title>Sheet.42</title>
				<desc>register</desc>
				<v:textBlock v:margins="rect(4,4,4,4)" v:tabSpace="42.5197"/>
				<v:textRect cx="27" cy="835.14" width="54" height="13.5"/>
				<rect x="0" y="828.39" width="54" height="13.5" class="st7"/>
				<text x="11.99" y="837.84" class="st11" v:langID="1051"><v:paragraph v:horizAlign="1"/><v:tabList/>register</text>			</g>
		</g>
		<g id="shape44-127" v:mID="44" v:groupContext="shape" transform="translate(310.5,-580.5)">
			<title>Sheet.44</title>
			<desc>0</desc>
			<v:textBlock v:margins="rect(4,4,4,4)" v:tabSpace="42.5197"/>
			<v:textRect cx="9" cy="832.89" width="18" height="18"/>
			<rect x="0" y="823.89" width="18" height="18" class="st7"/>
			<text x="6.78" y="835.29" class="st12" v:langID="1051"><v:paragraph v:horizAlign="1"/><v:tabList/>0</text>		</g>
		<g id="shape45-130" v:mID="45" v:groupContext="shape" transform="translate(283.5,-560.25)">
			<title>Sheet.45</title>
			<desc>0</desc>
			<v:textBlock v:margins="rect(4,4,4,4)" v:tabSpace="42.5197"/>
			<v:textRect cx="9" cy="832.89" width="18" height="18"/>
			<rect x="0" y="823.89" width="18" height="18" class="st7"/>
			<text x="6.78" y="835.29" class="st12" v:langID="1051"><v:paragraph v:horizAlign="1"/><v:tabList/>0</text>		</g>
		<g id="shape46-133" v:mID="46" v:groupContext="shape" transform="translate(355.5,-560.25)">
			<title>Sheet.46</title>
			<desc>0</desc>
			<v:textBlock v:margins="rect(4,4,4,4)" v:tabSpace="42.5197"/>
			<v:textRect cx="9" cy="832.89" width="18" height="18"/>
			<rect x="0" y="823.89" width="18" height="18" class="st7"/>
			<text x="6.78" y="835.29" class="st12" v:langID="1051"><v:paragraph v:horizAlign="1"/><v:tabList/>0</text>		</g>
		<g id="shape47-136" v:mID="47" v:groupContext="shape" transform="translate(270,-540)">
			<title>Sheet.47</title>
			<desc>0</desc>
			<v:textBlock v:margins="rect(4,4,4,4)" v:tabSpace="42.5197"/>
			<v:textRect cx="9" cy="832.89" width="18" height="18"/>
			<rect x="0" y="823.89" width="18" height="18" class="st7"/>
			<text x="6.78" y="835.29" class="st12" v:langID="1051"><v:paragraph v:horizAlign="1"/><v:tabList/>0</text>		</g>
		<g id="shape48-139" v:mID="48" v:groupContext="shape" transform="translate(306,-540)">
			<title>Sheet.48</title>
			<desc>0</desc>
			<v:textBlock v:margins="rect(4,4,4,4)" v:tabSpace="42.5197"/>
			<v:textRect cx="9" cy="832.89" width="18" height="18"/>
			<rect x="0" y="823.89" width="18" height="18" class="st7"/>
			<text x="6.78" y="835.29" class="st12" v:langID="1051"><v:paragraph v:horizAlign="1"/><v:tabList/>0</text>		</g>
		<g id="shape49-142" v:mID="49" v:groupContext="shape" transform="translate(342,-540)">
			<title>Sheet.49</title>
			<desc>0</desc>
			<v:textBlock v:margins="rect(4,4,4,4)" v:tabSpace="42.5197"/>
			<v:textRect cx="9" cy="832.89" width="18" height="18"/>
			<rect x="0" y="823.89" width="18" height="18" class="st7"/>
			<text x="6.78" y="835.29" class="st12" v:langID="1051"><v:paragraph v:horizAlign="1"/><v:tabList/>0</text>		</g>
		<g id="shape50-145" v:mID="50" v:groupContext="shape" transform="translate(378,-540)">
			<title>Sheet.50</title>
			<desc>0</desc>
			<v:textBlock v:margins="rect(4,4,4,4)" v:tabSpace="42.5197"/>
			<v:textRect cx="9" cy="832.89" width="18" height="18"/>
			<rect x="0" y="823.89" width="18" height="18" class="st7"/>
			<text x="6.78" y="835.29" class="st12" v:langID="1051"><v:paragraph v:horizAlign="1"/><v:tabList/>0</text>		</g>
		<g id="shape51-148" v:mID="51" v:groupContext="shape" transform="translate(355.5,-580.5)">
			<title>Sheet.51</title>
			<desc>1</desc>
			<v:textBlock v:margins="rect(4,4,4,4)" v:tabSpace="42.5197"/>
			<v:textRect cx="9" cy="832.89" width="18" height="18"/>
			<rect x="0" y="823.89" width="18" height="18" class="st7"/>
			<text x="6.78" y="835.29" class="st12" v:langID="1051"><v:paragraph v:horizAlign="1"/><v:tabList/>1</text>		</g>
		<g id="shape52-151" v:mID="52" v:groupContext="shape" transform="translate(288,-540)">
			<title>Sheet.52</title>
			<desc>1</desc>
			<v:textBlock v:margins="rect(4,4,4,4)" v:tabSpace="42.5197"/>
			<v:textRect cx="9" cy="832.89" width="18" height="18"/>
			<rect x="0" y="823.89" width="18" height="18" class="st7"/>
			<text x="6.78" y="835.29" class="st12" v:langID="1051"><v:paragraph v:horizAlign="1"/><v:tabList/>1</text>		</g>
		<g id="shape53-154" v:mID="53" v:groupContext="shape" transform="translate(324,-540)">
			<title>Sheet.53</title>
			<desc>1</desc>
			<v:textBlock v:margins="rect(4,4,4,4)" v:tabSpace="42.5197"/>
			<v:textRect cx="9" cy="832.89" width="18" height="18"/>
			<rect x="0" y="823.89" width="18" height="18" class="st7"/>
			<text x="6.78" y="835.29" class="st12" v:langID="1051"><v:paragraph v:horizAlign="1"/><v:tabList/>1</text>		</g>
		<g id="shape54-157" v:mID="54" v:groupContext="shape" transform="translate(360,-540)">
			<title>Sheet.54</title>
			<desc>1</desc>
			<v:textBlock v:margins="rect(4,4,4,4)" v:tabSpace="42.5197"/>
			<v:textRect cx="9" cy="832.89" width="18" height="18"/>
			<rect x="0" y="823.89" width="18" height="18" class="st7"/>
			<text x="6.78" y="835.29" class="st12" v:langID="1051"><v:paragraph v:horizAlign="1"/><v:tabList/>1</text>		</g>
		<g id="shape55-160" v:mID="55" v:groupContext="shape" transform="translate(396,-540)">
			<title>Sheet.55</title>
			<desc>1</desc>
			<v:textBlock v:margins="rect(4,4,4,4)" v:tabSpace="42.5197"/>
			<v:textRect cx="9" cy="832.89" width="18" height="18"/>
			<rect x="0" y="823.89" width="18" height="18" class="st7"/>
			<text x="6.78" y="835.29" class="st12" v:langID="1051"><v:paragraph v:horizAlign="1"/><v:tabList/>1</text>		</g>
		<g id="shape56-163" v:mID="56" v:groupContext="shape" transform="translate(382.5,-560.25)">
			<title>Sheet.56</title>
			<desc>1</desc>
			<v:textBlock v:margins="rect(4,4,4,4)" v:tabSpace="42.5197"/>
			<v:textRect cx="9" cy="832.89" width="18" height="18"/>
			<rect x="0" y="823.89" width="18" height="18" class="st7"/>
			<text x="6.78" y="835.29" class="st12" v:langID="1051"><v:paragraph v:horizAlign="1"/><v:tabList/>1</text>		</g>
		<g id="shape57-166" v:mID="57" v:groupContext="shape" transform="translate(310.5,-560.25)">
			<title>Sheet.57</title>
			<desc>1</desc>
			<v:textBlock v:margins="rect(4,4,4,4)" v:tabSpace="42.5197"/>
			<v:textRect cx="9" cy="832.89" width="18" height="18"/>
			<rect x="0" y="823.89" width="18" height="18" class="st7"/>
			<text x="6.78" y="835.29" class="st12" v:langID="1051"><v:paragraph v:horizAlign="1"/><v:tabList/>1</text>		</g>
		<g id="shape58-169" v:mID="58" v:groupContext="shape" transform="translate(360,-522)">
			<title>Sheet.58</title>
			<desc>a</desc>
			<v:textBlock v:margins="rect(4,4,4,4)" v:tabSpace="42.5197"/>
			<v:textRect cx="9" cy="832.89" width="18" height="18"/>
			<rect x="0" y="823.89" width="18" height="18" class="st7"/>
			<text x="5.66" y="836.49" class="st8" v:langID="1051"><v:paragraph v:horizAlign="1"/><v:tabList/>a</text>		</g>
		<g id="shape59-172" v:mID="59" v:groupContext="shape" transform="translate(193.5,-540)">
			<title>Sheet.59</title>
			<desc>hodnota: a</desc>
			<v:textBlock v:margins="rect(4,4,4,4)" v:tabSpace="42.5197"/>
			<v:textRect cx="34.875" cy="832.89" width="69.75" height="18"/>
			<rect x="0" y="823.89" width="69.75" height="18" class="st7"/>
			<text x="4" y="836.49" class="st8" v:langID="1051"><v:paragraph/><v:tabList/>hodnota: a</text>		</g>
	</g>
</svg>
