<?xml version="1.0" encoding="UTF-8" standalone="no"?>
<!DOCTYPE svg PUBLIC "-//W3C//DTD SVG 1.0//EN" "http://www.w3.org/TR/2001/REC-SVG-20010904/DTD/svg10.dtd">
<!-- Generated by Microsoft Visio 11.0, SVG Export, v1.0 anbnc.svg Page-1 -->
<svg xmlns="http://www.w3.org/2000/svg" xmlns:v="http://schemas.microsoft.com/visio/2003/SVGExtensions/" width="8.26772in"
		height="11.6929in" viewBox="0 0 595.276 841.89" xml:space="preserve" color-interpolation-filters="sRGB" class="st11">
	<title>anbnc</title>
	<v:documentProperties v:langID="1051" v:metric="true" v:viewMarkup="false"/>

	<style type="text/css">
	<![CDATA[
		.st1 {marker-end:url(#mrkr10-10);marker-start:url(#mrkr10-8);stroke:#000000;stroke-linecap:round;stroke-linejoin:round;stroke-width:0.24}
		.st2 {fill:#000000;fill-opacity:1;stroke:#000000;stroke-opacity:1;stroke-width:0.08695652173913}
		.st3 {stroke:#000000;stroke-linecap:round;stroke-linejoin:round;stroke-width:0.24}
		.st4 {stroke:#000000;stroke-dasharray:0,6.48;stroke-linecap:round;stroke-linejoin:round;stroke-width:0.72}
		.st5 {fill:none;stroke:none;stroke-linecap:round;stroke-linejoin:round;stroke-width:0.24}
		.st6 {fill:#000000;font-family:Arial;font-size:1.00001em}
		.st7 {fill:#000000;font-family:Arial;font-size:0.75em;font-style:italic}
		.st8 {baseline-shift:-32.4951%;font-size:0.649902em}
		.st9 {fill:#000000;font-family:Arial;font-size:0.75em}
		.st10 {fill:none;stroke:none;stroke-linecap:round;stroke-linejoin:round;stroke-width:0.72}
		.st11 {fill:none;fill-rule:evenodd;font-size:12;overflow:visible;stroke-linecap:square;stroke-miterlimit:3}
	]]>
	</style>

	<defs id="Markers">
		<g id="lend10">
			<path
					d="M 0 0.75 C -0.414214 0.75 -0.75 0.414214 -0.75 0 -0.75 -0.414214 -0.414214 -0.75 0 -0.75 0.414214 -0.75 0.75 -0.414214 0.75 0 0.75 0.414214 0.414214 0.75 0 0.75 Z "
					style="stroke:none"/>
		</g>
		<marker id="mrkr10-8" class="st2" v:arrowType="10" v:arrowSize="2" v:setback="7.125" refX="7.125" orient="auto"
				markerUnits="strokeWidth">
			<use xlink:href="#lend10" transform="scale(11.5) "/>
		</marker>
		<marker id="mrkr10-10" class="st2" v:arrowType="10" v:arrowSize="2" v:setback="8.625" refX="-8.625" orient="auto"
				markerUnits="strokeWidth">
			<use xlink:href="#lend10" transform="scale(-11.5,-11.5) "/>
		</marker>
	</defs>
	<g v:mID="0" v:index="1" v:groupContext="foregroundPage">
		<title>Page-1</title>
		<v:pageProperties v:drawingScale="1" v:pageScale="1" v:drawingUnits="19" v:shadowOffsetX="9" v:shadowOffsetY="-9"/>
		<g id="group48-1" transform="translate(144,-369)" v:mID="48" v:groupContext="group">
			<title>Sheet.48</title>
			<g id="shape1-2" v:mID="1" v:groupContext="shape" transform="translate(-550.306,93.5838) rotate(-45)">
				<title>Sheet.1</title>
				<path d="M1.71 841.89 L2.07 841.89 L48.84 841.89" class="st1"/>
			</g>
			<g id="shape2-11" v:mID="2" v:groupContext="shape" transform="translate(-478.306,1284.2) rotate(-135)">
				<title>Sheet.2</title>
				<path d="M0 841.89 L50.91 841.89" class="st3"/>
			</g>
			<g id="shape3-14" v:mID="3" v:groupContext="shape" transform="translate(886.89,688.89) rotate(90)">
				<title>Sheet.3</title>
				<path d="M0 841.89 L54 841.89" class="st4"/>
			</g>
			<g id="shape4-17" v:mID="4" v:groupContext="shape" transform="translate(958.89,796.89) rotate(90)">
				<title>Sheet.4</title>
				<path d="M0 841.89 L27 841.89" class="st4"/>
			</g>
			<g id="shape5-20" v:mID="5" v:groupContext="shape" transform="translate(958.89,688.89) rotate(90)">
				<title>Sheet.5</title>
				<path d="M1.71 841.89 L2.07 841.89 L15.93 841.89" class="st1"/>
			</g>
			<g id="shape7-27" v:mID="7" v:groupContext="shape" transform="translate(958.89,706.89) rotate(90)">
				<title>Sheet.7</title>
				<path d="M1.71 841.89 L2.07 841.89 L15.93 841.89" class="st1"/>
			</g>
			<g id="shape6-34" v:mID="6" v:groupContext="shape" transform="translate(958.89,724.89) rotate(90)">
				<title>Sheet.6</title>
				<path d="M1.71 841.89 L2.07 841.89 L15.93 841.89" class="st1"/>
			</g>
			<g id="shape8-41" v:mID="8" v:groupContext="shape" transform="translate(886.89,742.89) rotate(90)">
				<title>Sheet.8</title>
				<path d="M1.71 841.89 L2.07 841.89 L15.93 841.89" class="st1"/>
			</g>
			<g id="shape9-48" v:mID="9" v:groupContext="shape" transform="translate(886.89,760.89) rotate(90)">
				<title>Sheet.9</title>
				<path d="M1.71 841.89 L2.07 841.89 L15.93 841.89" class="st1"/>
			</g>
			<g id="shape10-55" v:mID="10" v:groupContext="shape" transform="translate(886.89,778.89) rotate(90)">
				<title>Sheet.10</title>
				<path d="M1.71 841.89 L2.07 841.89 L15.93 841.89" class="st1"/>
			</g>
			<g id="shape11-62" v:mID="11" v:groupContext="shape" transform="translate(421.505,1576.9) rotate(153.435)">
				<title>Sheet.11</title>
				<path d="M1.71 841.89 L2.07 841.89 L18.05 841.89" class="st1"/>
			</g>
			<g id="shape12-69" v:mID="12" v:groupContext="shape" transform="translate(493.505,70.8807) rotate(26.5651)">
				<title>Sheet.12</title>
				<path d="M1.71 841.89 L2.07 841.89 L18.05 841.89" class="st1"/>
			</g>
			<g id="shape13-76" v:mID="13" v:groupContext="shape" transform="translate(72,-162)">
				<title>Sheet.13</title>
				<desc></desc>
				<v:textBlock v:margins="rect(4,4,4,4)" v:tabSpace="42.5197"/>
				<v:textRect cx="9" cy="828.39" width="18" height="27"/>
				<rect x="0" y="814.89" width="18" height="27" class="st5"/>
				<text x="0.75em" y="831.99" class="st6" v:langID="1051"><v:paragraph v:horizAlign="1"/><v:tabList/></text>			</g>
			<g id="shape14-79" v:mID="14" v:groupContext="shape" transform="translate(63,-189)">
				<title>Sheet.14</title>
				<desc>q0</desc>
				<v:textBlock v:margins="rect(4,4,4,4)" v:tabSpace="42.5197"/>
				<v:textRect cx="18" cy="832.89" width="36" height="18"/>
				<rect x="0" y="823.89" width="36" height="18" class="st5"/>
				<text x="13.87" y="835.59" class="st7" v:langID="1051"><v:paragraph v:horizAlign="1"/><v:tabList/>q<tspan
							dy="-0.287em" class="st8" v:baseFontSize="9">0</tspan></text>			</g>
			<g id="shape15-83" v:mID="15" v:groupContext="shape" transform="translate(27,-117)">
				<title>Sheet.15</title>
				<desc>a</desc>
				<v:textBlock v:margins="rect(4,4,4,4)" v:tabSpace="42.5197"/>
				<v:textRect cx="9" cy="832.89" width="18" height="18"/>
				<rect x="0" y="823.89" width="18" height="18" class="st5"/>
				<text x="6.5" y="835.59" class="st9" v:langID="1051"><v:paragraph v:horizAlign="1"/><v:tabList/>a</text>			</g>
			<g id="shape16-86" v:mID="16" v:groupContext="shape" transform="translate(27,-63)">
				<title>Sheet.16</title>
				<desc>b</desc>
				<v:textBlock v:margins="rect(4,4,4,4)" v:tabSpace="42.5197"/>
				<v:textRect cx="9" cy="832.89" width="18" height="18"/>
				<rect x="0" y="823.89" width="18" height="18" class="st5"/>
				<text x="6.5" y="835.59" class="st9" v:langID="1051"><v:paragraph v:horizAlign="1"/><v:tabList/>b</text>			</g>
			<g id="shape17-89" v:mID="17" v:groupContext="shape" transform="translate(27,-45)">
				<title>Sheet.17</title>
				<desc>b</desc>
				<v:textBlock v:margins="rect(4,4,4,4)" v:tabSpace="42.5197"/>
				<v:textRect cx="9" cy="832.89" width="18" height="18"/>
				<rect x="0" y="823.89" width="18" height="18" class="st5"/>
				<text x="6.5" y="835.59" class="st9" v:langID="1051"><v:paragraph v:horizAlign="1"/><v:tabList/>b</text>			</g>
			<g id="shape18-92" v:mID="18" v:groupContext="shape" transform="translate(27,-81)">
				<title>Sheet.18</title>
				<desc>b</desc>
				<v:textBlock v:margins="rect(4,4,4,4)" v:tabSpace="42.5197"/>
				<v:textRect cx="9" cy="832.89" width="18" height="18"/>
				<rect x="0" y="823.89" width="18" height="18" class="st5"/>
				<text x="6.5" y="835.59" class="st9" v:langID="1051"><v:paragraph v:horizAlign="1"/><v:tabList/>b</text>			</g>
			<g id="shape19-95" v:mID="19" v:groupContext="shape" transform="translate(886.89,796.89) rotate(90)">
				<title>Sheet.19</title>
				<path d="M0 841.89 L27 841.89" class="st4"/>
			</g>
			<g id="shape20-98" v:mID="20" v:groupContext="shape" transform="translate(117,-135)">
				<title>Sheet.20</title>
				<desc>a</desc>
				<v:textBlock v:margins="rect(4,4,4,4)" v:tabSpace="42.5197"/>
				<v:textRect cx="9" cy="832.89" width="18" height="18"/>
				<rect x="0" y="823.89" width="18" height="18" class="st5"/>
				<text x="6.5" y="835.59" class="st9" v:langID="1051"><v:paragraph v:horizAlign="1"/><v:tabList/>a</text>			</g>
			<g id="shape21-101" v:mID="21" v:groupContext="shape" transform="translate(117,-99)">
				<title>Sheet.21</title>
				<desc>a</desc>
				<v:textBlock v:margins="rect(4,4,4,4)" v:tabSpace="42.5197"/>
				<v:textRect cx="9" cy="832.89" width="18" height="18"/>
				<rect x="0" y="823.89" width="18" height="18" class="st5"/>
				<text x="6.5" y="835.59" class="st9" v:langID="1051"><v:paragraph v:horizAlign="1"/><v:tabList/>a</text>			</g>
			<g id="shape22-104" v:mID="22" v:groupContext="shape" transform="translate(117,-117)">
				<title>Sheet.22</title>
				<desc>a</desc>
				<v:textBlock v:margins="rect(4,4,4,4)" v:tabSpace="42.5197"/>
				<v:textRect cx="9" cy="832.89" width="18" height="18"/>
				<rect x="0" y="823.89" width="18" height="18" class="st5"/>
				<text x="6.5" y="835.59" class="st9" v:langID="1051"><v:paragraph v:horizAlign="1"/><v:tabList/>a</text>			</g>
			<g id="shape23-107" v:mID="23" v:groupContext="shape" transform="translate(114.75,0)">
				<title>Sheet.23</title>
				<desc>c</desc>
				<v:textBlock v:margins="rect(4,4,4,4)" v:tabSpace="42.5197"/>
				<v:textRect cx="9" cy="832.89" width="18" height="18"/>
				<rect x="0" y="823.89" width="18" height="18" class="st5"/>
				<text x="6.75" y="835.59" class="st9" v:langID="1051"><v:paragraph v:horizAlign="1"/><v:tabList/>c</text>			</g>
			<g id="shape24-110" v:mID="24" v:groupContext="shape" transform="translate(29.25,0)">
				<title>Sheet.24</title>
				<desc>c</desc>
				<v:textBlock v:margins="rect(4,4,4,4)" v:tabSpace="42.5197"/>
				<v:textRect cx="9" cy="832.89" width="18" height="18"/>
				<rect x="0" y="823.89" width="18" height="18" class="st5"/>
				<text x="6.75" y="835.59" class="st9" v:langID="1051"><v:paragraph v:horizAlign="1"/><v:tabList/>c</text>			</g>
			<g id="shape26-113" v:mID="26" v:groupContext="shape" transform="translate(85.5,-108)">
				<title>Sheet.26</title>
				<desc>(q,1)</desc>
				<v:textBlock v:margins="rect(4,4,4,4)" v:tabSpace="42.5197"/>
				<v:textRect cx="18" cy="832.89" width="36" height="18"/>
				<rect x="0" y="823.89" width="36" height="18" class="st10"/>
				<text x="8.75" y="835.59" class="st7" v:langID="1051"><v:paragraph v:horizAlign="1"/><v:tabList/>(q,1)</text>			</g>
			<g id="shape27-116" v:mID="27" v:groupContext="shape" transform="translate(85.5,-126)">
				<title>Sheet.27</title>
				<desc>(q,1)</desc>
				<v:textBlock v:margins="rect(4,4,4,4)" v:tabSpace="42.5197"/>
				<v:textRect cx="18" cy="832.89" width="36" height="18"/>
				<rect x="0" y="823.89" width="36" height="18" class="st10"/>
				<text x="8.75" y="835.59" class="st7" v:langID="1051"><v:paragraph v:horizAlign="1"/><v:tabList/>(q,1)</text>			</g>
			<g id="shape28-119" v:mID="28" v:groupContext="shape" transform="translate(40.5,-36)">
				<title>Sheet.28</title>
				<desc>(q,1)</desc>
				<v:textBlock v:margins="rect(4,4,4,4)" v:tabSpace="42.5197"/>
				<v:textRect cx="18" cy="832.89" width="36" height="18"/>
				<rect x="0" y="823.89" width="36" height="18" class="st10"/>
				<text x="8.75" y="835.59" class="st7" v:langID="1051"><v:paragraph v:horizAlign="1"/><v:tabList/>(q,1)</text>			</g>
			<g id="shape29-122" v:mID="29" v:groupContext="shape" transform="translate(40.5,-54)">
				<title>Sheet.29</title>
				<desc>(q,1)</desc>
				<v:textBlock v:margins="rect(4,4,4,4)" v:tabSpace="42.5197"/>
				<v:textRect cx="18" cy="832.89" width="36" height="18"/>
				<rect x="0" y="823.89" width="36" height="18" class="st10"/>
				<text x="8.75" y="835.59" class="st7" v:langID="1051"><v:paragraph v:horizAlign="1"/><v:tabList/>(q,1)</text>			</g>
			<g id="shape30-125" v:mID="30" v:groupContext="shape" transform="translate(40.5,-72)">
				<title>Sheet.30</title>
				<desc>(q,1)</desc>
				<v:textBlock v:margins="rect(4,4,4,4)" v:tabSpace="42.5197"/>
				<v:textRect cx="18" cy="832.89" width="36" height="18"/>
				<rect x="0" y="823.89" width="36" height="18" class="st10"/>
				<text x="8.75" y="835.59" class="st7" v:langID="1051"><v:paragraph v:horizAlign="1"/><v:tabList/>(q,1)</text>			</g>
			<g id="shape32-128" v:mID="32" v:groupContext="shape" transform="translate(85.5,-90)">
				<title>Sheet.32</title>
				<desc>(q,1)</desc>
				<v:textBlock v:margins="rect(4,4,4,4)" v:tabSpace="42.5197"/>
				<v:textRect cx="18" cy="832.89" width="36" height="18"/>
				<rect x="0" y="823.89" width="36" height="18" class="st10"/>
				<text x="8.75" y="835.59" class="st7" v:langID="1051"><v:paragraph v:horizAlign="1"/><v:tabList/>(q,1)</text>			</g>
			<g id="shape31-131" v:mID="31" v:groupContext="shape" transform="translate(40.5,-90)">
				<title>Sheet.31</title>
				<desc>q1</desc>
				<v:textBlock v:margins="rect(4,4,4,4)" v:tabSpace="42.5197"/>
				<v:textRect cx="18" cy="832.89" width="36" height="18"/>
				<rect x="0" y="823.89" width="36" height="18" class="st5"/>
				<text x="13.87" y="835.59" class="st7" v:langID="1051"><v:paragraph v:horizAlign="1"/><v:tabList/>q<tspan
							dy="-0.287em" class="st8" v:baseFontSize="9">1</tspan></text>			</g>
			<g id="shape25-135" v:mID="25" v:groupContext="shape" transform="translate(40.5,-144)">
				<title>Sheet.25</title>
				<desc>q1</desc>
				<v:textBlock v:margins="rect(4,4,4,4)" v:tabSpace="42.5197"/>
				<v:textRect cx="18" cy="832.89" width="36" height="18"/>
				<rect x="0" y="823.89" width="36" height="18" class="st5"/>
				<text x="13.87" y="835.59" class="st7" v:langID="1051"><v:paragraph v:horizAlign="1"/><v:tabList/>q<tspan
							dy="-0.287em" class="st8" v:baseFontSize="9">1</tspan></text>			</g>
			<g id="shape33-139" v:mID="33" v:groupContext="shape" transform="translate(85.5,-144)">
				<title>Sheet.33</title>
				<desc>q2</desc>
				<v:textBlock v:margins="rect(4,4,4,4)" v:tabSpace="42.5197"/>
				<v:textRect cx="18" cy="832.89" width="36" height="18"/>
				<rect x="0" y="823.89" width="36" height="18" class="st5"/>
				<text x="13.87" y="835.59" class="st7" v:langID="1051"><v:paragraph v:horizAlign="1"/><v:tabList/>q<tspan
							dy="-0.287em" class="st8" v:baseFontSize="9">2</tspan></text>			</g>
			<g id="shape34-143" v:mID="34" v:groupContext="shape" transform="translate(90,-162)">
				<title>Sheet.34</title>
				<desc></desc>
				<v:textBlock v:margins="rect(4,4,4,4)" v:tabSpace="42.5197"/>
				<v:textRect cx="18" cy="832.89" width="36" height="18"/>
				<rect x="0" y="823.89" width="36" height="18" class="st10"/>
				<text x="13.5" y="836.49" class="st6" v:langID="1051"><v:paragraph v:horizAlign="1"/><v:tabList/></text>			</g>
			<g id="shape35-146" v:mID="35" v:groupContext="shape" transform="translate(36,-162)">
				<title>Sheet.35</title>
				<desc></desc>
				<v:textBlock v:margins="rect(4,4,4,4)" v:tabSpace="42.5197"/>
				<v:textRect cx="18" cy="832.89" width="36" height="18"/>
				<rect x="0" y="823.89" width="36" height="18" class="st10"/>
				<text x="13.5" y="836.49" class="st6" v:langID="1051"><v:paragraph v:horizAlign="1"/><v:tabList/></text>			</g>
			<g id="shape36-149" v:mID="36" v:groupContext="shape">
				<title>Sheet.36</title>
				<desc>qF</desc>
				<v:textBlock v:margins="rect(4,4,4,4)" v:tabSpace="42.5197"/>
				<v:textRect cx="18" cy="832.89" width="36" height="18"/>
				<rect x="0" y="823.89" width="36" height="18" class="st5"/>
				<text x="13.71" y="835.59" class="st7" v:langID="1051"><v:paragraph v:horizAlign="1"/><v:tabList/>q<tspan
							dy="-0.287em" class="st8" v:baseFontSize="9">F</tspan></text>			</g>
			<g id="shape37-153" v:mID="37" v:groupContext="shape" transform="translate(126,0)">
				<title>Sheet.37</title>
				<desc>qF</desc>
				<v:textBlock v:margins="rect(4,4,4,4)" v:tabSpace="42.5197"/>
				<v:textRect cx="18" cy="832.89" width="36" height="18"/>
				<rect x="0" y="823.89" width="36" height="18" class="st5"/>
				<text x="13.71" y="835.59" class="st7" v:langID="1051"><v:paragraph v:horizAlign="1"/><v:tabList/>q<tspan
							dy="-0.287em" class="st8" v:baseFontSize="9">F</tspan></text>			</g>
			<g id="shape38-157" v:mID="38" v:groupContext="shape" transform="translate(117,-22.5)">
				<title>Sheet.38</title>
				<desc>b</desc>
				<v:textBlock v:margins="rect(4,4,4,4)" v:tabSpace="42.5197"/>
				<v:textRect cx="9" cy="832.89" width="18" height="18"/>
				<rect x="0" y="823.89" width="18" height="18" class="st5"/>
				<text x="6.5" y="835.59" class="st9" v:langID="1051"><v:paragraph v:horizAlign="1"/><v:tabList/>b</text>			</g>
			<g id="shape42-160" v:mID="42" v:groupContext="shape" transform="translate(85.5,-9)">
				<title>Sheet.42</title>
				<desc>q3</desc>
				<v:textBlock v:margins="rect(4,4,4,4)" v:tabSpace="42.5197"/>
				<v:textRect cx="18" cy="832.89" width="36" height="18"/>
				<rect x="0" y="823.89" width="36" height="18" class="st5"/>
				<text x="13.87" y="835.59" class="st7" v:langID="1051"><v:paragraph v:horizAlign="1"/><v:tabList/>q<tspan
							dy="-0.287em" class="st8" v:baseFontSize="9">3</tspan></text>			</g>
			<g id="shape43-164" v:mID="43" v:groupContext="shape" transform="translate(40.5,-9)">
				<title>Sheet.43</title>
				<desc>(q,1)</desc>
				<v:textBlock v:margins="rect(4,4,4,4)" v:tabSpace="42.5197"/>
				<v:textRect cx="18" cy="832.89" width="36" height="18"/>
				<rect x="0" y="823.89" width="36" height="18" class="st10"/>
				<text x="8.75" y="835.59" class="st7" v:langID="1051"><v:paragraph v:horizAlign="1"/><v:tabList/>(q,1)</text>			</g>
			<g id="group44-167" transform="translate(85.5,-36)" v:mID="44" v:groupContext="group">
				<title>Sheet.44</title>
				<g id="shape39-168" v:mID="39" v:groupContext="shape" transform="translate(873.39,814.89) rotate(90)">
					<title>Sheet.39</title>
					<path d="M1.71 841.89 L2.07 841.89 L15.93 841.89" class="st1"/>
				</g>
				<g id="shape40-175" v:mID="40" v:groupContext="shape" transform="translate(31.5,-9)">
					<title>Sheet.40</title>
					<desc>b</desc>
					<v:textBlock v:margins="rect(4,4,4,4)" v:tabSpace="42.5197"/>
					<v:textRect cx="9" cy="832.89" width="18" height="18"/>
					<rect x="0" y="823.89" width="18" height="18" class="st5"/>
					<text x="6.5" y="835.59" class="st9" v:langID="1051"><v:paragraph v:horizAlign="1"/><v:tabList/>b</text>				</g>
				<g id="shape41-178" v:mID="41" v:groupContext="shape">
					<title>Sheet.41</title>
					<desc>q3</desc>
					<v:textBlock v:margins="rect(4,4,4,4)" v:tabSpace="42.5197"/>
					<v:textRect cx="18" cy="832.89" width="36" height="18"/>
					<rect x="0" y="823.89" width="36" height="18" class="st5"/>
					<text x="13.87" y="835.59" class="st7" v:langID="1051"><v:paragraph v:horizAlign="1"/><v:tabList/>q<tspan
								dy="-0.287em" class="st8" v:baseFontSize="9">3</tspan></text>				</g>
			</g>
			<g id="shape45-182" v:mID="45" v:groupContext="shape" transform="translate(958.89,742.89) rotate(90)">
				<title>Sheet.45</title>
				<path d="M0 841.89 L36 841.89" class="st4"/>
			</g>
			<g id="shape46-185" v:mID="46" v:groupContext="shape" transform="translate(85.5,-54)">
				<title>Sheet.46</title>
				<desc>(q,1)</desc>
				<v:textBlock v:margins="rect(4,4,4,4)" v:tabSpace="42.5197"/>
				<v:textRect cx="18" cy="832.89" width="36" height="18"/>
				<rect x="0" y="823.89" width="36" height="18" class="st10"/>
				<text x="8.75" y="835.59" class="st7" v:langID="1051"><v:paragraph v:horizAlign="1"/><v:tabList/>(q,1)</text>			</g>
			<g id="shape47-188" v:mID="47" v:groupContext="shape" transform="translate(117,-72)">
				<title>Sheet.47</title>
				<desc>a</desc>
				<v:textBlock v:margins="rect(4,4,4,4)" v:tabSpace="42.5197"/>
				<v:textRect cx="9" cy="832.89" width="18" height="18"/>
				<rect x="0" y="823.89" width="18" height="18" class="st5"/>
				<text x="6.5" y="835.59" class="st9" v:langID="1051"><v:paragraph v:horizAlign="1"/><v:tabList/>a</text>			</g>
		</g>
	</g>
</svg>
