<?xml version="1.0" encoding="UTF-8" standalone="no"?>
<!DOCTYPE svg PUBLIC "-//W3C//DTD SVG 1.0//EN" "http://www.w3.org/TR/2001/REC-SVG-20010904/DTD/svg10.dtd">
<!-- Generated by Microsoft Visio 11.0, SVG Export, v1.0 apreww.svg Page-1 -->
<svg xmlns="http://www.w3.org/2000/svg" xmlns:v="http://schemas.microsoft.com/visio/2003/SVGExtensions/" width="8.26772in"
		height="11.6929in" viewBox="0 0 595.276 841.89" xml:space="preserve" color-interpolation-filters="sRGB" class="st12">
	<title>apreww</title>
	<v:documentProperties v:langID="1051" v:metric="true" v:viewMarkup="false"/>

	<style type="text/css">
	<![CDATA[
		.st1 {stroke:#000000;stroke-linecap:round;stroke-linejoin:round;stroke-width:0.24}
		.st2 {stroke:#000000;stroke-dasharray:1.68,1.2;stroke-linecap:round;stroke-linejoin:round;stroke-width:0.24}
		.st3 {fill:none;stroke:none;stroke-linecap:round;stroke-linejoin:round;stroke-width:0.24}
		.st4 {fill:#000000;font-family:Arial;font-size:1.00001em}
		.st5 {fill:#000000;font-family:Arial;font-size:0.75em;font-style:italic}
		.st6 {baseline-shift:-32.4951%;font-size:0.649902em}
		.st7 {fill:none;stroke:#000000;stroke-dasharray:1.68,1.2;stroke-linecap:round;stroke-linejoin:round;stroke-width:0.24}
		.st8 {fill:#000000;font-family:Arial;font-size:0.75em}
		.st9 {marker-end:url(#mrkr4-205);stroke:#000000;stroke-linecap:round;stroke-linejoin:round;stroke-width:0.24}
		.st10 {fill:#000000;fill-opacity:1;stroke:#000000;stroke-opacity:1;stroke-width:0.08695652173913}
		.st11 {font-size:1em}
		.st12 {fill:none;fill-rule:evenodd;font-size:12;overflow:visible;stroke-linecap:square;stroke-miterlimit:3}
	]]>
	</style>

	<defs id="Markers">
		<g id="lend4">
			<path d="M 2 1 L 0 0 L 2 -1 L 2 1 " style="stroke:none"/>
		</g>
		<marker id="mrkr4-205" class="st10" v:arrowType="4" v:arrowSize="2" v:setback="23" refX="-23" orient="auto"
				markerUnits="strokeWidth">
			<use xlink:href="#lend4" transform="scale(-11.5,-11.5) "/>
		</marker>
	</defs>
	<g v:mID="0" v:index="1" v:groupContext="foregroundPage">
		<title>Page-1</title>
		<v:pageProperties v:drawingScale="1" v:pageScale="1" v:drawingUnits="19" v:shadowOffsetX="9" v:shadowOffsetY="-9"/>
		<g id="group75-1" transform="translate(36,-288)" v:mID="75" v:groupContext="group">
			<title>Sheet.75</title>
			<g id="group30-2" transform="translate(36,0)" v:mID="30" v:groupContext="group">
				<title>Sheet.30</title>
				<g id="shape1-3" v:mID="1" v:groupContext="shape" transform="translate(690.73,1193.35) rotate(132.699)">
					<title>Sheet.1</title>
					<path d="M0 841.89 L79.63 841.89" class="st1"/>
				</g>
				<g id="shape2-6" v:mID="2" v:groupContext="shape" transform="translate(-519.73,1222.61) rotate(-132.699)">
					<title>Sheet.2</title>
					<path d="M0 841.89 L39.81 841.89" class="st1"/>
				</g>
				<g id="shape9-9" v:mID="9" v:groupContext="shape" transform="translate(717.73,1222.61) rotate(132.699)">
					<title>Sheet.9</title>
					<path d="M0 841.89 L59.72 841.89" class="st1"/>
				</g>
				<g id="group10-12" transform="translate(0,-117.044)" v:mID="10" v:groupContext="group">
					<title>Sheet.10</title>
					<g id="shape5-13" v:mID="5" v:groupContext="shape" transform="translate(668.941,1331.9) rotate(129.359)">
						<title>Sheet.5</title>
						<path d="M0 841.89 L28.38 841.89" class="st1"/>
					</g>
					<g id="shape6-16" v:mID="6" v:groupContext="shape" transform="translate(-614.941,1353.85) rotate(-129.359)">
						<title>Sheet.6</title>
						<path d="M0 841.89 L28.38 841.89" class="st1"/>
					</g>
					<g id="shape7-19" v:mID="7" v:groupContext="shape" transform="translate(841.89,823.602) rotate(90)">
						<title>Sheet.7</title>
						<path d="M0 841.89 L18.29 841.89" class="st2"/>
					</g>
					<g id="shape8-22" v:mID="8" v:groupContext="shape" transform="translate(877.89,823.602) rotate(90)">
						<title>Sheet.8</title>
						<path d="M0 841.89 L18.29 841.89" class="st2"/>
					</g>
				</g>
				<g id="group11-25" transform="translate(40.5,-102.413)" v:mID="11" v:groupContext="group">
					<title>Sheet.11</title>
					<g id="shape12-26" v:mID="12" v:groupContext="shape" transform="translate(668.941,1331.9) rotate(129.359)">
						<title>Sheet.12</title>
						<path d="M0 841.89 L28.38 841.89" class="st1"/>
					</g>
					<g id="shape13-29" v:mID="13" v:groupContext="shape" transform="translate(-614.941,1353.85) rotate(-129.359)">
						<title>Sheet.13</title>
						<path d="M0 841.89 L28.38 841.89" class="st1"/>
					</g>
					<g id="shape14-32" v:mID="14" v:groupContext="shape" transform="translate(841.89,823.602) rotate(90)">
						<title>Sheet.14</title>
						<path d="M0 841.89 L18.29 841.89" class="st2"/>
					</g>
					<g id="shape15-35" v:mID="15" v:groupContext="shape" transform="translate(877.89,823.602) rotate(90)">
						<title>Sheet.15</title>
						<path d="M0 841.89 L18.29 841.89" class="st2"/>
					</g>
				</g>
				<g id="shape28-38" v:mID="28" v:groupContext="shape" transform="translate(771.73,139.294) rotate(47.3013)">
					<title>Sheet.28</title>
					<path d="M0 841.89 L79.63 841.89" class="st2"/>
				</g>
				<g id="group29-41" transform="translate(81,-73.1525)" v:mID="29" v:groupContext="group">
					<title>Sheet.29</title>
					<g id="shape3-42" v:mID="3" v:groupContext="shape" transform="translate(-573.73,1325.03) rotate(-132.699)">
						<title>Sheet.3</title>
						<path d="M0 841.89 L39.81 841.89" class="st1"/>
					</g>
					<g id="shape4-45" v:mID="4" v:groupContext="shape" transform="translate(-546.73,1354.29) rotate(-132.699)">
						<title>Sheet.4</title>
						<path d="M0 841.89 L39.81 841.89" class="st1"/>
					</g>
					<g id="shape16-48" v:mID="16" v:groupContext="shape" transform="translate(663.73,1325.03) rotate(132.699)">
						<title>Sheet.16</title>
						<path d="M0 841.89 L39.81 841.89" class="st1"/>
					</g>
					<g id="group17-51" transform="translate(0,-14.6305)" v:mID="17" v:groupContext="group">
						<title>Sheet.17</title>
						<g id="shape18-52" v:mID="18" v:groupContext="shape" transform="translate(668.941,1331.9) rotate(129.359)">
							<title>Sheet.18</title>
							<path d="M0 841.89 L28.38 841.89" class="st1"/>
						</g>
						<g id="shape19-55" v:mID="19" v:groupContext="shape"
								transform="translate(-614.941,1353.85) rotate(-129.359)">
							<title>Sheet.19</title>
							<path d="M0 841.89 L28.38 841.89" class="st1"/>
						</g>
						<g id="shape20-58" v:mID="20" v:groupContext="shape" transform="translate(841.89,823.602) rotate(90)">
							<title>Sheet.20</title>
							<path d="M0 841.89 L18.29 841.89" class="st2"/>
						</g>
						<g id="shape21-61" v:mID="21" v:groupContext="shape" transform="translate(877.89,823.602) rotate(90)">
							<title>Sheet.21</title>
							<path d="M0 841.89 L18.29 841.89" class="st2"/>
						</g>
					</g>
					<g id="shape22-64" v:mID="22" v:groupContext="shape" transform="translate(690.73,1354.29) rotate(132.699)">
						<title>Sheet.22</title>
						<path d="M0 841.89 L19.91 841.89" class="st1"/>
					</g>
					<g id="group23-67" transform="translate(40.5,0)" v:mID="23" v:groupContext="group">
						<title>Sheet.23</title>
						<g id="shape24-68" v:mID="24" v:groupContext="shape" transform="translate(668.941,1331.9) rotate(129.359)">
							<title>Sheet.24</title>
							<path d="M0 841.89 L28.38 841.89" class="st1"/>
						</g>
						<g id="shape25-71" v:mID="25" v:groupContext="shape"
								transform="translate(-614.941,1353.85) rotate(-129.359)">
							<title>Sheet.25</title>
							<path d="M0 841.89 L28.38 841.89" class="st1"/>
						</g>
						<g id="shape26-74" v:mID="26" v:groupContext="shape" transform="translate(841.89,823.602) rotate(90)">
							<title>Sheet.26</title>
							<path d="M0 841.89 L18.29 841.89" class="st2"/>
						</g>
						<g id="shape27-77" v:mID="27" v:groupContext="shape" transform="translate(877.89,823.602) rotate(90)">
							<title>Sheet.27</title>
							<path d="M0 841.89 L18.29 841.89" class="st2"/>
						</g>
					</g>
				</g>
				<g id="shape32-80" v:mID="32" v:groupContext="shape" transform="translate(-384.73,1368.92) rotate(-132.699)">
					<title>Sheet.32</title>
					<path d="M0 841.89 L39.81 841.89" class="st1"/>
				</g>
				<g id="shape33-83" v:mID="33" v:groupContext="shape" transform="translate(825.73,1339.66) rotate(132.699)">
					<title>Sheet.33</title>
					<path d="M0 841.89 L39.81 841.89" class="st1"/>
				</g>
				<g id="group34-86" transform="translate(162,0)" v:mID="34" v:groupContext="group">
					<title>Sheet.34</title>
					<g id="shape35-87" v:mID="35" v:groupContext="shape" transform="translate(668.941,1331.9) rotate(129.359)">
						<title>Sheet.35</title>
						<path d="M0 841.89 L28.38 841.89" class="st1"/>
					</g>
					<g id="shape36-90" v:mID="36" v:groupContext="shape" transform="translate(-614.941,1353.85) rotate(-129.359)">
						<title>Sheet.36</title>
						<path d="M0 841.89 L28.38 841.89" class="st1"/>
					</g>
					<g id="shape37-93" v:mID="37" v:groupContext="shape" transform="translate(841.89,823.602) rotate(90)">
						<title>Sheet.37</title>
						<path d="M0 841.89 L18.29 841.89" class="st2"/>
					</g>
					<g id="shape38-96" v:mID="38" v:groupContext="shape" transform="translate(877.89,823.602) rotate(90)">
						<title>Sheet.38</title>
						<path d="M0 841.89 L18.29 841.89" class="st2"/>
					</g>
				</g>
				<g id="group40-99" transform="translate(216,0)" v:mID="40" v:groupContext="group">
					<title>Sheet.40</title>
					<g id="shape41-100" v:mID="41" v:groupContext="shape" transform="translate(668.941,1331.9) rotate(129.359)">
						<title>Sheet.41</title>
						<path d="M0 841.89 L28.38 841.89" class="st1"/>
					</g>
					<g id="shape42-103" v:mID="42" v:groupContext="shape" transform="translate(-614.941,1353.85) rotate(-129.359)">
						<title>Sheet.42</title>
						<path d="M0 841.89 L28.38 841.89" class="st1"/>
					</g>
					<g id="shape43-106" v:mID="43" v:groupContext="shape" transform="translate(841.89,823.602) rotate(90)">
						<title>Sheet.43</title>
						<path d="M0 841.89 L18.29 841.89" class="st2"/>
					</g>
					<g id="shape44-109" v:mID="44" v:groupContext="shape" transform="translate(877.89,823.602) rotate(90)">
						<title>Sheet.44</title>
						<path d="M0 841.89 L18.29 841.89" class="st2"/>
					</g>
				</g>
			</g>
			<g id="shape31-112" v:mID="31" v:groupContext="shape" transform="translate(45,-138.99)">
				<title>Sheet.31</title>
				<desc></desc>
				<v:textBlock v:margins="rect(4,4,4,4)" v:tabSpace="42.5197"/>
				<v:textRect cx="9" cy="830.917" width="18" height="21.9457"/>
				<rect x="0" y="819.944" width="18" height="21.9457" class="st3"/>
				<text x="0.75em" y="834.52" class="st4" v:langID="1051"><v:paragraph v:horizAlign="1"/><v:tabList/></text>			</g>
			<g id="shape39-115" v:mID="39" v:groupContext="shape" transform="translate(99,-197.512)">
				<title>Sheet.39</title>
				<desc></desc>
				<v:textBlock v:margins="rect(4,4,4,4)" v:tabSpace="42.5197"/>
				<v:textRect cx="9" cy="830.917" width="18" height="21.9457"/>
				<rect x="0" y="819.944" width="18" height="21.9457" class="st3"/>
				<text x="0.75em" y="834.52" class="st4" v:langID="1051"><v:paragraph v:horizAlign="1"/><v:tabList/></text>			</g>
			<g id="shape45-118" v:mID="45" v:groupContext="shape" transform="translate(180,-109.729)">
				<title>Sheet.45</title>
				<desc></desc>
				<v:textBlock v:margins="rect(4,4,4,4)" v:tabSpace="42.5197"/>
				<v:textRect cx="9" cy="830.917" width="18" height="21.9457"/>
				<rect x="0" y="819.944" width="18" height="21.9457" class="st3"/>
				<text x="0.75em" y="834.52" class="st4" v:langID="1051"><v:paragraph v:horizAlign="1"/><v:tabList/></text>			</g>
			<g id="shape46-121" v:mID="46" v:groupContext="shape" transform="translate(153,-138.99)">
				<title>Sheet.46</title>
				<desc></desc>
				<v:textBlock v:margins="rect(4,4,4,4)" v:tabSpace="42.5197"/>
				<v:textRect cx="9" cy="830.917" width="18" height="21.9457"/>
				<rect x="0" y="819.944" width="18" height="21.9457" class="st3"/>
				<text x="0.75em" y="834.52" class="st4" v:langID="1051"><v:paragraph v:horizAlign="1"/><v:tabList/></text>			</g>
			<g id="shape47-124" v:mID="47" v:groupContext="shape" transform="translate(126,-168.251)">
				<title>Sheet.47</title>
				<desc></desc>
				<v:textBlock v:margins="rect(4,4,4,4)" v:tabSpace="42.5197"/>
				<v:textRect cx="9" cy="830.917" width="18" height="21.9457"/>
				<rect x="0" y="819.944" width="18" height="21.9457" class="st3"/>
				<text x="0.75em" y="834.52" class="st4" v:langID="1051"><v:paragraph v:horizAlign="1"/><v:tabList/></text>			</g>
			<g id="shape49-127" v:mID="49" v:groupContext="shape" transform="translate(234,-51.2067)">
				<title>Sheet.49</title>
				<desc></desc>
				<v:textBlock v:margins="rect(4,4,4,4)" v:tabSpace="42.5197"/>
				<v:textRect cx="9" cy="830.917" width="18" height="21.9457"/>
				<rect x="0" y="819.944" width="18" height="21.9457" class="st3"/>
				<text x="0.75em" y="834.52" class="st4" v:langID="1051"><v:paragraph v:horizAlign="1"/><v:tabList/></text>			</g>
			<g id="shape50-130" v:mID="50" v:groupContext="shape" transform="translate(207,-21.9457)">
				<title>Sheet.50</title>
				<desc></desc>
				<v:textBlock v:margins="rect(4,4,4,4)" v:tabSpace="42.5197"/>
				<v:textRect cx="9" cy="830.917" width="18" height="21.9457"/>
				<rect x="0" y="819.944" width="18" height="21.9457" class="st3"/>
				<text x="0.75em" y="834.52" class="st4" v:langID="1051"><v:paragraph v:horizAlign="1"/><v:tabList/></text>			</g>
			<g id="shape51-133" v:mID="51" v:groupContext="shape" transform="translate(85.5,-124.359)">
				<title>Sheet.51</title>
				<desc></desc>
				<v:textBlock v:margins="rect(4,4,4,4)" v:tabSpace="42.5197"/>
				<v:textRect cx="9" cy="830.917" width="18" height="21.9457"/>
				<rect x="0" y="819.944" width="18" height="21.9457" class="st3"/>
				<text x="0.75em" y="834.52" class="st4" v:langID="1051"><v:paragraph v:horizAlign="1"/><v:tabList/></text>			</g>
			<g id="shape52-136" v:mID="52" v:groupContext="shape" transform="translate(85.5,-124.359)">
				<title>Sheet.52</title>
				<desc></desc>
				<v:textBlock v:margins="rect(4,4,4,4)" v:tabSpace="42.5197"/>
				<v:textRect cx="9" cy="830.917" width="18" height="21.9457"/>
				<rect x="0" y="819.944" width="18" height="21.9457" class="st3"/>
				<text x="0.75em" y="834.52" class="st4" v:langID="1051"><v:paragraph v:horizAlign="1"/><v:tabList/></text>			</g>
			<g id="shape53-139" v:mID="53" v:groupContext="shape" transform="translate(85.5,-124.359)">
				<title>Sheet.53</title>
				<desc></desc>
				<v:textBlock v:margins="rect(4,4,4,4)" v:tabSpace="42.5197"/>
				<v:textRect cx="9" cy="830.917" width="18" height="21.9457"/>
				<rect x="0" y="819.944" width="18" height="21.9457" class="st3"/>
				<text x="0.75em" y="834.52" class="st4" v:langID="1051"><v:paragraph v:horizAlign="1"/><v:tabList/></text>			</g>
			<g id="shape54-142" v:mID="54" v:groupContext="shape" transform="translate(85.5,-124.359)">
				<title>Sheet.54</title>
				<desc></desc>
				<v:textBlock v:margins="rect(4,4,4,4)" v:tabSpace="42.5197"/>
				<v:textRect cx="9" cy="830.917" width="18" height="21.9457"/>
				<rect x="0" y="819.944" width="18" height="21.9457" class="st3"/>
				<text x="0.75em" y="834.52" class="st4" v:langID="1051"><v:paragraph v:horizAlign="1"/><v:tabList/></text>			</g>
			<g id="shape55-145" v:mID="55" v:groupContext="shape" transform="translate(166.5,-95.0982)">
				<title>Sheet.55</title>
				<desc></desc>
				<v:textBlock v:margins="rect(4,4,4,4)" v:tabSpace="42.5197"/>
				<v:textRect cx="9" cy="830.917" width="18" height="21.9457"/>
				<rect x="0" y="819.944" width="18" height="21.9457" class="st3"/>
				<text x="0.75em" y="834.52" class="st4" v:langID="1051"><v:paragraph v:horizAlign="1"/><v:tabList/></text>			</g>
			<g id="shape56-148" v:mID="56" v:groupContext="shape" transform="translate(126,-109.729)">
				<title>Sheet.56</title>
				<desc></desc>
				<v:textBlock v:margins="rect(4,4,4,4)" v:tabSpace="42.5197"/>
				<v:textRect cx="9" cy="830.917" width="18" height="21.9457"/>
				<rect x="0" y="819.944" width="18" height="21.9457" class="st3"/>
				<text x="0.75em" y="834.52" class="st4" v:langID="1051"><v:paragraph v:horizAlign="1"/><v:tabList/></text>			</g>
			<g id="shape57-151" v:mID="57" v:groupContext="shape" transform="translate(261,-21.9457)">
				<title>Sheet.57</title>
				<desc></desc>
				<v:textBlock v:margins="rect(4,4,4,4)" v:tabSpace="42.5197"/>
				<v:textRect cx="9" cy="830.917" width="18" height="21.9457"/>
				<rect x="0" y="819.944" width="18" height="21.9457" class="st3"/>
				<text x="0.75em" y="834.52" class="st4" v:langID="1051"><v:paragraph v:horizAlign="1"/><v:tabList/></text>			</g>
			<g id="shape48-154" v:mID="48" v:groupContext="shape" transform="translate(45,-160.935)">
				<title>Sheet.48</title>
				<desc>s</desc>
				<v:textBlock v:margins="rect(4,4,4,4)" v:tabSpace="42.5197"/>
				<v:textRect cx="9" cy="834.575" width="18" height="14.6305"/>
				<rect x="0" y="827.259" width="18" height="14.6305" class="st3"/>
				<text x="6.75" y="837.27" class="st5" v:langID="1051"><v:paragraph v:horizAlign="1"/><v:tabList/>s</text>			</g>
			<g id="shape58-157" v:mID="58" v:groupContext="shape" transform="translate(166.5,-117.044)">
				<title>Sheet.58</title>
				<desc>s</desc>
				<v:textBlock v:margins="rect(4,4,4,4)" v:tabSpace="42.5197"/>
				<v:textRect cx="9" cy="834.575" width="18" height="14.6305"/>
				<rect x="0" y="827.259" width="18" height="14.6305" class="st3"/>
				<text x="6.75" y="837.27" class="st5" v:langID="1051"><v:paragraph v:horizAlign="1"/><v:tabList/>s</text>			</g>
			<g id="shape59-160" v:mID="59" v:groupContext="shape" transform="translate(126,-131.674)">
				<title>Sheet.59</title>
				<desc>s</desc>
				<v:textBlock v:margins="rect(4,4,4,4)" v:tabSpace="42.5197"/>
				<v:textRect cx="9" cy="834.575" width="18" height="14.6305"/>
				<rect x="0" y="827.259" width="18" height="14.6305" class="st3"/>
				<text x="6.75" y="837.27" class="st5" v:langID="1051"><v:paragraph v:horizAlign="1"/><v:tabList/>s</text>			</g>
			<g id="shape60-163" v:mID="60" v:groupContext="shape" transform="translate(85.5,-146.305)">
				<title>Sheet.60</title>
				<desc>s</desc>
				<v:textBlock v:margins="rect(4,4,4,4)" v:tabSpace="42.5197"/>
				<v:textRect cx="9" cy="834.575" width="18" height="14.6305"/>
				<rect x="0" y="827.259" width="18" height="14.6305" class="st3"/>
				<text x="6.75" y="837.27" class="st5" v:langID="1051"><v:paragraph v:horizAlign="1"/><v:tabList/>s</text>			</g>
			<g id="shape61-166" v:mID="61" v:groupContext="shape" transform="translate(261,-43.8915)">
				<title>Sheet.61</title>
				<desc>s</desc>
				<v:textBlock v:margins="rect(4,4,4,4)" v:tabSpace="42.5197"/>
				<v:textRect cx="9" cy="834.575" width="18" height="14.6305"/>
				<rect x="0" y="827.259" width="18" height="14.6305" class="st3"/>
				<text x="6.75" y="837.27" class="st5" v:langID="1051"><v:paragraph v:horizAlign="1"/><v:tabList/>s</text>			</g>
			<g id="shape62-169" v:mID="62" v:groupContext="shape" transform="translate(207,-43.8915)">
				<title>Sheet.62</title>
				<desc>s</desc>
				<v:textBlock v:margins="rect(4,4,4,4)" v:tabSpace="42.5197"/>
				<v:textRect cx="9" cy="834.575" width="18" height="14.6305"/>
				<rect x="0" y="827.259" width="18" height="14.6305" class="st3"/>
				<text x="6.75" y="837.27" class="st5" v:langID="1051"><v:paragraph v:horizAlign="1"/><v:tabList/>s</text>			</g>
			<g id="shape63-172" v:mID="63" v:groupContext="shape" transform="translate(108,-212.142)">
				<title>Sheet.63</title>
				<desc>q0</desc>
				<v:textBlock v:margins="rect(4,4,4,4)" v:tabSpace="42.5197"/>
				<v:textRect cx="9" cy="834.575" width="18" height="14.6305"/>
				<rect x="0" y="827.259" width="18" height="14.6305" class="st3"/>
				<text x="4.87" y="837.27" class="st5" v:langID="1051"><v:paragraph v:horizAlign="1"/><v:tabList/>q<tspan
							dy="-0.287em" class="st6" v:baseFontSize="9">0</tspan></text>			</g>
			<g id="shape64-176" v:mID="64" v:groupContext="shape" transform="translate(189,-124.359)">
				<title>Sheet.64</title>
				<desc>q0</desc>
				<v:textBlock v:margins="rect(4,4,4,4)" v:tabSpace="42.5197"/>
				<v:textRect cx="9" cy="834.575" width="18" height="14.6305"/>
				<rect x="0" y="827.259" width="18" height="14.6305" class="st3"/>
				<text x="4.87" y="837.27" class="st5" v:langID="1051"><v:paragraph v:horizAlign="1"/><v:tabList/>q<tspan
							dy="-0.287em" class="st6" v:baseFontSize="9">0</tspan></text>			</g>
			<g id="shape65-180" v:mID="65" v:groupContext="shape" transform="translate(162,-153.62)">
				<title>Sheet.65</title>
				<desc>q0</desc>
				<v:textBlock v:margins="rect(4,4,4,4)" v:tabSpace="42.5197"/>
				<v:textRect cx="9" cy="834.575" width="18" height="14.6305"/>
				<rect x="0" y="827.259" width="18" height="14.6305" class="st3"/>
				<text x="4.87" y="837.27" class="st5" v:langID="1051"><v:paragraph v:horizAlign="1"/><v:tabList/>q<tspan
							dy="-0.287em" class="st6" v:baseFontSize="9">0</tspan></text>			</g>
			<g id="shape66-184" v:mID="66" v:groupContext="shape" transform="translate(135,-182.881)">
				<title>Sheet.66</title>
				<desc>q0</desc>
				<v:textBlock v:margins="rect(4,4,4,4)" v:tabSpace="42.5197"/>
				<v:textRect cx="9" cy="834.575" width="18" height="14.6305"/>
				<rect x="0" y="827.259" width="18" height="14.6305" class="st3"/>
				<text x="4.87" y="837.27" class="st5" v:langID="1051"><v:paragraph v:horizAlign="1"/><v:tabList/>q<tspan
							dy="-0.287em" class="st6" v:baseFontSize="9">0</tspan></text>			</g>
			<g id="shape67-188" v:mID="67" v:groupContext="shape" transform="translate(243,-65.8372)">
				<title>Sheet.67</title>
				<desc>q0</desc>
				<v:textBlock v:margins="rect(4,4,4,4)" v:tabSpace="42.5197"/>
				<v:textRect cx="9" cy="834.575" width="18" height="14.6305"/>
				<rect x="0" y="827.259" width="18" height="14.6305" class="st3"/>
				<text x="4.87" y="837.27" class="st5" v:langID="1051"><v:paragraph v:horizAlign="1"/><v:tabList/>q<tspan
							dy="-0.287em" class="st6" v:baseFontSize="9">0</tspan></text>			</g>
			<g id="shape68-192" v:mID="68" v:groupContext="shape" transform="translate(80.4495,-49.4519)">
				<title>Sheet.68</title>
				<path d="M9.55 657.25 C-10.68 668.86 5.52 687.91 18.77 701.37 C31.8 714.61 41.98 722.44 54.1 733.64 C66.67 745.27
							 81.33 760.53 82.36 773.01 C83.06 781.38 77.62 788.5 75.03 798.92 C72.2 810.31 72.77 825.64 83.49 834.62
							 C92.14 841.87 107.41 844.98 114.41 837.87 C125.38 826.73 116 790.46 117.77 776.21 C118.96 766.63 125.18
							 767 127.56 764.29 C140.14 749.99 45.55 649.94 9.55 657.25 Z" class="st7"/>
			</g>
			<g id="shape69-194" v:mID="69" v:groupContext="shape" transform="translate(0,-87.783)">
				<title>Sheet.69</title>
				<desc>počíta</desc>
				<v:textBlock v:margins="rect(4,4,4,4)" v:tabSpace="42.5197"/>
				<v:textRect cx="22.5" cy="834.575" width="45" height="14.6305"/>
				<rect x="0" y="827.259" width="45" height="14.6305" class="st3"/>
				<text x="10.24" y="837.27" class="st8" v:langID="1051"><v:paragraph v:horizAlign="1"/><v:tabList/>počíta</text>			</g>
			<g id="shape70-197" v:mID="70" v:groupContext="shape" transform="translate(0,-73.1525)">
				<title>Sheet.70</title>
				<desc>porovnáva</desc>
				<v:textBlock v:margins="rect(4,4,4,4)" v:tabSpace="42.5197"/>
				<v:textRect cx="31.5" cy="834.575" width="63" height="14.6305"/>
				<rect x="0" y="827.259" width="63" height="14.6305" class="st3"/>
				<text x="10.49" y="837.27" class="st8" v:langID="1051"><v:paragraph v:horizAlign="1"/><v:tabList/>porovnáva</text>			</g>
			<g id="shape71-200" v:mID="71" v:groupContext="shape" transform="translate(-623.941,205.572) rotate(-50.6412)">
				<title>Sheet.71</title>
				<path d="M0 841.89 L8.67 841.89" class="st9"/>
			</g>
			<g id="shape72-206" v:mID="72" v:groupContext="shape" transform="translate(-729.962,447.216) rotate(-68.6216)">
				<title>Sheet.72</title>
				<path d="M0 841.89 L37.69 841.89" class="st9"/>
			</g>
			<g id="shape73-211" v:mID="73" v:groupContext="shape" transform="translate(198,-160.935)">
				<title>Sheet.73</title>
				<desc>akceptujúci výpočet</desc>
				<v:textBlock v:margins="rect(4,4,4,4)" v:tabSpace="42.5197"/>
				<v:textRect cx="45" cy="838.232" width="90" height="7.31525"/>
				<rect x="0" y="834.575" width="90" height="7.31525" class="st3"/>
				<text x="5.73" y="840.93" class="st8" v:langID="1051"><v:paragraph v:horizAlign="1"/><v:tabList/>akceptujúci výpočet</text>			</g>
			<g id="shape74-214" v:mID="74" v:groupContext="shape" transform="translate(238.5,-80.4677)">
				<title>Sheet.74</title>
				<desc>existenčné vetvenie až po dĺžku slova</desc>
				<v:textBlock v:margins="rect(4,4,4,4)" v:tabSpace="42.5197"/>
				<v:textRect cx="49.5" cy="830.917" width="99" height="21.9457"/>
				<rect x="0" y="819.944" width="99" height="21.9457" class="st3"/>
				<text x="9.98" y="828.22" class="st8" v:langID="1051"><v:paragraph v:horizAlign="1"/><v:tabList/>existenčné vetvenie <tspan
							x="14.98" dy="1.2em" class="st11">až po dĺžku slova</tspan></text>			</g>
		</g>
	</g>
</svg>
