<?xml version="1.0" encoding="UTF-8" standalone="no"?>
<!DOCTYPE svg PUBLIC "-//W3C//DTD SVG 1.0//EN" "http://www.w3.org/TR/2001/REC-SVG-20010904/DTD/svg10.dtd">
<!-- Generated by Microsoft Visio 11.0, SVG Export, v1.0 zasobnik1.svg Page-1 -->
<svg xmlns="http://www.w3.org/2000/svg" xmlns:v="http://schemas.microsoft.com/visio/2003/SVGExtensions/" width="8.26772in"
		height="11.6929in" viewBox="0 0 595.276 841.89" xml:space="preserve" color-interpolation-filters="sRGB" class="st14">
	<title>zasobnik1</title>
	<v:documentProperties v:langID="1051" v:metric="true" v:viewMarkup="false"/>

	<style type="text/css">
	<![CDATA[
		.st1 {fill:none;stroke:none;stroke-linecap:round;stroke-linejoin:round;stroke-width:0.24}
		.st2 {fill:#000000;font-family:Arial;font-size:0.833336em}
		.st3 {baseline-shift:-32.4947%;font-size:0.649894em}
		.st4 {font-size:1em}
		.st5 {baseline-shift:-32.4947%;font-size:0.649894em;font-style:italic}
		.st6 {fill:none;stroke:none;stroke-linecap:round;stroke-linejoin:round;stroke-width:0.72}
		.st7 {fill:#000000;font-family:Arial;font-size:1.00001em}
		.st8 {marker-start:url(#mrkr4-28);stroke:#000000;stroke-linecap:round;stroke-linejoin:round;stroke-width:0.24}
		.st9 {fill:#000000;fill-opacity:1;stroke:#000000;stroke-opacity:1;stroke-width:0.08695652173913}
		.st10 {stroke:#000000;stroke-linecap:round;stroke-linejoin:round;stroke-width:0.24}
		.st11 {stroke:#000000;stroke-dasharray:0,6.48;stroke-linecap:round;stroke-linejoin:round;stroke-width:0.72}
		.st12 {fill:#ffffff}
		.st13 {stroke:none;stroke-linecap:round;stroke-linejoin:round;stroke-width:0.24}
		.st14 {fill:none;fill-rule:evenodd;font-size:12;overflow:visible;stroke-linecap:square;stroke-miterlimit:3}
	]]>
	</style>

	<defs id="Markers">
		<g id="lend4">
			<path d="M 2 1 L 0 0 L 2 -1 L 2 1 " style="stroke:none"/>
		</g>
		<marker id="mrkr4-28" class="st9" v:arrowType="4" v:arrowSize="2" v:setback="21.5" refX="21.5" orient="auto"
				markerUnits="strokeWidth">
			<use xlink:href="#lend4" transform="scale(11.5) "/>
		</marker>
	</defs>
	<g v:mID="0" v:index="1" v:groupContext="foregroundPage">
		<title>Page-1</title>
		<v:pageProperties v:drawingScale="1" v:pageScale="1" v:drawingUnits="19" v:shadowOffsetX="9" v:shadowOffsetY="-9"/>
		<g id="shape37-1" v:mID="37" v:groupContext="shape" transform="translate(333,-612)">
			<title>Sheet.37</title>
			<desc>q0,a1Lq1,b1,1</desc>
			<v:textBlock v:margins="rect(4,4,4,4)" v:tabSpace="42.5197"/>
			<v:textRect cx="54" cy="832.89" width="108" height="18"/>
			<rect x="0" y="823.89" width="108" height="18" class="st1"/>
			<text x="16.95" y="835.9" class="st2" v:langID="1051"><v:paragraph v:horizAlign="1"/><v:tabList/><tspan dy="-0.287em"
						class="st3" v:baseFontSize="10"></tspan><tspan x="2.933em" dy="0.186em" class="st4"></tspan>q<tspan
						dy="-0.287em" class="st3" v:baseFontSize="10">0</tspan><tspan dy="0.186em" class="st4">,</tspan>a<tspan
						dy="-0.287em" class="st3" v:baseFontSize="10">1</tspan><tspan x="5.046em" dy="0.186em" class="st4"></tspan><tspan
						dy="-0.287em" class="st5" v:baseFontSize="10">L</tspan><tspan x="5.407em 6.157em" dy="0.186em" class="st4"></tspan>q<tspan
						dy="-0.287em" class="st3" v:baseFontSize="10">1</tspan><tspan dy="0.186em" class="st4">,</tspan>b<tspan
						dy="-0.287em" class="st3" v:baseFontSize="10">1</tspan><tspan dy="0.186em" class="st4">,</tspan>1<tspan x="
							9.104em" dy="0em" class="st4"></tspan></text>		</g>
		<g id="shape47-17" v:mID="47" v:groupContext="shape" transform="translate(108,-630)">
			<title>Sheet.47</title>
			<desc>a)</desc>
			<v:textBlock v:margins="rect(4,4,4,4)" v:tabSpace="42.5197"/>
			<v:textRect cx="13.5" cy="832.89" width="27" height="18"/>
			<rect x="0" y="823.89" width="27" height="18" class="st6"/>
			<text x="8.17" y="836.49" class="st7" v:langID="1051"><v:paragraph v:horizAlign="1"/><v:tabList/>a)</text>		</g>
		<g id="shape48-20" v:mID="48" v:groupContext="shape" transform="translate(207,-630)">
			<title>Sheet.48</title>
			<desc>b)</desc>
			<v:textBlock v:margins="rect(4,4,4,4)" v:tabSpace="42.5197"/>
			<v:textRect cx="13.5" cy="832.89" width="27" height="18"/>
			<rect x="0" y="823.89" width="27" height="18" class="st6"/>
			<text x="8.17" y="836.49" class="st7" v:langID="1051"><v:paragraph v:horizAlign="1"/><v:tabList/>b)</text>		</g>
		<g id="shape38-23" v:mID="38" v:groupContext="shape" transform="translate(288,1114.98) rotate(180)">
			<title>Sheet.38</title>
			<path d="M5.16 841.89 L5.52 841.89 L27 841.89" class="st8"/>
		</g>
		<g id="shape39-29" v:mID="39" v:groupContext="shape" transform="translate(288,1208.58) rotate(180)">
			<title>Sheet.39</title>
			<path d="M5.16 841.89 L5.52 841.89 L27 841.89" class="st8"/>
		</g>
		<g id="shape40-34" v:mID="40" v:groupContext="shape" transform="translate(279,1158.18) rotate(180)">
			<title>Sheet.40</title>
			<path d="M5.16 841.89 L5.52 841.89 L36 841.89" class="st8"/>
		</g>
		<g id="shape41-39" v:mID="41" v:groupContext="shape" transform="translate(279,1064.58) rotate(180)">
			<title>Sheet.41</title>
			<path d="M5.16 841.89 L5.52 841.89 L36 841.89" class="st8"/>
		</g>
		<g id="shape42-44" v:mID="42" v:groupContext="shape" transform="translate(-580.89,366.69) rotate(-90)">
			<title>Sheet.42</title>
			<path d="M0 841.89 L93.6 841.89" class="st10"/>
		</g>
		<g id="shape43-47" v:mID="43" v:groupContext="shape" transform="translate(-598.89,316.29) rotate(-90)">
			<title>Sheet.43</title>
			<path d="M0 841.89 L93.6 841.89" class="st10"/>
		</g>
		<g id="shape44-50" v:mID="44" v:groupContext="shape" transform="translate(1120.89,244.29) rotate(90) scale(-1,1)">
			<title>Side bracket</title>
			<v:userDefs>
				<v:ud v:nameU="TxtW" v:val="VT0(0.69444444444444):29"/>
				<v:ud v:nameU="TxtA" v:val="VT0(-1.5707963267949):32"/>
				<v:ud v:nameU="TxtAState" v:val="VT0(0):26"/>
				<v:ud v:nameU="TxtWState" v:val="VT0(0):26"/>
				<v:ud v:nameU="PosCH1" v:val="VT0(0):26"/>
			</v:userDefs>
			<v:textBlock v:margins="rect(4,4,4,4)" v:tabSpace="42.5197"/>
			<path d="M0 832.89 L0 841.89 L36 841.89 L36 832.89" class="st10"/>
		</g>
		<g id="shape45-53" v:mID="45" v:groupContext="shape" transform="translate(1120.89,337.89) rotate(90) scale(-1,1)">
			<title>Side bracket.45</title>
			<v:userDefs>
				<v:ud v:nameU="TxtW" v:val="VT0(0.69444444444444):29"/>
				<v:ud v:nameU="TxtA" v:val="VT0(-1.5707963267949):32"/>
				<v:ud v:nameU="TxtAState" v:val="VT0(0):26"/>
				<v:ud v:nameU="TxtWState" v:val="VT0(0):26"/>
				<v:ud v:nameU="PosCH1" v:val="VT0(0):26"/>
			</v:userDefs>
			<v:textBlock v:margins="rect(4,4,4,4)" v:tabSpace="42.5197"/>
			<path d="M0 832.89 L0 841.89 L36 841.89 L36 832.89" class="st10"/>
		</g>
		<g id="shape46-56" v:mID="46" v:groupContext="shape" transform="translate(1111.89,280.29) rotate(90)">
			<title>Sheet.46</title>
			<path d="M0 841.89 L30.6 841.89" class="st11"/>
		</g>
		<g id="group12-59" transform="translate(288,-468)" v:mID="12" v:groupContext="group">
			<title>Sheet.12</title>
			<g id="group14-60" transform="translate(-819.39,841.89) rotate(-90)" v:mID="14" v:groupContext="group">
				<v:userDefs>
					<v:ud v:nameU="OpenEnd" v:val="VT0(1):26"/>
				</v:userDefs>
				<title>Open/closed bar</title>
				<g id="shape15-61" v:mID="15" v:groupContext="shape">
					<title>Sheet.15</title>
					<v:textBlock v:margins="rect(4,4,4,4)" v:tabSpace="42.5197"/>
					<path d="M0 841.89 L93.6 841.89 L93.6 819.39 L0 819.39 L0 841.89 Z" class="st12"/>
					<path d="M0 841.89 L93.6 841.89 L93.6 819.39 L0 819.39" class="st13"/>
				</g>
				<g id="shape16-64" v:mID="16" v:groupContext="shape">
					<title>Sheet.16</title>
					<path d="M0 841.89 L93.6 841.89 L0 841.89 Z M0 819.39 L93.6 819.39 L0 819.39 Z" class="st12"/>
					<path d="M0 841.89 L93.6 841.89" class="st10"/>
					<path d="" class="st10"/>
					<path d="M0 819.39 L93.6 819.39" class="st10"/>
					<path d="" class="st10"/>
					<path d="M0 841.89 L0 819.39" class="st10"/>
				</g>
			</g>
			<g id="shape17-71" v:mID="17" v:groupContext="shape" transform="translate(5.39568E-013,-14.4)">
				<title>Sheet.17</title>
				<path d="M0 841.89 L22.5 841.89" class="st10"/>
			</g>
			<g id="shape18-74" v:mID="18" v:groupContext="shape" transform="translate(5.39568E-013,-50.4)">
				<title>Sheet.18</title>
				<path d="M0 841.89 L22.5 841.89" class="st10"/>
			</g>
			<g id="shape19-77" v:mID="19" v:groupContext="shape" transform="translate(5.39568E-013,-79.2)">
				<title>Sheet.19</title>
				<path d="M0 841.89 L22.5 841.89" class="st10"/>
			</g>
			<g id="shape20-80" v:mID="20" v:groupContext="shape" transform="translate(5.39568E-013,-64.8)">
				<title>Sheet.20</title>
				<path d="M0 841.89 L22.5 841.89" class="st10"/>
			</g>
			<g id="shape21-83" v:mID="21" v:groupContext="shape" transform="translate(853.14,798.69) rotate(90)">
				<title>Sheet.21</title>
				<path d="M0 841.89 L22.95 841.89" class="st11"/>
			</g>
			<g id="shape22-86" v:mID="22" v:groupContext="shape">
				<title>Sheet.22</title>
				<desc>an</desc>
				<v:textBlock v:margins="rect(4,4,4,4)" v:tabSpace="42.5197"/>
				<v:textRect cx="11.25" cy="834.69" width="22.5" height="14.4"/>
				<rect x="0" y="827.49" width="22.5" height="14.4" class="st1"/>
				<text x="6.66" y="837.69" class="st2" v:langID="1051"><v:paragraph v:horizAlign="1"/><v:tabList/>a<tspan
							dy="-0.287em" class="st3" v:baseFontSize="10">n</tspan></text>			</g>
			<g id="shape23-90" v:mID="23" v:groupContext="shape" transform="translate(4.53637E-013,-50.4)">
				<title>Sheet.23</title>
				<desc>a1</desc>
				<v:textBlock v:margins="rect(4,4,4,4)" v:tabSpace="42.5197"/>
				<v:textRect cx="11.25" cy="834.69" width="22.5" height="14.4"/>
				<rect x="0" y="827.49" width="22.5" height="14.4" class="st1"/>
				<text x="6.66" y="837.69" class="st2" v:langID="1051"><v:paragraph v:horizAlign="1"/><v:tabList/>a<tspan
							dy="-0.287em" class="st3" v:baseFontSize="10">1</tspan></text>			</g>
			<g id="shape24-94" v:mID="24" v:groupContext="shape" transform="translate(4.53637E-013,-64.8)">
				<title>Sheet.24</title>
				<desc>q0</desc>
				<v:textBlock v:margins="rect(4,4,4,4)" v:tabSpace="42.5197"/>
				<v:textRect cx="11.25" cy="834.69" width="22.5" height="14.4"/>
				<rect x="0" y="827.49" width="22.5" height="14.4" class="st1"/>
				<text x="6.66" y="837.69" class="st2" v:langID="1051"><v:paragraph v:horizAlign="1"/><v:tabList/>q<tspan
							dy="-0.287em" class="st3" v:baseFontSize="10">0</tspan></text>			</g>
			<g id="group26-98" transform="translate(-819.39,748.29) rotate(-90)" v:mID="26" v:groupContext="group">
				<v:userDefs>
					<v:ud v:nameU="OpenEnd" v:val="VT0(1):26"/>
				</v:userDefs>
				<title>Open/closed bar.26</title>
				<g id="shape27-99" v:mID="27" v:groupContext="shape">
					<title>Sheet.27</title>
					<v:textBlock v:margins="rect(4,4,4,4)" v:tabSpace="42.5197"/>
					<path d="M0 841.89 L86.4 841.89 L86.4 819.39 L0 819.39 L0 841.89 Z" class="st12"/>
					<path d="M0 841.89 L86.4 841.89 L86.4 819.39 L0 819.39" class="st13"/>
				</g>
				<g id="shape28-102" v:mID="28" v:groupContext="shape">
					<title>Sheet.28</title>
					<path d="M0 841.89 L86.4 841.89 L0 841.89 Z M0 819.39 L86.4 819.39 L0 819.39 Z" class="st12"/>
					<path d="M0 841.89 L86.4 841.89" class="st10"/>
					<path d="" class="st10"/>
					<path d="M0 819.39 L86.4 819.39" class="st10"/>
					<path d="" class="st10"/>
					<path d="M0 841.89 L0 819.39" class="st10"/>
				</g>
			</g>
			<g id="shape29-109" v:mID="29" v:groupContext="shape" transform="translate(2.21823E-013,-108)">
				<title>Sheet.29</title>
				<path d="M0 841.89 L22.5 841.89" class="st10"/>
			</g>
			<g id="shape30-112" v:mID="30" v:groupContext="shape" transform="translate(2.21823E-013,-144)">
				<title>Sheet.30</title>
				<path d="M0 841.89 L22.5 841.89" class="st10"/>
			</g>
			<g id="shape31-115" v:mID="31" v:groupContext="shape" transform="translate(2.21823E-013,-172.8)">
				<title>Sheet.31</title>
				<path d="M0 841.89 L22.5 841.89" class="st10"/>
			</g>
			<g id="shape32-118" v:mID="32" v:groupContext="shape" transform="translate(2.21823E-013,-158.4)">
				<title>Sheet.32</title>
				<path d="M0 841.89 L22.5 841.89" class="st10"/>
			</g>
			<g id="shape33-121" v:mID="33" v:groupContext="shape" transform="translate(853.14,705.09) rotate(90)">
				<title>Sheet.33</title>
				<path d="M0 841.89 L23.17 841.89" class="st11"/>
			</g>
			<g id="shape34-124" v:mID="34" v:groupContext="shape" transform="translate(1.8785E-013,-93.6)">
				<title>Sheet.34</title>
				<desc>an</desc>
				<v:textBlock v:margins="rect(4,4,4,4)" v:tabSpace="42.5197"/>
				<v:textRect cx="11.25" cy="834.69" width="22.5" height="14.4"/>
				<rect x="0" y="827.49" width="22.5" height="14.4" class="st1"/>
				<text x="6.66" y="837.69" class="st2" v:langID="1051"><v:paragraph v:horizAlign="1"/><v:tabList/>a<tspan
							dy="-0.287em" class="st3" v:baseFontSize="10">n</tspan></text>			</g>
			<g id="shape35-128" v:mID="35" v:groupContext="shape" transform="translate(1.8785E-013,-158.4)">
				<title>Sheet.35</title>
				<desc>b1</desc>
				<v:textBlock v:margins="rect(4,4,4,4)" v:tabSpace="42.5197"/>
				<v:textRect cx="11.25" cy="834.69" width="22.5" height="14.4"/>
				<rect x="0" y="827.49" width="22.5" height="14.4" class="st1"/>
				<text x="6.66" y="837.69" class="st2" v:langID="1051"><v:paragraph v:horizAlign="1"/><v:tabList/>b<tspan
							dy="-0.287em" class="st3" v:baseFontSize="10">1</tspan></text>			</g>
			<g id="shape36-132" v:mID="36" v:groupContext="shape" transform="translate(2.9976E-014,-144)">
				<title>Sheet.36</title>
				<desc>q1</desc>
				<v:textBlock v:margins="rect(4,4,4,4)" v:tabSpace="42.5197"/>
				<v:textRect cx="11.25" cy="834.69" width="22.5" height="14.4"/>
				<rect x="0" y="827.49" width="22.5" height="14.4" class="st1"/>
				<text x="6.66" y="837.69" class="st2" v:langID="1051"><v:paragraph v:horizAlign="1"/><v:tabList/>q<tspan
							dy="-0.287em" class="st3" v:baseFontSize="10">1</tspan></text>			</g>
			<g id="shape13-136" v:mID="13" v:groupContext="shape" transform="translate(2.8777E-013,-79.2)">
				<title>Sheet.13</title>
				<desc>L</desc>
				<v:textBlock v:margins="rect(4,4,4,4)" v:tabSpace="42.5197"/>
				<v:textRect cx="11.25" cy="834.69" width="22.5" height="14.4"/>
				<rect x="0" y="827.49" width="22.5" height="14.4" class="st1"/>
				<text x="8.47" y="837.69" class="st2" v:langID="1051"><v:paragraph v:horizAlign="1"/><v:tabList/>L</text>			</g>
		</g>
		<g id="group25-139" transform="translate(144,-540)" v:mID="25" v:groupContext="group">
			<title>Sheet.25</title>
			<g id="group1-140" transform="translate(-819.39,841.89) rotate(-90)" v:mID="1" v:groupContext="group">
				<v:userDefs>
					<v:ud v:nameU="OpenEnd" v:val="VT0(1):26"/>
				</v:userDefs>
				<title>Open/closed bar.1</title>
				<g id="shape2-141" v:mID="2" v:groupContext="shape">
					<title>Sheet.2</title>
					<v:textBlock v:margins="rect(4,4,4,4)" v:tabSpace="42.5197"/>
					<path d="M0 841.89 L108 841.89 L108 819.39 L0 819.39 L0 841.89 Z" class="st12"/>
					<path d="M0 841.89 L108 841.89 L108 819.39 L0 819.39" class="st13"/>
				</g>
				<g id="shape3-144" v:mID="3" v:groupContext="shape">
					<title>Sheet.3</title>
					<path d="M0 841.89 L108 841.89 L0 841.89 Z M0 819.39 L108 819.39 L0 819.39 Z" class="st12"/>
					<path d="M0 841.89 L108 841.89" class="st10"/>
					<path d="" class="st10"/>
					<path d="M0 819.39 L108 819.39" class="st10"/>
					<path d="" class="st10"/>
					<path d="M0 841.89 L0 819.39" class="st10"/>
				</g>
			</g>
			<g id="shape4-151" v:mID="4" v:groupContext="shape" transform="translate(1.95843E-013,-18)">
				<title>Sheet.4</title>
				<path d="M0 841.89 L22.5 841.89" class="st10"/>
			</g>
			<g id="shape5-154" v:mID="5" v:groupContext="shape" transform="translate(1.95843E-013,-63)">
				<title>Sheet.5</title>
				<path d="M0 841.89 L22.5 841.89" class="st10"/>
			</g>
			<g id="shape6-157" v:mID="6" v:groupContext="shape" transform="translate(1.95843E-013,-99)">
				<title>Sheet.6</title>
				<path d="M0 841.89 L22.5 841.89" class="st10"/>
			</g>
			<g id="shape7-160" v:mID="7" v:groupContext="shape" transform="translate(1.95843E-013,-81)">
				<title>Sheet.7</title>
				<path d="M0 841.89 L22.5 841.89" class="st10"/>
			</g>
			<g id="shape8-163" v:mID="8" v:groupContext="shape" transform="translate(853.14,786.765) rotate(90)">
				<title>Sheet.8</title>
				<path d="M0 841.89 L30.37 841.89" class="st11"/>
			</g>
			<g id="shape9-166" v:mID="9" v:groupContext="shape">
				<title>Sheet.9</title>
				<desc>an</desc>
				<v:textBlock v:margins="rect(4,4,4,4)" v:tabSpace="42.5197"/>
				<v:textRect cx="11.25" cy="832.89" width="22.5" height="18"/>
				<rect x="0" y="823.89" width="22.5" height="18" class="st1"/>
				<text x="6.66" y="835.89" class="st2" v:langID="1051"><v:paragraph v:horizAlign="1"/><v:tabList/>a<tspan
							dy="-0.287em" class="st3" v:baseFontSize="10">n</tspan></text>			</g>
			<g id="shape10-170" v:mID="10" v:groupContext="shape" transform="translate(1.57874E-013,-63)">
				<title>Sheet.10</title>
				<desc>a1</desc>
				<v:textBlock v:margins="rect(4,4,4,4)" v:tabSpace="42.5197"/>
				<v:textRect cx="11.25" cy="832.89" width="22.5" height="18"/>
				<rect x="0" y="823.89" width="22.5" height="18" class="st1"/>
				<text x="6.66" y="835.89" class="st2" v:langID="1051"><v:paragraph v:horizAlign="1"/><v:tabList/>a<tspan
							dy="-0.287em" class="st3" v:baseFontSize="10">1</tspan></text>			</g>
			<g id="shape11-174" v:mID="11" v:groupContext="shape" transform="translate(1.57874E-013,-81)">
				<title>Sheet.11</title>
				<desc>q0</desc>
				<v:textBlock v:margins="rect(4,4,4,4)" v:tabSpace="42.5197"/>
				<v:textRect cx="11.25" cy="832.89" width="22.5" height="18"/>
				<rect x="0" y="823.89" width="22.5" height="18" class="st1"/>
				<text x="6.66" y="835.89" class="st2" v:langID="1051"><v:paragraph v:horizAlign="1"/><v:tabList/>q<tspan
							dy="-0.287em" class="st3" v:baseFontSize="10">0</tspan></text>			</g>
		</g>
	</g>
</svg>
